/* XPM */
static char *result[] = {
/* columns rows colors chars-per-pixel */
"32 32 206 2 ",
"   c #010101",
".  c #0E0E05",
"X  c #130C0C",
"o  c #0F1009",
"O  c #141505",
"+  c #1B1312",
"@  c #15191C",
"#  c #3E0C0D",
"$  c #3D0907",
"%  c #2C1817",
"&  c #351919",
"*  c #2A1111",
"=  c #1C2110",
"-  c #1E2304",
";  c #262A05",
":  c #343C05",
">  c #313913",
",  c #33330C",
"<  c #131A28",
"1  c #0B163C",
"2  c #3F1824",
"3  c #1C2223",
"4  c #262B28",
"5  c #3B2A29",
"6  c #262637",
"7  c #283336",
"8  c #36332E",
"9  c #450B0B",
"0  c #4A0A0B",
"q  c #5B0906",
"w  c #57180D",
"e  c #5E0E11",
"r  c #49171B",
"t  c #531314",
"y  c #591715",
"u  c #430F1A",
"i  c #690B08",
"p  c #7C0F09",
"a  c #780B06",
"s  c #631311",
"d  c #731415",
"f  c #7A1215",
"g  c #761719",
"h  c #760F14",
"j  c #54230E",
"k  c #493B08",
"l  c #453909",
"z  c #502E0B",
"x  c #7F3E13",
"c  c #4D1B20",
"v  c #5C1627",
"b  c #482B2C",
"n  c #542C2B",
"m  c #473A34",
"M  c #4D3D3C",
"N  c #5A3B3B",
"B  c #553637",
"V  c #402B3D",
"C  c #653937",
"Z  c #3A4405",
"A  c #3E4C1C",
"S  c #364339",
"D  c #3B4620",
"F  c #434C05",
"G  c #5A4D09",
"H  c #52420A",
"J  c #4A5507",
"K  c #585C0A",
"L  c #51511E",
"P  c #474E1E",
"I  c #5B6B07",
"U  c #5D6D0D",
"Y  c #576608",
"T  c #5F7005",
"R  c #5F730F",
"E  c #5D621A",
"W  c #637506",
"Q  c #697F05",
"!  c #647809",
"~  c #616B06",
"^  c #4B4A23",
"/  c #475526",
"(  c #434537",
")  c #665A39",
"_  c #596124",
"`  c #1A1C4D",
"'  c #351F52",
"]  c #3E3044",
"[  c #262D42",
"{  c #0E266E",
"}  c #152568",
"|  c #0F2A7B",
" . c #0D2775",
".. c #102977",
"X. c #2F2767",
"o. c #562D54",
"O. c #34424C",
"+. c #394647",
"@. c #394A57",
"#. c #3C5063",
"$. c #3C4363",
"%. c #5C4748",
"&. c #42535B",
"*. c #5A5759",
"=. c #674846",
"-. c #6C564D",
";. c #695353",
":. c #735A57",
">. c #775D5A",
",. c #765855",
"<. c #5C5F68",
"1. c #4B566A",
"2. c #775B62",
"3. c #4D616E",
"4. c #4D6272",
"5. c #556A78",
"6. c #5B707D",
"7. c #72767B",
"8. c #6B6A6F",
"9. c #891416",
"0. c #921314",
"q. c #93161B",
"w. c #9D171A",
"e. c #991B19",
"r. c #830C06",
"t. c #A1191E",
"y. c #A1171C",
"u. c #8D1B2C",
"i. c #A31B22",
"p. c #8B393A",
"a. c #852532",
"s. c #A93412",
"d. c #9A411F",
"f. c #945C59",
"g. c #B65860",
"h. c #876866",
"j. c #966A69",
"k. c #89706D",
"l. c #9B7875",
"z. c #807C77",
"x. c #A37B79",
"c. c #748A06",
"v. c #778A0A",
"b. c #7B9406",
"n. c #7C9508",
"m. c #829C06",
"M. c #809908",
"N. c #86A106",
"B. c #8AA306",
"V. c #8DAA06",
"C. c #95B407",
"Z. c #9CBC06",
"A. c #99B806",
"S. c #93AF06",
"D. c #A0BF08",
"F. c #9FC107",
"G. c #9FC308",
"H. c #A2C407",
"J. c #A7C807",
"K. c #A4C508",
"L. c #A8C708",
"P. c #A6C808",
"I. c #A9C908",
"U. c #A9C807",
"Y. c #112C81",
"T. c #13318A",
"R. c #183B9B",
"E. c #173AA0",
"W. c #1F449D",
"Q. c #365488",
"!. c #335B9B",
"~. c #2E569D",
"^. c #1E45AA",
"/. c #244AAB",
"(. c #254FB3",
"). c #5B7383",
"_. c #6F718B",
"`. c #4171B6",
"'. c #2F5FC1",
"]. c #3B6FCE",
"[. c #4376C0",
"{. c #6D8493",
"}. c #738996",
"|. c #4680DD",
" X c #4B88E2",
".X c #5292EA",
"XX c #868581",
"oX c #8A8582",
"OX c #9E9596",
"+X c #AD8582",
"@X c #B38380",
"#X c #B58C89",
"$X c #BB908D",
"%X c #AF9392",
"&X c #8C9CA5",
"*X c #919FA6",
"=X c #A6A5A2",
"-X c #BEA2A3",
";X c #CC9D9A",
":X c #C89A96",
">X c #C5938F",
",X c #CEA09D",
"<X c #CFB3B2",
"1X c #CDCBCB",
"2X c #D8DDE0",
"3X c #DFE3E5",
/* pixels */
"H.L.H.H.H.J.J.K.P.K.G.G.G.H.H.K.U.H.G.H.G.J.J.J.H.I.P.P.G.G.P.G.",
"G.L.K.D.G.H.K.K.H.G.H.H.H.H.H.H.K.K.H.H.G.H.G.H.P.I.I.P.G.G.G.G.",
"G.L.L.H.G.G.G.G.H.H.J.U.J.H.G.G.H.K.H.K.G.G.G.F.V.V.V.C.G.H.K.G.",
"H.G.G.H.H.H.Z.Z.Z.V.V.Z.H.G.G.G.H.U.K.H.H.H.C.b.Z > > Y C.K.K.J.",
"J.Z.Z.Z.Z.H.H.G.b.l , ~ C.F.Z.A.Z.U.G.V.B.N.J - < @.#.S R S.G.K.",
"J.H.Z.Z.G.H.J.b.k d p w I N.A.F.H.H.v.^ ^ P o < @.{.}.).S c.H.F.",
"H.H.H.K.K.U.N.k 9 q.0.9 O ; c.A.A.Q ^ >.h.:.4 @.).).*X&X+.I F.H.",
"J.U.U.K.J.B.G d 9.9.s & o   ; m.c.4 < 6 6 6 @ ] 5.#.}.&X+.I F.F.",
"H.K.J.H.V.G d w.0.i =.x.=.X . Y ( X.X.}  .| 1 < @.6._.6.S ! G.G.",
"H.F.H.Z.I s w.w.i n @X;X@Xb + 4 *.a.u.v ` T.| 1 3 O.&.S ! A.J.J.",
"K.L.J.V.H f y.9.i n x.,X>X,.,.b a.i.t.q.u } R. .< 8 * F N.H.J.J.",
"U.D.D.W s w.e.a 9 y B k.l.@X@XC g i.w.w.e ` R.T.[ 7.p.w I Z.H.H.",
"H.D.A.Y e y.0.i 0 9 % ( %.x.:Xj.c q.i.i.9.2 /.W.1 *.@Xw I H.H.K.",
"H.H.B.G d w.p 9 s * ;.$X$X:X;X@XC h y.i.q.c !./.| $.x.C I D.H.H.",
"H.G.W w w.w.p 9 e B ,X<X%Xk.$X:Xj.t q.i.t.c !.'.E...<.z.U Z.H.U.",
"K.H.W t t.i.p.r e ;.1X*X8.5 ;.>Xj.r q.y.g ] [.[./.} <.XXU D.U.U.",
"H.G.W y i.g.-XB e =.%X;.h.m + ,.j.b p.g e Q..X X^. .<.XXE D.L.H.",
"G.G.b.z d h.XXb e 5 ;.>.l.:.+ + =.oX*XN V `..X[.R.` 2.oXR G.H.H.",
"H.K.G.c.J K J & d # ; > >.#X8   m 2X3X7.Q..X X(.| * f.oXU G.H.G.",
"K.K.G.G.A.A.S.Y y j W Y :.$Xm Z _ %X2X_.Q..X XW.' 9 f.XXU G.G.L.",
"K.J.H.H.G.G.G.V.J F S.n.) -.E n.c.( 7.6.4._._.o.h q B ;.U Z.H.U.",
"K.H.F.G.H.G.H.H.B.c.A.Z.c.Y N.G.V.F o 7 ) d.0.r.a $ * l c.G.H.J.",
"U.U.H.G.G.L.P.H.L.H.H.H.G.Z.J.H.J.N.Z . x s.a q $ 6 7 D c.A.G.K.",
"K.D.Z.A.G.H.G.G.H.H.H.G.G.P.U.H.J.H.n.Z z y $ + O.1.).&./ b.G.K.",
"H.Z.A.A.Z.G.K.J.K.U.U.U.H.H.G.H.H.G.G.n.: 4 3 +.5.).{.}.+.T G.G.",
"H.H.H.H.Z.D.K.K.U.H.U.K.H.K.L.P.L.G.Z.A.Y @.O.4.).5.1.{.+.I F.G.",
"H.J.P.I.H.Z.D.H.H.D.D.H.J.P.P.I.P.G.G.A.Y &.@.O.5.5.4.).S T G.G.",
"U.U.I.I.H.A.Z.H.H.J.H.H.H.H.H.H.H.H.K.P.M./ 7 = 7 O.5.&./ m.J.H.",
"U.K.H.H.Z.H.Z.Z.K.K.H.H.H.G.G.G.U.U.K.K.H.b.! W J = 4 A b.G.G.G.",
"J.F.Z.A.A.Z.Z.A.Z.Z.Z.D.F.G.H.H.K.U.U.K.H.H.H.H.S.T Y b.A.Z.G.G.",
"H.H.H.F.D.Z.D.Z.Z.Z.Z.F.G.F.J.H.J.K.H.H.G.H.J.H.G.F.Z.D.H.H.K.H.",
"H.H.H.K.U.J.J.U.J.J.H.G.F.H.K.K.H.H.H.Z.J.I.I.J.F.K.H.H.U.U.K.U."
};
