/* XPM */
static char *result[] = {
/* columns rows colors chars-per-pixel */
"64 64 162 2 ",
"   c #A17400",
".  c #A67900",
"X  c #AA7C00",
"o  c #A18402",
"O  c #AF8100",
"+  c #AB8B01",
"@  c #B18300",
"#  c #B78800",
"$  c #BB8C00",
"%  c #A59403",
"&  c #AA9403",
"*  c #A19A04",
"=  c #AC9903",
"-  c #B59501",
";  c #BE9200",
":  c #B49C02",
">  c #BC9B01",
",  c #96AF02",
"<  c #9BAC03",
"1  c #97B404",
"2  c #9AB604",
"3  c #9DBE06",
"4  c #A6A504",
"5  c #ACA503",
"6  c #A5AC04",
"7  c #ABAC05",
"8  c #B2A303",
"9  c #BCA602",
"0  c #BDAF03",
"q  c #A4B406",
"w  c #ABB604",
"e  c #A2BE06",
"r  c #AABD07",
"t  c #B3B604",
"y  c #BBB405",
"u  c #B1BC06",
"i  c #BBBB05",
"p  c #C29300",
"a  c #C59A00",
"s  c #CA9B00",
"d  c #C4A301",
"f  c #CCA300",
"g  c #C4AD02",
"h  c #CCAB00",
"j  c #D3A400",
"k  c #D4AA00",
"l  c #DBAC00",
"z  c #CFB000",
"x  c #C2B903",
"c  c #CDBA03",
"v  c #D4B400",
"b  c #DDB400",
"n  c #D4BC02",
"m  c #DCBB00",
"M  c #E2B200",
"N  c #E8B700",
"B  c #E5BB00",
"V  c #EBBB00",
"C  c #ECBF09",
"Z  c #F0BF00",
"A  c #CEA520",
"S  c #D0A721",
"D  c #9FC206",
"F  c #9FC308",
"G  c #A3C406",
"H  c #AAC606",
"J  c #A7CA06",
"K  c #ABCB06",
"L  c #A4C508",
"P  c #AAC708",
"I  c #A7CA08",
"U  c #ADCC0A",
"Y  c #B4C506",
"T  c #B2CD06",
"R  c #B2CF0A",
"E  c #AFD20B",
"W  c #B3D20B",
"Q  c #BAD50D",
"!  c #BEDA0D",
"~  c #D7C202",
"^  c #DDC500",
"/  c #DEC900",
"(  c #CED00D",
")  c #D4D002",
"_  c #E4C401",
"`  c #EDC300",
"'  c #E4CC00",
"]  c #EDCB00",
"[  c #E6CA0D",
"{  c #F3C300",
"}  c #F8C700",
"|  c #F2CC00",
" . c #FECD00",
".. c #F9CB09",
"X. c #ECD401",
"o. c #ECDA00",
"O. c #F3D400",
"+. c #FED400",
"@. c #F5DA00",
"#. c #FDDC00",
"$. c #FFDF0B",
"%. c #E4C412",
"&. c #E8C910",
"*. c #FFD315",
"=. c #FFD81C",
"-. c #ECE103",
";. c #F4E403",
":. c #FFE300",
">. c #FEEB00",
",. c #FCE40C",
"<. c #FCEF0A",
"1. c #FEF300",
"2. c #FFFD00",
"3. c #FFF50B",
"4. c #FFEA13",
"5. c #FAE519",
"6. c #FFE91B",
"7. c #FFFD13",
"8. c #FFF71A",
"9. c #DFC235",
"0. c #E4CC2C",
"q. c #F6DB36",
"w. c #E8E52A",
"e. c #FFE42B",
"r. c #FFF129",
"t. c #FEEC33",
"y. c #FBE43A",
"u. c #FEFC32",
"i. c #FFF03A",
"p. c #C3CA43",
"a. c #E3C046",
"s. c #EAC741",
"d. c #E1CB53",
"f. c #FDEB45",
"g. c #F9F54C",
"h. c #FFFF4C",
"j. c #F7E755",
"k. c #FFE856",
"l. c #FFEB5B",
"z. c #FFFF56",
"x. c #FFFA5C",
"c. c #F6DA6A",
"v. c #F7DC74",
"b. c #F0E866",
"n. c #FFEB63",
"m. c #FFF762",
"M. c #FFEA88",
"N. c #FFFB82",
"B. c #F4F18E",
"V. c #FFF195",
"C. c #FFFF95",
"Z. c #FFFC9F",
"A. c #FFEFA9",
"S. c #FEF3A5",
"D. c #FFFCA4",
"F. c #F7EFBB",
"G. c #FFFDB1",
"H. c #FFF9BB",
"J. c #F7F3CC",
"K. c #FEFAE1",
"L. c #FFFCF1",
"P. c #FFFFFF",
/* pixels */
"3 D L U e 3 L G L I I G U U J L I I I U D D D F F F F F L L L G U K 3 F D F F L 3 F I I L P L I G L I U F F F G P F F D L I G G ",
"L F P U 3 3 D F F G I I I L I D P I G D F D F D L D D D G I G L P 3 3 L D F F D L F L I G G P I G L I U L E R e F F D F F D F L ",
"D F I P P L P e D D I L G I I G I G F F D F L F F F L L L L L I R H 3 J F F F F F F F L J F D L L I U G I P U U 3 L F F L F L D ",
"F F L L L L 2 3 L F D F L L G F D F F F L G P D U D D F F L L L 3 F I U D U P F G F D F F F D F L L F P U I U P 3 G D 3 D F F D ",
"F F P I I J P 3 F F F F L D F L F F D G 3 I P G U L F F F F F F F G U F L L 2 3 F D L F F G P F F F F I I I G 3 3 F F L D F L 3 ",
"F F F L P L H G F F F F 3 3 3 F F L L L F I P P P G F L F F F F F G I F I G K U I G D L F I L D F F F L J L 3 3 L 3 L F F D 3 L ",
"3 D F L F I e D L D F D 2 2 1 2 F G I I I I U K 3 e L 3 F D F D F G U P L I H H G F F L D D I D D F F F F F F L F D L G e G L U ",
"L U 3 3 3 F e D L F F L F D F 3 G L e w y h k l l l k l l k l l k l l l k b _ ] O.| _ ~ i r P G F F D D 3 F 3 D L F I G P G P L ",
"I P 3 3 D F D D F F F D D D F F e u c B B V V V V V V V V V V V V N N B ] @.+.#.#.#.+. .{ m i 3 D 1 1 1 1 2 1 1 D L I L G I I P ",
"D 3 G 3 2 2 2 2 1 1 3 I I I I e x ` }  . . . . . . . . . . . . . .] | @.:.6.t.3.>.>.:.+.+. .{ c q 3 3 1 2 2 2 D D F D F G L G D ",
"F P F 3 2 2 2 2 3 3 F F G K H n } +. . . . . .+. . .+.+. . . .} { O.#.4.x.D.z.3.1.1.1.:.#.+.+.} v r F 3 3 D P D D G P D U F D D ",
"I J F F D F G L 3 G L P L P ~  .+.+.+.+.+.+.+.+.+.+.+.+.+.+.+.` O.#.i.Z.H.l.$.@.O.O.@.+.#.+.+. .{ h q P F D U e D I L U K 3 D L ",
"L D F G D F D I L I P H P ( <.3.3.3.3.3.3.3.3.3.3.3.3.3.3.3.X.] #.i.D.V.q._ v h d h h k N } +. .} V g P G e J L L I U U 3 D G P ",
"L G I I P D L I G 3 U G p.B.C.C.C.C.C.C.C.C.C.C.C.C.C.C.C.b.[ @.>.r.y.&.k d z m a h n > O s Z  .} V N 0 P F I G P L P e 3 G L L ",
"F G U U J L L I P 3 G Y w.h.z.h.h.h.h.h.h.h.h.h.h.h.h.h.g.0.O.>.1.@.B d n X.,.;.> v 1.@.k # # N } V V b t L I L F F P K 3 F D D ",
"D I I K U L G U G D e ) 2.2.2.2.2.2.2.2.2.2.2.2.2.2.2.2.o._ @.>.:.m h _ 5.m.z.-.# d ;.+.+.V p @ j N V N g e 3 D 3 F F D D F F F ",
"F J K G U 3 G P K 3 i O.:.:.:.:.:.:.:.:.:.:.:.:.:.:.:.@.b ] >.:.B h _ t.D.D.u./ a a ] +.+. .{ p @ f M V M 4 2 2 , 2 1 2 3 D D F ",
"D G K P K 3 F T e q v  . .+. . . .+.+. . . . .+. . . .N l X.>.O.g _ f.G.C.u.>.f M s b +. . . .Z $ # j M N 9 < 1 1 2 2 2 D G D D ",
"F 3 F 3 2 F D 3 3 t ` }  .}  .}  .}  .} }  . .} }  .Z M M @.#.v v y.N.z.7.>.] d { j f  . . . .+.M X p l N j 4 P G G L I I I J G ",
"P F 3 3 G L F 3 e 0 N N N N N N N N N N N N N N N N l l V @._ h O.8.7.2.>.#.B h O.N p }  . . . .} a X j l l 9 P I G P I I U U W ",
"I L P L D J U P 6 j M M M M M M M M M M M M M M M l j l V } k m <.2.2.>.+.,.9._ +.V p N  . . .+.} l @ p l l d 6 P U L F L G W G ",
"I D I L I I G 3 5 l M M M M M M M M M M M M M M M l j l ] l > X.2.2.>.#.$.l.F.j.*.{ j j +. . . .{ Z p @ j j f 5 E I e 3 U 3 e U ",
"D I U 3 K P I T 9 l M M M M M M M M M M M M M M M l j l N a a >.2.3.e.k.V.K.P.K.A.v.a.S .. . . .Z V j X p j j : 3 3 1 2 I P 3 D ",
"F P U 1 2 K P q f M M M M M M M M M M l M M M M l j j l l @ b 2.2.,.e.n.S.K.P.L.A.c.s.A C  . . .Z Z M @ X j j > < 1 F 3 I D G D ",
"L L F 3 1 1 e 6 k M M M M M M M M M M M M M M M M s s l s @ o.2.@.| | ] %.d.J.M.*.Z M j j M N N M M M p X s j p 6 I I I D F F I ",
"I L F F D 2 2 y l M M M M M M M M l M M M M M M l s s j ; @ h / _ _ ' X.o.;.f.=. .Z M Z N l l j j j a # . p s a 7 H I G I L L I ",
"P 3 F F 3 3 3 9 l b M M M M M M M M M M M M M M l s s s @ a h / 1.:.:.:.+.+.+.+. .Z M V { Z V M l j # $ X # s a 5 P G J G P L G ",
"F L F F D P I d M M M M M M M M M M M M M M M M l s p p O m -.h ] O. . .+. . . . .V M M M M M M j p a l # X p s : 3 L L 3 L D 3 ",
"F F D F L P I h M M l M M M M M M M l M M M M M j s p p X ` 1.B h ] { }  . . .+.} N M M M M M j p $ M M $ X p s - D F 3 e G G L ",
"I L D F D 3 L a l l l l j l j l j l l l j l j l s s p p O _ :. .k k ` B V { } } Z M M M M M s p # l Z N $ X $ a - 3 D L L G P P ",
"P G L F D F D $ p p p p p p a p p p a p p p a p p s p # O ^ O. .} f b B M M M N M M M M M j p # j N Z M $ X $ a - 3 3 P D I P L ",
"D L I F F F G $ p p p p p p p p p p p p p p p p p s p X X ^ ] Z  .V f B N M M M M M M M s p X a M Z Z M $ . # a ; L K G E U L I ",
"L I G D D 2 3 $ p p p p p $ p p p p p p p p p p $ s p X X b ` Z ` { l f B M M M M M M l p X p M V V N M p   X s $ e 3 G I L I L ",
"L F F D 3 1 1 $ p p p p p p p p p $ p p p p p $ p s p @ X k V N V V V f j B M M M M M j # X l V V N M j # X p p ; e P J P L L 3 ",
"F F D D L F L # p $ p $ p p p p p p p p p p p p $ s p @ X f N Z V Z V j f ` M M M M M l p X M Z N M M j # X X s - F L P D P G L ",
"D F F D I I F - p p p p p p p p p p p p p $ p p $ a p # X a M V V V V s b } N M M M M M p X j V M l M j X X p p - L L D D G F F ",
"F D I I I P G - p p $ p p p p $ p p p p $ p p p p p p X X p l N V V N a ]  .N M l j l l s X p M l M l s X X X s : L I G D D F F ",
"D G P G L F I : p p p p p p p p p $ p p p p p p $ p p # X $ j M ` V l a O.} N l s p s j s X $ l l l l p X X p p 5 G L L F F L D ",
"G G F E L 3 U 5 $ p p p p p p p p p p p p p p p p p p # X # j l N V j h +.} N j p p s s s # X l l l j p X X p s 7 L G P F D D F ",
"3 I I D F F F 6 $ p p p $ p p p p $ p p p p p p $ $ p # X X s j M N a _ O.V l $ X X # p p p X s M l j # X X p p q D I F F D I W ",
"I G 1 e F F F q - p p p p p p p p p p p p p p p p $ p # X X p j k l a X.} M s $ s p X # s p X p l j a X X @ p > r L L D D F U L ",
"I G I R P L F 3 = # # # # # # # $ X $ p # # # # # # p p X X X a s a d @.Z s $ j l l a @ X p # $ j s p X X # p 5 L P F F D G L P ",
"P L G 3 3 F F G 4 @ @ @ @ @ @ @ X # X X # X X X @ @ $ p # X X p s # n @.s p j l l M l s @ X @ # p a # . @ $ p 7 G P F D F L I K ",
"G G 3 F 3 L D F q + O O X @ @ @ # X X # X # X # @ X @ p $ X X # a $ ~ k p j l l l l l M j $ X X $ p X X @ p > q 3 3 3 3 3 F G L ",
"U U U U 3 D D L 3 % X @ @ @ @ X @ @ X @ @ X # X X @ @ p p X X X $ @ > p a s j j j j l j s a # X # @ . X $ p 8 e 2 1 1 2 3 D G L ",
"L G R U D D F D F 4 @ @ @ @ @ @ @ @ @ @ X # X # # X @ $ p # @ X X O $ a s s s s s s s s s s s # X   X # $ p 6 L D G D F D F I I ",
"U D 3 3 D F F D F e + O O @ @ @ @ @ @ @ X @ # X X # X # p p X X   @ s s s s s s s s s s s s s p X X @ # p : 3 D F P 3 F F F L U ",
"T G 3 3 2 2 1 2 1 3 6 O @ O @ @ @ X @ @ @ @ @ @ # X @ X $ p # # X . $ s s s s s s s s s s s p X X X X $ p 4 U G L G H e F F D G ",
"3 L 3 1 , 1 1 2 2 F e & X @ @ X O @ O @ O @ O @ O @ O @ @ p p X X X . # s s s s s s s s s p X . X X # p 8 r L G I G U G P F F F ",
"F G F 3 3 3 3 2 3 3 3 6 + @ @ @ @ O @ O @ + @ O @ O @ O @ $ p @ # X X . X p s s s s s p # X . X @ # $ p 7 L F D G U P G L 3 D D ",
"F F F L G F G 3 2 2 1 1 4 O @ @ O @ O @ @ O @ @ O @ O @ @ X $ p # X p X . . X X # # @ X   X @ @ @ # p 8 3 L D L G 3 L 3 F F D L ",
"F F F F D G L D F F F F e % O @ @ O @ O @ @ @ O @ O @ O # X X p p # X X X X X X .   . X X X @ @ # p : e L 3 3 U G 3 G D L D D F ",
"F L I P L L U W 3 F L F G < = @ O O O O O O O O O @ X @ @ @ X # p p X # X # X # X X # X @ @ @ # p : q D L I 2 L L 3 I I U 3 3 F ",
"3 L I I I U H G 3 F 3 1 3 L q % X   X   . . X   . .     . X     X p p p # X # X @ @ # # @ # $ p > q F D e R U L P D I U H L L L ",
"L U P L I P U Q e 2 , , , 3 L 3 * .                               X # p p # # # X # # # $ p p 8 q F F F P R U I I L I F U U P L ",
"I I E U F P U G F L 3 3 3 F 3 e P < * .                             X X p p s p p p p p p 9 w e F F D L F I P I I G D P P G 3 F ",
"I P G W P L F F D D F F F 3 3 P P I e 7 * o     .                       o O ; > a a > 8 t H L 3 D L F F F D G 3 3 3 3 G F D F F ",
"I U 2 F P G 3 D F G F L F 1 2 , G P L G P G e R F F F F F F F D e r U L J H 3 H P L D I P L F L L D D F F F L 2 , , 3 L 3 D F D ",
"Q G 2 F 3 2 3 2 3 3 1 3 F , 1 2 3 3 I 1 G 1 e e F F D F F L 3 3 L q P U I I G P I F 3 G L D F F D F D D F F D F 3 D F 3 L F F D ",
"G 2 D D D 3 1 1 1 , 1 2 3 3 1 2 1 3 3 1 1 2 1 3 D D D F L F P K G R P G P G D D D F F L L F L F D D F 2 3 3 3 F L 1 , 1 3 D L F ",
"F F G F F F F D 3 3 3 D L F 3 1 2 1 2 2 3 3 D 3 3 3 D F D I F P I I U G D F F F F F D D F U 3 3 D L 3 2 2 2 3 L 3 3 3 3 3 U L F ",
"D L D D F F D G F D 3 2 3 3 F F D 3 3 D F F F L F D D F F U L D G G J I F D L D F F L G e W 3 L 3 F F D 3 L F F K 3 I U 3 W e G ",
"F L F F F D F F L U P D D G L I F I U D L D F D F D D F G P 3 F F D D G F F F F F F W R R G L U e D D G 3 F D U U H E P L G U e ",
"R L F G I D I U U E U L P W R I F W L U L F F F F D D L I F P U K F D L D D D D D P U R U U P I e F K ! P 3 L P L I F L L L U U "
};
