/* XPM */
static char *result[] = {
/* columns rows colors chars-per-pixel */
"64 64 196 2 ",
"   c #9F7500",
".  c #A37600",
"X  c #A67900",
"o  c #AB7D00",
"O  c #A48502",
"+  c #AF8200",
"@  c #A18802",
"#  c #AC8C01",
"$  c #B28300",
"%  c #B78900",
"&  c #BB8C00",
"*  c #A39604",
"=  c #AA9302",
"-  c #A99E03",
";  c #B69501",
":  c #BE9100",
">  c #B39D02",
",  c #BD9B01",
"<  c #96AF02",
"1  c #97B404",
"2  c #9AB604",
"3  c #9DBE06",
"4  c #ABA504",
"5  c #A4AB04",
"6  c #ADAC04",
"7  c #B5A403",
"8  c #BCA402",
"9  c #B5AB03",
"0  c #BAAB03",
"q  c #A2B206",
"w  c #ABB405",
"e  c #A2BE06",
"r  c #A9BB06",
"t  c #B4B505",
"y  c #BDB404",
"u  c #B5BF06",
"i  c #BCBB05",
"p  c #C29300",
"a  c #C49900",
"s  c #CA9B00",
"d  c #C5A201",
"f  c #CDA300",
"g  c #C4AB02",
"h  c #CBAA00",
"j  c #D4A400",
"k  c #D8A700",
"l  c #D4AC00",
"z  c #DCAC00",
"x  c #CEB402",
"c  c #C2BC03",
"v  c #D4B301",
"b  c #DCB300",
"n  c #D5BC01",
"m  c #DCBC01",
"M  c #D8B20C",
"N  c #E0AF00",
"B  c #E3B300",
"V  c #E8B701",
"C  c #E5BA00",
"Z  c #ECBC00",
"A  c #E3B50B",
"S  c #EABB0A",
"D  c #F0BF00",
"F  c #EBBE15",
"G  c #E5BA19",
"H  c #E6BD24",
"J  c #E1BA33",
"K  c #9FC206",
"L  c #9FC308",
"P  c #A3C406",
"I  c #AAC606",
"U  c #A7CA06",
"Y  c #ABCB06",
"T  c #A4C508",
"R  c #AAC708",
"E  c #A7CA08",
"W  c #ADCC0A",
"Q  c #B3C105",
"!  c #B2CD06",
"~  c #B2CE0A",
"^  c #BECA08",
"/  c #AFD20B",
"(  c #B3D20B",
")  c #BAD50D",
"_  c #BEDA0D",
"`  c #C7C404",
"'  c #D4C203",
"]  c #DDC500",
"[  c #DCC00D",
"{  c #CBD10E",
"}  c #DFC117",
"|  c #E4C401",
" . c #EDC400",
".. c #E4CA01",
"X. c #ECCB00",
"o. c #EBC90B",
"O. c #F3C300",
"+. c #F8C700",
"@. c #F4CB00",
"#. c #FDCD00",
"$. c #FDCF0C",
"%. c #E4D400",
"&. c #EAD400",
"*. c #EDDB03",
"=. c #E3D108",
"-. c #F3D300",
";. c #FDD400",
":. c #F5DA01",
">. c #FEDD00",
",. c #FFD20C",
"<. c #FFDE0C",
"1. c #E9C715",
"2. c #F5CA1C",
"3. c #FFD217",
"4. c #FFDC14",
"5. c #F5D91D",
"6. c #ECE401",
"7. c #F4E400",
"8. c #FEE300",
"9. c #F6E903",
"0. c #FEEC00",
"q. c #F6EF0C",
"w. c #FEF301",
"e. c #FFFD00",
"r. c #FEF50C",
"t. c #FFF90D",
"y. c #FBE312",
"u. c #FFEE10",
"i. c #FFE91B",
"p. c #FFF519",
"a. c #FFFF1C",
"s. c #F8CF29",
"d. c #EBD824",
"f. c #F3D923",
"g. c #E9C43B",
"h. c #ECDA3A",
"j. c #F7D53D",
"k. c #FFEC25",
"l. c #FEE42C",
"z. c #FFF222",
"x. c #FFFB20",
"c. c #FFF12A",
"v. c #FFFF2F",
"b. c #FFED38",
"n. c #F2F030",
"m. c #CCD252",
"M. c #EBC94D",
"N. c #F7D449",
"B. c #ECCD5A",
"V. c #F8D856",
"C. c #FFE645",
"Z. c #F9F045",
"A. c #FFFE4A",
"S. c #FFEB54",
"D. c #EED065",
"F. c #EFD46F",
"G. c #F2D669",
"H. c #F4DF69",
"J. c #F0D77A",
"K. c #FFE865",
"L. c #FEEA6B",
"P. c #F7F261",
"I. c #FFF560",
"U. c #FFFE67",
"Y. c #FFFA6A",
"T. c #FFE474",
"R. c #FFE578",
"E. c #FFFB73",
"W. c #FFFB7A",
"Q. c #F1D980",
"!. c #F7E586",
"~. c #F9F684",
"^. c #F5E299",
"/. c #FAE79E",
"(. c #FFED9E",
"). c #F7F594",
"_. c #FFFF96",
"`. c #FEF19D",
"'. c #FFF999",
"]. c #F7E7AD",
"[. c #F7EEA9",
"{. c #FFFDA3",
"}. c #FFF6AC",
"|. c #F7EAB9",
" X c #FFF4B1",
".X c #FFFBB7",
"XX c #FFFEBE",
"oX c #F8EEC4",
"OX c #FFF7C3",
"+X c #FFFACD",
"@X c #FDF5D5",
"#X c #FFF9DB",
"$X c #FEFAE5",
"%X c #FFFBEB",
"&X c #FFFEF4",
"*X c #FFFFFE",
/* pixels */
"3 K T W e 3 T P T E E P W W U T E E E W K K K L L L L L T T T P W I 3 L K L L T 3 L E E T R T E P T E W 3 L L P R L L K T E P P ",
"T L R W 3 3 K L L P E E E T E K R E P K L K L K T K K K P E P T R e 3 T K L L K T L T E P P R E P T E W T / ( e L L K L L K L T ",
"K L E R R T R e K K E T P E E P E P L L K L T L L L T T T T T E ~ I 3 E L L L L L L L T U L K T T E W P E R W W 3 T L L T L T L ",
"L L T T T T 2 3 T L K L T T P L L L L L T P R K W K K L L T T T L 3 E R K W R L P L K L L L K L T T L R W E W R 3 P K 3 K L L K ",
"L L R E E U I K L L L L T L L T L L L P 3 T E T W T L L L L L L L P W L T T 2 3 L K T L L P R L L L L E E E U 3 3 L L T K L T 3 ",
"L L L T R T I P L L L L 3 3 3 L L P P T L E R E R P 3 T L L L L K P E K E P Y W E K K T L E T K L L L T U T 3 3 T 3 T L L K 3 T ",
"3 K L T L E e 3 T K L K 2 2 2 1 L P E E E E W W 3 e T 3 L L L P L P W W E E I I T K e T K K E K K L L L L L L T L K T P e P T W ",
"T W 3 3 3 L e K T L L T L K L 3 L P P P r i x v v l z b z z z l z C C ..-.-.@.C v c Q W E T R P L L K K 3 L 3 K T L E P R P R P ",
"U I K 3 L L L L L L L K K K L L K L I ` | @.+.+.+.+.+.O.O. . . .-.>.>.>.>.>.>.;.#.+. .' Q I P L K 1 1 1 1 2 1 1 K T E T P E E R ",
"K 3 P 3 2 2 2 2 1 1 3 E E E E L K u n O.#.#.;.#.#.#.#.#.+.@.:.>.8.i.b.u.w.0.0.>.;.#.;.#.O.' i L L K 2 1 2 2 2 K K L K L P T P K ",
"L R L 3 2 2 2 2 3 3 L L T Y E R i  .#.#.#.#.#.#.#.;.+.@.;.>.>.c.E.{.Y.t.w.w.w.w.0.8.;.;.#.#.C t P T L 3 3 K R K K P R K W L K K ",
"E U L L K L P T 3 P T R T I ! ` @.;.>.;.;.;.>.;.>.+.X.;.>.k.E.XX}.S.y.:.-.-.-.:.;.;.>.;.;.#.@.V y e L R L K W e K E T W I 3 K T ",
"T 3 L P K L K E T E E R E R { q.r.r.r.r.r.r.r.r.9.X.:.>.c.'.}.L.f.C v M g h h v l k  .;.;.#.+.D B y e W P P U P T E W W L K P R ",
"T P E E R K T E P 3 W I R m.)._._._._._._._._.~.d.@.8.w.z.C.5.m h g x } m h n m d + $ j O.#.#.O.Z V y T W L U P R T R P 3 P T T ",
"L P W W U T T E R 3 T R ^ n.A.A.A.A.A.A.A.A.A.h.o.>.0.0.>...h h m -.y.c.*.h *.w.8.C s + & V +.Z Z Z b t T T E T L L R I 3 L K K ",
"K E E Y W P P W P K 3 I 6.e.e.e.e.e.e.e.e.e.6...-.0.0.>.C h v &.k.Y.U.A.=.s | 8.>.;.#.V p o s V Z Z Z v r L 3 K 3 L L K K L L L ",
"L U Y P W 3 P W I 3 P ' 8.8.8.8.8.8.8.8.8.:.C ..8.0.>.m h C y.I..X{.A.P.[ Z l ;.;.#.#.;.O.s o p k V Z V 0 2 2 2 < 2 1 2 3 K K L ",
"K P I R Y 3 K ! 3 3 i @.#.#.#.;.#.;.#.;.#.V b @.0.8.| g | l._.OXW.x.p.J.} @.j  .;.#.#.#.;.+.s o p k B Z k 4 2 1 1 2 2 2 K T K K ",
"L K 3 3 2 L K 3 3 r n +.+.+.#.#.+.+.+.+.O.z B -.8.X.h C l.W.E.v.e.8.l.[.f.;.k b ;.#.#.#.#.#.O.p o s k V N 8 2 R P P P E E E U P ",
"R L 3 L P T K 3 L t B V Z V V V Z V Z V z z C ;.:.v v :.p.a.e.w.8.>.C.+XC.#.V j +.#.#.#.;.#.#.V % % f z V j t W U P R E E W W ~ ",
"E T R T K U W R q g N B B N b B B B B z k b Z #.b h &.w.e.e.w.8.8.>.L.$XK.#.Z j Z ;.#.#.;.#.#.D s o a k z k 8 2 R W P L T T ( P ",
"E K E T E E P 3 5 l B B B B B N B B B k z B  .Z & b 0.e.e.0.8.>.>.<.`.*X(.$.Z N z #.#.#.#.#.+.Z V & o f k j d w / E P 3 W 3 P W ",
"K E W 3 I E E ~ 9 b B B B B B B N B N j z z  .s $ X.w.e.w.8.>.>.>.C.#X*X$XV.S V k O.;.#.#.#.O.Z Z s o & j j f 9 3 3 1 2 E R 2 L ",
"L R W 1 2 I R P h z B B B N B B B B z j j z V $ f 8.e.e.8.>.4.l.K.OX*X*X*X#XQ.V.J 1.,.$.#.#.Z Z Z z % o s j j ; < 2 L 3 E K P K ",
"T T L 3 1 1 e 5 h B B B B B B B B B k j s z j o C w.q.5.j.H.(.+X&X*X*X*X*X*X*X$XoX^.G.g.F V B V V V p X p j j , r T E E L L L E ",
"E T L L K 2 2 i b B B B N B B N N B j f s k & % l ] ....=.d.Z.W..X%X*X*X*X%X].F.N.s.F A k j f j s a & o % s s a w I E P U T T E ",
"R 3 L L 3 3 3 0 z B B B B B B B N N j f p s o s ..] 9.w.8.8.8.>.4.T.%X*X&X!.F N V D D D V V B k s p s $ o p s s 7 R P E P R T P ",
"L P L L L R R g B B B B B B B B N N j f p p o v w.&.] :.#.#.#.#.#.3. X*X#Xj.V N N V N B B B k s p k B & o & s s 7 3 T T 3 T K 3 ",
"L L K L T R U h B B B B B B B B N N j s p & o | e.8.V ] -.O.O.+.#.$.R.&XOX2.V N B B B N N k a p j Z Z p X $ p s , K L 3 e P P T ",
"E T K L K K T f j j k k k j k j k j j s p % o C 9.>.+.V | X.V V Z O.N.$X/.S B N N B B N s p p j Z Z Z s o $ p s , 3 3 T T P R W ",
"R P T L K L K : p p p p p p p p p p s s & % o m :.@.;.#.C | X.V V B J @XQ.B B B N N N s p & j V Z Z Z s o o : s , 3 K R K E R T ",
"K T E L L L P & p p p p p p p p p p s s % o o b &.Z O.#.@.B |  .B N G |.D.B N B N N p % & f V Z Z Z V a X + & s : L I P / W P E ",
"T E P K L 2 2 & p & p p p p & p p p f s & $ o l X.Z Z Z O.O.b | Z B A ^.M.B B B N s o % s Z D Z Z B N p o o & s p 3 3 P E T E T ",
"T L L K 3 2 1 & p p p p p p p p p p s s % o o j Z Z Z Z Z Z V h ..V A J.g.B B b N p % s B Z Z D B N N p o o & a , L I E W T P 3 ",
"L L K K T L T ; p p p & & p p p p p s s & o X s B Z Z Z Z Z Z j X.O.B B.H N B B N s o s D D Z B N z k p X o & s : L P R L R P P ",
"K L L K E E P ; p p p p p p p & p p p s & % o p z Z Z Z Z Z V v ;.+.V g.G B N B N j % p B Z N N z z k % o o & s , L T L L P L L ",
"L L U E E R P > & p & p p p p p p p p p % $ o p j B Z Z Z  .z ] ;.#.Z H A k j k N k & & k N z N z z f $ o o & s 7 T E P L K L L ",
"K P W P T L E 7 p p p p & p p p & p p p p $ o $ j z V Z Z Z l &.;.+.B A k s s s j s p o s z z N z k a o o % & s 9 P T T L L T K ",
"P P L / P 3 W 6 : p p p p p p p p p p p p $ o o f j b Z Z B v 7.#.O.B N p % & a s s p % p k N k z j p X o % p a r P P I L K K L ",
"3 E E K K L T q ; p p & p p & p p p p p p % o X p j j B Z z ] 8.+.Z N s % $ $ % p s p % & j N N k s % X o % p a r 3 U L L K U ~ ",
"U P 1 P L L L e > & p : p : p : p p p p p o o o o s k k N k &.8.O.V s p s z a % $ p p p % s k k f p o o $ & p 7 I P T K K L W T ",
"E P E ( W e L 3 4 % & % % % % % & o % & a p % o X p s s s l 7.;.V f p f N N z s p o % p % p j s s p X o $ p a 6 P W L L K P T R ",
"R T P 2 3 L L K q # + $ $ + $ $ o o $ % p p o o . % s s p n 9.Z s s k z N k N k k p o o % & p s a o X $ % p a r P R L 3 L T E I ",
"P P 3 L 3 T K L P = $ + + $ o $ o % $ $ p p & & o X p s a %.&.s a k k z N k N N N k s p % & p s & X o % & p 7 3 3 3 3 3 3 L T T ",
"W W W W K K K T L 5 + $ $ $ $ o % o o % % s p o $ X o a : l s p s s f j j k j j j s s p p % & p o o o % p a q P 2 1 1 2 K K P T ",
"T P ~ W K L L K L 3 = + o $ $ $ o % o o o p p % $ o X o % p s s s s s s s s s s s s s s p p $ o X o o & a 8 e P K P K L K L E E ",
"W K 3 3 K L L K L L 5 + $ $ $ $ $ $ o % o o s p $ $ o . % p s s s s s s s s s s s s s s s s o . o % % p a 5 K K L R 3 L L L T W ",
"! P 3 3 2 2 1 2 1 3 T - $ $ $ o % o % o % o p p & $ o o X % p a s s s s s a s s s s s s p o o o o o & s 7 3 W P T P I e L L K P ",
"3 P 3 1 < 1 1 2 2 L T q # $ + $ + $ + $ o $ % p p $ $ $ o . o p a s s s s s s s s s a & o o o $ % % p a r R L P E P R T R L L L ",
"L P L 3 3 3 3 2 3 3 3 L 5 + + + $ + $ + $ $ o % p p $ $ $ o X o o p p s s s a s p p o . X o $ $ o p a t T T L K P W R P T L K K ",
"L L L T P L P 3 2 2 1 2 e - + $ + $ $ + + + $ + & p p $ o % o o o . o o $ % $ o o . X o o $ $ $ & a 6 T K T L T P 3 T 3 L L K T ",
"L L L L K P T K L L L L K e = + + $ + $ $ + + $ $ % p p % $ $ $ o o o X . . X X o o $ $ $ $ % & a 4 e L T L 3 W P 3 P K T K K L ",
"L T E R T T W ( 3 L T K P 3 r # + + $ + + $ + $ o $ & p p & $ $ % o % o $ o $ $ o % o % $ % : a 6 3 L K T E 2 T P 3 E E W 3 3 L ",
"3 T E E E W I P K L 3 2 3 L L q # + + $ $ + $ $ $ $ o $ p p p & o % o % $ $ $ $ % o % % : p , w T L L K e ~ R T R K E W I T T P ",
"T W R T E R W ) e 2 1 < 1 3 T P q = + + o + o o o o o X o $ p p p p p % % % $ % % & p p a 9 r P T L L L R ~ W E E T E L W W R T ",
"E E / W L R W T L L 2 3 3 L 2 e R r - @ X X . . . . .   . . o $ % s p p p p p p a a a 8 w I P K 3 L L T P E R E E P K R R P 3 L ",
"E R P ( R T 3 L K K L L L 3 3 R R E P w 5 * * O O O   .       . . o % , , a , , 9 6 r E I E T K K T L L L K P 3 3 3 3 P L 3 L L ",
"E W 2 L R P 3 K L P L P L 1 2 < P R P P R L P W K L L L L L L K e W W T U R 3 E R T P E E T L T T K K L L L T 2 < < 3 P L L L K ",
") P 2 L 3 2 3 2 3 3 2 3 L < 1 2 3 e E 1 P 1 e e K P K L L P 3 3 T r E E E E P R E L 3 P T L L L K L L K L L K L 3 K L 3 T L L K ",
"P 2 K K K 3 1 1 1 < 1 2 3 3 1 2 1 3 3 1 1 2 1 3 K 3 L L T L R I P ~ R P R P K K K L L T T L T L K K 3 2 3 3 3 L T 1 < 1 3 K T L ",
"L L P L L L L K L 3 3 K T L 3 1 2 1 2 2 3 3 K 3 3 3 L L K E L R E E W P K L L L L L K K L W 3 3 K T 3 2 2 2 3 T 3 3 3 3 3 W T L ",
"L T K K L L K P L K 3 2 3 3 L L K 3 3 K L L L T L 3 K P L W T K P P U E L K T K L L T P e ( e T 3 L L K 3 T L L I 3 E W 3 ( e P ",
"L T L L L K L K T W R K K T T E L E W K T K L K L K L L P R L L L K K P L L L L K L ( W ~ P T W P L K P 3 L K W W I / R T P W e ",
"( T L P E K E W W / W T R ( ~ E L / T W T L L L L K K T E L R W Y L K T K K K K K I W ( W W R E e L I _ R 3 T R E E L T T T W W "
};
