/* XPM */
static char *result[] = {
/* columns rows colors chars-per-pixel */
"32 32 98 2 ",
"   c #AC7D00",
".  c #AF8000",
"X  c #B38400",
"o  c #B68800",
"O  c #BB8C00",
"+  c #BE9100",
"@  c #BD9D01",
"#  c #99B704",
"$  c #9DBC06",
"%  c #B5A502",
"&  c #B4AB03",
"*  c #BBAA02",
"=  c #A2B304",
"-  c #ACB505",
";  c #A6BC06",
":  c #ABBB06",
">  c #B2B405",
",  c #B9B404",
"<  c #B1BC05",
"1  c #C39400",
"2  c #C59900",
"3  c #CA9B00",
"4  c #C2A001",
"5  c #CDA200",
"6  c #D3A300",
"7  c #D7A900",
"8  c #DBAC00",
"9  c #C5B303",
"0  c #CEBC03",
"q  c #D3B401",
"w  c #DCB000",
"e  c #DCBB00",
"r  c #DDBE09",
"t  c #E4B400",
"y  c #E8B700",
"u  c #E6BB00",
"i  c #ECBC00",
"p  c #F0BF00",
"a  c #9FC207",
"s  c #9FC308",
"d  c #A2C407",
"f  c #ABC407",
"g  c #A6C807",
"h  c #A8C807",
"j  c #A4C508",
"k  c #A8C708",
"l  c #A6C808",
"z  c #A9C908",
"x  c #B4C305",
"c  c #BBC404",
"v  c #BCC905",
"b  c #C9C604",
"n  c #C4C904",
"m  c #CCCC04",
"M  c #D5C403",
"N  c #D5CD03",
"B  c #D8CF02",
"V  c #E7C100",
"C  c #EDC700",
"Z  c #E5CA01",
"A  c #EBCA00",
"S  c #E2C20F",
"D  c #F3C300",
"F  c #F9C700",
"G  c #F4CB00",
"H  c #FDCC00",
"J  c #EDD400",
"K  c #EEDD01",
"L  c #EDDA08",
"P  c #F3D400",
"I  c #FDD400",
"U  c #F4DC00",
"Y  c #FBDA00",
"T  c #E5CA14",
"R  c #F6DE10",
"E  c #F4E100",
"W  c #FCE501",
"Q  c #FEEC00",
"!  c #FDF401",
"~  c #FFFB03",
"^  c #FDE714",
"/  c #FAEC10",
"(  c #F7E31E",
")  c #F8E51A",
"_  c #F9ED19",
"`  c #FFF31F",
"'  c #E5CA33",
"]  c #FDF02B",
"[  c #FFED36",
"{  c #F3E03A",
"}  c #F7E547",
"|  c #FFED41",
" . c #FFFC40",
".. c #F5E25C",
"X. c #FDEE5F",
"o. c #FFFB57",
"O. c #FFF56F",
"+. c #FFF979",
/* pixels */
"d k s d d g z g k j s s s s d j g s s d d j j j j h g k d s j d ",
"s k j ; s d j d j s d j j d j g j g j d s d d d k g z z s s d s ",
"s j g d s s s s s d k k j a a a d g j d s s j j s d g d $ d s d ",
"d s d d d s $ $ s j k z f c n m m b c : d j j j s s s $ d d d k ",
"j $ $ $ $ d d d j k v B L ( ^ W W Y I Z M c f j s # # $ s d j j ",
"j d $ $ s d g g f N R | O.X.) E E Y I Y I D 0 : s s ; d d k d d ",
"d j d j j h z x Z W [ ..' M e e e e 6 8 D H p e < d j j g h d d ",
"g z h j j d x Z W W Z e T { _ J Z E C 7 3 7 t i e < d d s d a a ",
"d g d d d ; q U W u M } +.o./ A u I I H p 6 1 7 y q = # # $ d d ",
"d d d d ; 9 V Y e Z [  .] W P U C i H H H F 6 O 7 t * ; j j g h ",
"h j d d - 8 C w e ! ~ Q Y Y U Y D t H H H H p 1 O 7 6 > z d j h ",
"j d d f 9 8 8 2 U ~ W Y Y P E I D y p F H F p 8 o 2 7 % $ $ d d ",
"j d # : 5 6 1 5 U U J P J P W I D y y y t w w 7 O o 5 4 : g d k ",
"d s s < 5 1 O Z J U P I I I H H p t y y t 8 6 6 6   1 2 - j d d ",
"d d d , 3 O + E U C G D D G F F y t t t 7 3 6 y t X o 2 & s d k ",
"j d a , 3 o O Z G G C C u t t t t t w 3 1 7 y p w o o 2 & d g k ",
"j d $ & 2 o o u i p D u i y w t t t 3 O 7 i i y 7     3 * k g j ",
"a d j > 2 X o 7 i i i u A F t t w t 6 1 t i t 8 7   X 1 & j d s ",
"d g j - 2 o X 3 t i i V P F t 7 3 6 6 O 7 8 8 8 3     1 - d s d ",
"j j j : 2 o   O 7 t y A Y i 7 1 O 1 1 1 1 8 8 6 1   o 2 : d s k ",
"g d j s & O X   3 6 8 U G 8 3 7 6 1 O 1 O 6 6 1 . . 1 % j d s j ",
"d d s s - 2 o   o 2 7 J 7 6 7 8 8 8 6 O o 1 3 o   o 1 - d s d j ",
"h j d s d * O X   o 4 5 3 3 3 6 6 6 3 3 1 1 X   X + & d $ $ d j ",
"j d # $ $ : @ O     o 2 3 3 3 3 3 3 3 3 2 X     O @ : d j d d j ",
"d $ # # $ s - @ O X     O 1 3 3 3 2 1 o     X O @ - d d j h d s ",
"d d j d $ $ g - @ O X X       X           X O @ - s s d d d d s ",
"d g g z d $ s j ; % + O X X X     X X o o + & ; a s k k d k j d ",
"z z z z s # $ d d d : % @ O O O O O + @ % < h d s s g z d k h d ",
"h j d s s d $ $ j j d h ; - - & & > < : k j g s s s d s # s d s ",
"d s $ # # $ $ # $ $ # ; s a a d g z j j d a j s s s $ $ $ $ s s ",
"d d s s s # $ $ $ $ $ s s s d k g j s d j j j d d $ $ s d ; j d ",
"j d j j z k k z g g s s s d g j d d s s f z f h d j d k z h h h "
};
