/* XPM */
static char *result[] = {
/* columns rows colors chars-per-pixel */
"64 64 189 2 ",
"   c #9F7F01",
".  c #A47600",
"X  c #A67900",
"o  c #AB7C00",
"O  c #A38601",
"+  c #AF8200",
"@  c #A18D02",
"#  c #AC8C01",
"$  c #B28300",
"%  c #B78900",
"&  c #BB8C00",
"*  c #AB9202",
"=  c #A79D04",
"-  c #A99D04",
";  c #BE9100",
":  c #B79B02",
">  c #BD9E01",
",  c #96AF02",
"<  c #9FAF03",
"1  c #97B404",
"2  c #9AB604",
"3  c #9DBE06",
"4  c #A5A304",
"5  c #A8A504",
"6  c #A5AC05",
"7  c #ADAB03",
"8  c #B5A302",
"9  c #BCA202",
"0  c #B5AB03",
"q  c #BAAB04",
"w  c #A3B505",
"e  c #ACB305",
"r  c #A2BE06",
"t  c #A8BD05",
"y  c #ABBE08",
"u  c #B4B205",
"i  c #BAB303",
"p  c #B3BC06",
"a  c #B9BD06",
"s  c #C39400",
"d  c #C59A00",
"f  c #CA9B00",
"g  c #C7A500",
"h  c #CCA200",
"j  c #C1AB02",
"k  c #CCAB00",
"l  c #D3A400",
"z  c #D4AC00",
"x  c #DCAC00",
"c  c #C4BF05",
"v  c #CABF02",
"b  c #D5B300",
"n  c #DBB200",
"m  c #D5BC02",
"M  c #DCBB00",
"N  c #E0AF00",
"B  c #E3B300",
"V  c #E6B800",
"C  c #EBBB00",
"Z  c #E4B60C",
"A  c #E6B80A",
"S  c #F0BF00",
"D  c #E5BB20",
"F  c #9FC206",
"G  c #9FC308",
"H  c #A3C406",
"J  c #AAC506",
"K  c #A7CA06",
"L  c #ABCB06",
"P  c #A4C508",
"I  c #AAC708",
"U  c #A7CA08",
"Y  c #ADCC0A",
"T  c #B3C506",
"R  c #B8C204",
"E  c #B2CD06",
"W  c #BEC807",
"Q  c #B1C308",
"!  c #B2CE0A",
"~  c #AFD20B",
"^  c #B3D20B",
"/  c #BAD50D",
"(  c #BEDA0D",
")  c #C6C304",
"_  c #C9C503",
"`  c #CBCA04",
"'  c #DCC100",
"]  c #DECB01",
"[  c #CAD40E",
"{  c #E3C500",
"}  c #EBC200",
"|  c #E4CB01",
" . c #EDCB00",
".. c #E4CF08",
"X. c #EFCC08",
"o. c #F3C300",
"O. c #F8C700",
"+. c #F4CB00",
"@. c #FECD00",
"#. c #F3C50B",
"$. c #E6D300",
"%. c #EAD201",
"&. c #E7D900",
"*. c #ECD900",
"=. c #EFDE0B",
"-. c #F3D400",
";. c #FED400",
":. c #F4DC00",
">. c #FEDC00",
",. c #F4D50D",
"<. c #FFD10C",
"1. c #F7D80F",
"2. c #FFDF0B",
"3. c #EACA18",
"4. c #F8CA11",
"5. c #EFD015",
"6. c #FFD110",
"7. c #F2D51E",
"8. c #FFD319",
"9. c #FFDB18",
"0. c #ECE20F",
"q. c #F5E301",
"w. c #FEE300",
"e. c #F4ED00",
"r. c #FFEC00",
"t. c #FDE40B",
"y. c #F6EE0C",
"u. c #FFEC0C",
"i. c #F3F200",
"p. c #FDF300",
"a. c #FFFC00",
"s. c #FFF50C",
"d. c #FFFA09",
"f. c #FEE214",
"g. c #FFE916",
"h. c #FEE51A",
"j. c #FFFF13",
"k. c #FBF71D",
"l. c #FFFF1C",
"z. c #F9CF24",
"x. c #FFD423",
"c. c #FDDE2A",
"v. c #E9C733",
"b. c #EBD13C",
"n. c #FFD832",
"m. c #FFE124",
"M. c #FFED22",
"N. c #FFFD24",
"B. c #FFF22F",
"V. c #FFFC28",
"C. c #FDE23C",
"Z. c #FFEC38",
"A. c #FFF03A",
"S. c #F8F83B",
"D. c #F4D943",
"F. c #F8D64A",
"G. c #FFDD4E",
"H. c #FFED43",
"J. c #F8F24D",
"K. c #FFFF4C",
"L. c #FFED5F",
"P. c #FFFF55",
"I. c #CED661",
"U. c #EFDD65",
"Y. c #FFE265",
"T. c #FEE961",
"R. c #FFE96F",
"E. c #FFF763",
"W. c #FFFC64",
"Q. c #FFF76C",
"!. c #F6EF74",
"~. c #F7E779",
"^. c #FFF775",
"/. c #FFFC72",
"(. c #FFFF7A",
"). c #FFE987",
"_. c #FFFD8B",
"`. c #FAF594",
"'. c #FFFF96",
"]. c #FFFF98",
"[. c #FFF4A4",
"{. c #FFFCA6",
"}. c #FFF0AC",
"|. c #FFF6B1",
" X c #FFFDB3",
".X c #FFFFBD",
"XX c #FFFDC3",
"oX c #FFFCD1",
"OX c #FFFFFC",
/* pixels */
"3 F P Y r 3 P H P U U H Y Y K P U U U Y F F F G G G G G P P P H Y L 3 G F G G P 3 G U U P U P U H P U Y 3 G G H I G G F P U H H ",
"P G I Y 3 3 F G G H U U U P U F I U H F G F G F P F F F H U H P I r 3 P F G G F P G P U H H I U H P U Y P ~ ! H G G F G G F G P ",
"F G U I I P I H F F U P H U U H U H G G F G P G G G P P P P P U ! J 3 K G P G G G G G P L G F P P U Y H U I Y Y 3 P G G P G P 3 ",
"G G P P P P 1 3 P G F G P P H G F G G G P H I F Y F F G G P P P G 3 U Y F U I G H G F G G G F G P P G I Y U Y I 3 H F 3 F G G F ",
"G G I U U K I 3 G G G G P G G P G G F H 3 P I H Y P G G G G G G G H Y G P P 1 3 G F P G G H I G G G G U U U U 3 3 G G P F G P G ",
"G G G P I P J H G G G G 3 3 3 G G P P P P U I U I H 3 P G G G G F H U P U H L Y U F F P G U P F G G G P K P 3 3 P 3 P G G F 3 P ",
"3 F G P G U r F P F G F 1 1 1 1 G H U U P U Y U 3 G P 3 G H G F G H U I P U I J H r F P F F U F F G G G G G G P G F P H r P P Y ",
"P Y 3 3 3 G r F P G G P P F H 3 F P P F P P ! W _ ] | -.-.-.} C n x x z z z j 0 6 r U Y U P I H G G F F 3 F 3 F P G U H I r I H ",
"P I 3 3 F P F H G G G F F F G G H G U U R ` ] -.>.w.>.>.>.>.>.;.@.@.O.C V B C V n m c Q P P H G F 1 1 1 1 2 1 1 F P U P H U U I ",
"F 3 P 3 1 2 1 2 1 1 3 U U U U G H H J ` | >.>.w.g.Z.M.r.r.r.r.>.;.@.@.@.O.O.S O.@.@.O.{ ) J I H G 3 1 1 2 1 1 F F G F G H P H F ",
"G I G 3 1 3 1 1 3 3 G G H L U U H R | >.>.u.B./.{.(.N.p.p.p.p.r.r.w.>.;.@.@.@.o.} O.@.@.O.' a G P P G 3 P F I H F H U F Y G F F ",
"U K G G F H H P G H P I P L Y J _ %.>.t.A._.XX|.T.f.>.:.-.-.-.:.;.;.>.>.;.@.@.O.C C O.>.;.;. ._ r G G I G F U H F U P Y L 3 F P ",
"P 3 G H F G F U P U U I U U P _ -.>.u.E. X[.T.7.{ n b k k k k b z l C O.;.;.@.O.S V } q.s.s.s.y.[ P P Y H r K P P U Y Y 3 F H I ",
"P H U U I F P K H 3 Y K U T v +.>.r.s.H.C.5.b k g k m M b b { b g $ $ s V @.@.@.S C C 3.!.].'.'.`.I.r P Y G U H I P U r 3 H P P ",
"G H Y Y K P P U I 3 H L H v  .>.r.p.w.-.M g k M %.f.r.r.M ' p.p.q.} l % o f S O.S C C C v.J.K.K.P.S.[ P K P U P G G I L 3 G F F ",
"F U U L Y P H Y H F 3 t c { -.r.p.w. .b k M -.M.W./.l.e.M M q.w.>.;.;.o.l $ % l B V C C C X.i.a.a.a.i.W r G 3 F 3 G G F H G G G ",
"G K L H Y 3 H Y L 3 P p b  .w.p.w.} k k  .h.Q..X XP.d.$. .V { >.;.@.@.;.@.C & o s x B C C V  .>.w.w.w.%.e 1 2 2 , 2 1 3 3 F F G ",
"F H L U L 3 H E r 3 w k B -.r.>. .k b ,.H.{..X(.V.s.:.{ -.C n >.;.@.@.@.@.@.O.s o s l N C V x S ;.@.@.@.m w 1 1 1 2 1 1 r H F F ",
"G 3 3 3 1 G F 3 3 P i x V :.w.-.k b 1.L._.W.N.d.r.h.X.$.;.o.z } ;.@.@.@.@.@.@.O.s o f l x C N N O.@.@.O.O.i 2 U H H H U U U K H ",
"U P 3 3 H P G 3 P w b N } >.-.b k -.s.N.j.a.p.w.2.c.| :.;.O.x B @.@.@.;.@.@.@.@.B % o l l N N l x V V C V b T Y L H I U U Y Y ! ",
"U P U P H K Y I 1 q x B } @.b k  .r.a.a.a.r.w.>.2.D...w.;.O.B x O.@.;.@.@.@.@.O.C l o & l N N l l N B B B x i 1 I Y P G P P ^ H ",
"U H U P P U H 3 < k B V O.V $ n w.a.a.a.r.>.>.>.f.U.0.w.@.O.C x C @.@.@.@.;.;.O.C C s o s l l l l x B N B B k w ~ U r 3 Y 3 H Y ",
"F U Y 3 J U U ^ 7 x x B o.s $  .p.a.a.w.w.>.>.>.m.`.k.>.@.O.C V x O.@.;.@.@.@.o.C C x o o f l l l l N B B N x u 3 3 1 1 U I 3 F ",
"G I Y 1 1 L U t j l z V x o l w.a.a.r.>.>.>.>.f.T.oXW.9.6.O.V C B o.@.@.@.@.O.C C C V s . s l l l f N B B B n q 1 1 F 3 U F H F ",
"P P P 3 1 1 r w g l l B s o } p.p.:.+.+.X.3.b.~.oXOXoX).G.z.A C C x B V C C V B B C V l o o f l f f x B B B B k y L U U F G G U ",
"U P G G F 1 1 a h f f l + & n | $.] | | %.*.=.M.^.oXR.8.<.O.V B o.C B N x l l l l f f s % o s f f s l B B B B n p J U H U P P U ",
"I 3 G G 3 3 3 0 l f f s o z | ] e.r.w.r.w.w.>.;.c.}.n.@.@.O.B B V S S S C V B N x d s l s . % f f f l N B B B x u Y H K H I P H ",
"G P G G r I I j l s d & + } p.&.$.q.@.@.@.@.@.@.8.).x.@.@.o.B B B B B B B B N l s s x C l o o s f f f N B n B B j 3 P P 3 P F 3 ",
"G G F G P I K g l s s o % -.a.w.C | :.o.} O.@.@.4.Y.8.@.@.C B B B B B N B x l s s x C S N o o % f f f x B B B B k F G 3 r H H P ",
"P P F G F 3 P h f s s o % %.p.>.@.C { -.C V C C #.F.4.O.o.B N B B B N N x s s s x C S C N $ X % s f f l z x x l g 3 3 P P H I Y ",
"I H P G F G F f l & & o %  .:.O.@.@.} { -.C B B Z v.Z B B N B B B N N l s & s N C C C C N % X $ s f d s s s s s ; F 3 I F U I P ",
"F P U G G G H l f s % o % {  .} o.O.@.S { %.C B B D Z N B B B B B x l % % s N C C C C V x % X $ & f s s ; s s ; ; G L H ~ Y H U ",
"P U H F H 2 1 l f & % X % M } C C C o.O.V M  .C B Z B B B B N B N f % $ d N S C S C B N x $ X o s f s s ; s ; & ; 3 3 H U P U P ",
"P G G F 3 1 1 f l & % o $ n } C C C C } C B M  .A B N B B B B B N d o s N S C C S B N N l o o o s s s s s s s s ; G I L Y P H 3 ",
"G G F F P G P g l & % o $ l V C C S C C C V n -.S B B B N B B B N f $ s C C C C N N N l l o o % & f s s s ; s ; : G H I F I H P ",
"F G G F U U P d f s % o o h x V C C C C C B | >.O.V B N B B N B N l % s N S C B N N N N f o o o s s s s s ; s s : G P 3 F H G G ",
"G F U U U I H 9 f & % $ o s x N C C S C C n *.;.@.C N B N l l N B l s % l V N N l N N N s o o o & f s s s s ; s : P U H F F G G ",
"F H Y H P G U 0 f s $ $ . s l x V C C C V M w.;.@.B N N f f f f l f s % s x x x N N l f s o o o s d % s s s ; ; 7 H P P G G P F ",
"H H G ~ H 3 Y u d s % o . $ l l x C C C n $.>.@.S N N l % % s f f f s % & l N x N N l f o o % s s f s s s s s ; e P H I G F F G ",
"3 U U F G G G r d d & $ o o f l l N C C n q.>.@.C N l % % % o s s f d & & f x x N l f s o o o o s s s s % s s & r G U G G F U ! ",
"U H 1 r G G G r 8 f ; $ + . % f l l x N ' r.;.} B l s f l l s o o s f s o f l N l f f s o o o s f s & s ; ; ; 8 U P P F F G Y P ",
"U H U ! Y H G F e d s $ $ o o s f f l h &.r.O.V f f f N N B l f s o % s s s f N f f s o o o % s s & & % & % & e H Y G G F H P I ",
"I P r 3 3 G G F w d d % $ o . % f f s k e.w.B f f l x N N N x x l s % o o s s f f f % . o s % f s $ + $ + + * w H I G F G P U L ",
"H H 3 G 3 P F G P 0 f s $ $ o o s d d M e.V s f l N l N N N x N N N f s o s s f f s . o o o s s & $ $ + $ # 5 G 3 3 3 3 3 G H P ",
"Y Y Y Y F F F P G w g s & $ $ . o s d m b s d f f l l l l l l l l l f f s s o s s o o % o s f s $ + + $ + # w G 1 1 1 1 3 F H P ",
"P H ! Y F G G F G P 6 f & $ $ o . o % s s f f f f f f f f f f f f f f f f s s % o . o o o s f s + $ + + + 5 F P H H F G F G U U ",
"Y H 3 3 F P G F G G w 9 f & $ $ o . o s f f f f f f f f f f f f f f f f f f s o . o % o s s s % $ $ $ + * 2 F F G I 3 G G G P Y ",
"E H 3 3 1 1 1 1 1 3 P e d s % $ % o X o & f f f f f f f f f f f f f f f s s o . o o % % s s o o + $ o # e 3 Y H P H L r G G F H ",
"3 P 3 1 , 1 1 1 1 P P F 7 d s $ $ $ o . . % s d f f f f f f f f d f f s % o X o $ $ $ s s & + + $ $ + 6 P I P H U H Y H I G G G ",
"G r G G 3 3 3 1 3 3 3 G t q f ; % $ $ $ o . o % s s d f f f f f s s % o . o o $ $ $ & d & + $ $ o $ - I P P G 3 H Y I H P 3 F F ",
"G G G P H G H 3 1 1 1 1 H P 8 d ; $ $ $ $ o o X . o o % % % % o o . . o o $ $ $ $ & s & $ $ $ + + = w P G P H P H 3 P 3 G G F P ",
"G G G G F H P P P G P G H F w q d s % + $ o $ o o o X X . . o o o o $ o $ $ $ $ & s & $ + + + + = 3 G G P 3 3 Y H 3 H F P F F G ",
"G P U U P P U ^ 3 G H 3 P 3 P J 0 d s & $ $ $ $ o % o o % o o % o % o % $ $ % s s % $ o + + # 4 r G G F P U 1 P P 3 U U Y 3 3 G ",
"3 P U U U Y J H H G 3 1 3 P P 3 P 6 > d s & % $ % o % o o % % o % o o % $ s s & $ o o o o # 6 P P F G F r ! Y P I F U Y L P P P ",
"P U I P U I Y / r 1 , , , 3 P G G G w 0 > d s s s % % % % o s o % % s s s s o . .     X - J H F H G G G I ! Y U U P U G Y U I P ",
"U U ^ Y P I Y P G G 3 3 3 G 3 r I U U P r 7 9 d s s s s s s s s s s s s o . . .   @ 4 y U U P F 3 G F P G U U U U H H I I H 3 G ",
"U U H ^ I P 3 G F F G G G 3 3 I I U P I H P P e 0 8 > d s d s ; % $ o . . O @ 4 e 3 U U L U P 3 F P G G G F H F 3 3 3 P G F G G ",
"U Y 1 G I H 3 H G H G P G 1 1 , H I P H I H r ! F G F G G G G F r I Y P U U 3 U I P G P U P G P P F F G G G P 1 , , 3 P G F G F ",
"/ H 1 P 3 1 G 1 3 3 2 r G , 1 1 3 r U 1 r 1 H t F P F G F P 3 3 H t U U U U H P U G 3 H P F G G F G 3 F G G F G 3 F G 3 P G G F ",
"H 1 F F H 3 1 1 1 , 1 1 3 3 1 3 1 3 3 1 1 1 1 3 G 3 F G P F I L H ! U H I H F F F G G P P G P G F F P 1 3 3 3 G P 1 , , 3 F P G ",
"P G H G G G G F 3 3 3 H P F 3 1 1 1 2 1 3 3 F 3 3 3 G G F U G I U U Y H F G G G G G F F G Y 3 3 F P 3 1 1 1 3 P 3 3 3 3 3 Y P 3 ",
"F P F F G G F H G G 3 1 3 3 G G F 3 3 G G G G P G 3 F H G Y P F H H K U G F P F G G P H r ^ r P 3 G G H 3 P P G L 3 U Y 3 ^ r P ",
"G P G G G F G F P Y I F F H P U G U Y H P F G F G F G G H I 3 G G F F H G G G G G G ^ ! ! H P Y r F F H 3 G F Y Y J ~ I P H Y H ",
"! P G H U F U Y Y ~ Y P I ^ ! U G ^ P U P G G G G F F P U P U Y L G F P F F F F F I Y ! Y Y U U r G L ( I 3 P I P U G P P P Y Y "
};
