/* XPM */
static char *result[] = {
/* columns rows colors chars-per-pixel */
"64 64 81 1 ",
"  c #9F7800",
". c #A07300",
"X c #A67900",
"o c #AA7C00",
"O c #9F9603",
"+ c #9B9C02",
"@ c #A68401",
"# c #AD8100",
"$ c #A58B02",
"% c #A88C02",
"& c #B08200",
"* c #B58800",
"= c #B98A00",
"- c #A49403",
"; c #AA9502",
": c #A29C04",
"> c #AB9C03",
", c #B39201",
"< c #BA9300",
"1 c #B49D01",
"2 c #BC9D01",
"3 c #9CA303",
"4 c #96AF02",
"5 c #9CAD04",
"6 c #97B404",
"7 c #9AB604",
"8 c #9DBE06",
"9 c #A3A404",
"0 c #AAA205",
"q c #A1AD05",
"w c #ADAD07",
"e c #A6AD08",
"r c #B6A306",
"t c #BDA506",
"y c #A3B205",
"u c #A2BF06",
"i c #A9BE06",
"p c #C19200",
"a c #C39A00",
"s c #CB9D00",
"d c #CCA200",
"f c #D2A300",
"g c #D6AA00",
"h c #D9AA00",
"j c #E2B200",
"k c #E4BB00",
"l c #E9B900",
"z c #9FC206",
"x c #9FC308",
"c c #A3C406",
"v c #AAC706",
"b c #A7CA06",
"n c #ABCB06",
"m c #A4C508",
"M c #AAC708",
"N c #A7CA08",
"B c #ADCC0A",
"V c #B2CD06",
"C c #B2CF0A",
"Z c #AFD20B",
"A c #B3D20B",
"S c #BAD50D",
"D c #BEDA0D",
"F c #F6C600",
"G c #FDCC00",
"H c #E8DB00",
"J c #F0D200",
"K c #FFD500",
"L c #F5D800",
"P c #ECE200",
"I c #FFE500",
"U c #F7EA09",
"Y c yellow",
"T c #FFF40A",
"R c #D7C826",
"E c #DFD22E",
"W c #C7B240",
"Q c #CDBA4E",
"! c #FEFE4F",
"~ c #FFFF50",
"^ c #FFFF93",
/* pixels */
"8zmBu8mcmNNcBBbmNNNBzzzxxxxxmmmcBv8xzxxmzxNNmMmNcmNB8xxcMxxzmNcc",
"mxMB88zxxcNNNmNzNNcxxzxxcxzzcNcmMc8mzxxzcxmNccMNcmNBmZAuxxzxxzxm",
"zxNMMmMuzzNmcNNcbcxxzxmxxxcmmmmNCv8bxxxxxxxcbxzmmNBcNMBB8mxxmxmx",
"xxmmmm68mxzxmmcxxxxxccMxBzxxxmmm88NBzBMxcxxxxxzxmmxMBNBM8cz8zxxz",
"xxMNNbvxxxxxmxxmxxxc8mMcBmxxxxxxxcBxmm68xxcxxcvxxxxNNNb88xxmzxm8",
"xxxmMmvcxxxx888xxmmmxNMNvczmxxxxzcNxNcnBbxxcxbmxxxxmbm88m8mxxz8m",
"8zxmxNu8mzx87677xcNNNNZnzcm8xzxzxcZNmNMvcxxmzzNxzxxxxxxmxzmc8cmB",
"mB888xuzmxm9aghghhhhhhhhhhgghhhhhhghhhhhhhhhhhhhhhha:x8zmxNcMmMc",
"NMz8zmzcxxu>hllllllllllllllllllllllllllllllllllllllh;566zmNmcNNM",
"z8m867676652FGGGGGGGGKGGGGKGGGGGGGGKGGKGGGGGGGKGKGGFa37zzxzxcmcz",
"xMx87766x7qfGGGGGGGGGGGGGGGGGGGGGGGGGGGGGGKGGGGGGGKGh9MczcMzBxzz",
"Nbxxxxcm8c>kKKKKKKKKKKKKKKKKKKKKKKKKKKKKKKKKKKKKKKKKl>MczNmBv8zm",
"m8xczxzNmirHTTTTTTTTTTTTTTTTTTTTTTTTTTTTTTTTTTTTTTTTUtymmNBBzzcM",
"mcNNMzmNmqW^^^^^^^^^^^^^^^^^^^^^^^^^^^^^^^^^^^^^^^^^^QemMmMc8cmm",
"xcBBNmmmM:R~~~~~~~~~~~~~~~~~~~~~~~~~~~~~~~~~~~~~~~~~!E0mxxMv8xzz",
"xNNvBmmBm>HYYYYYYYYYYYYYYYYYYYYYYYYYYYYYYYYYYYYYYYYYYP078xxzzxxx",
"xbncB8cBi1JIIIIIIIIIIIIIIIIIIIIIIIIIIIIIIIIIIIIIIIIIIL236667uzzx",
"xcvMn8zVqaFKGGGGGGGGGGGGGGGGGGGGGKGGGGGGGGGGGGGGGGGKGGd36766xmzz",
"xz886xz89dFGGGGGGGFGGFGGGFGFGGFGGGGFGGGGGGGGGGlGFGGGGFg0cccNbbbc",
"vxz8cmx89slllljllklllllkjlllllllljllljllljllljllllljklf>mcMNNBBA",
"NmMmzbBM;sjjjjjjjjjjjjjjjjjjjjjjjjjjjjjjjjjjjjjjjjjjjjf;iBmzmmAc",
"NzNcNNc7%hjjjjjjjjjjjjjjjjjjjjjjjjjjjjjjjjjjjjjjjjjjjjh,MNu8B8uB",
"zNB8MvNM<hjjjjjjjjjjjjjjjjjjjjjjjjjjjjjjjjjjjjjjjjjjjjh<5866NM8z",
"xMB67nMe=hjjjjjjjjjjjjjjjjjjjjjjjjjjjjjjjjjjjjjjjjjjjjj<+7x8Nzcz",
"mmx866c3<jjjjjjjjjjjjjjjjjjjjjjjjjjjjjjjjjjjjjjjjjjjjjjp9MNNxxxN",
"Nmxzz66wajjjjjjjjjjjjjjjjjjjjjjjjjjjjjjjjjjjjjjjjjjjjjjs9MNcbmmN",
"M8xx888:ajjjjjjjjjjjjjjjjjjjjjjjjjjjjjjjjjjjjjjjjjjjjjjs-BmvcMmc",
"xmxxzMM:sjjjjjjjjjjjjjjjjjjjjjjjjjjjjjjjjjjjjjjjjjjjjjjs-8mm8mz8",
"xxzxmMb>sjjjjjjjjjjjjjjjjjjjjjjjjjjjjjjjjjjjjjjjjjjjjjjf;zx8uccm",
"Nmzxz8m;phhhhhhhhhfhhhhhhhhhhhhhhhhhhhhhhhhhhhhhhhhhhhhs$z8mmcMB",
"Mcmxzxz-=spppppspppspppspppppsppppppspppsppppppspapppps=$88MzNMm",
"zmNxxxc$=pppppppppppppppppppppppppppppppppppppppppppppp=$xncZBcN",
"mNczc76$=pppppppppppppp=pppppppppppppppppppppp=pppppppppo77mNmNm",
"mxxz866$==pppppppppppppppppppppppppppppppppppppppppppppp@mMbBmc8",
"xxzzmxm$=ppppppppppppppppppppppppppppppppppppppppppppppo$xmMzMcm",
"zxxzNNc-=pppppppppppppppppppppppppppppppppp=pppppppppppp%umxzcxx",
"xzNNNMc:=ppp=ppp=pppppppppppppppppppppppppppppppppppppp=%mNczzxx",
"zcBcmxN>*pppppppppppppppppppppppppppppppppppppppppp=ppp=-cmmxxmz",
"ccxZc7C:*pppppppppppppppppppppppppppppppppppppppppppppp=;ccMxzzx",
"8NNzzm8:*ppppppppppppppppppppppppp=ppppppppppppppppppppo:zNxxzNA",
"Nc68xxx9*pppppppppppppppppppppppppppppppppppppppppppppp*9mmzzxBm",
"NcNABum5#=======poppop==pp=o=pop**===p====*=pp=========#9BxxzcmM",
"Mmc87mx7$o&&#&&&o=ooooooooo=ooo==ooo=o=oo=oo=oo=#&&&#&#@qBmzxmNv",
"cc7m8m8u%&&&&#&&ooo=popo=o=oo==oo*o*o=oo=o=ooo=o&&&&&&#$77888xcm",
"BBBBxzzu-o&&op=oop=oooopoo=oo==oo=o=o=o=oo=o=o=o&&&&&&#$66678zcm",
"mcCBzxxz:o&&ooooooooo=oo=oo==oo==oo==o=oo=ooo=o=&&&&&&o;ucxxzxNN",
"Bz88zmxz9oooopop=oopooopo==ooo=oo=oooo=o==o=o=oo&&&&&&o+cM7xxxmB",
"Vc8867669&opoooopooop=oo=oo=o=oo*oo=o=o=oo=o=oo=&&&&&&@9mcMmxxzc",
"8m8646675$&&&&&&=oo=oooo=oo=oop=ooo=pooo&&&&&&&&&&&&&&@yNcBcMxxx",
"mux88x777Oo&&&&&o*=oo==oo==o=oooopoooopo&&&&&&&&&&&&&o%ucBMcm8zz",
"xxxmcxc86O@&&&&&*o*o=oo==oo=o==opopoooop&&&&&&&&&&&&&@Omc8m8xxzm",
"xxxxzcmzm5@&&&&&o*o*o==oo=ooo=o==oooopoo*o&&&&&&&&&&#o3Bc8czmzzx",
"xmNMmmBA88$o&&o&o&&o&&&oo=oopooooo=oooopo*o*o&&&&&o&&@5mc8NNB88x",
"8mNNNBvcmx-XXXXoX.ooXXoXXoXXoXXXooooXXooooooXXoooooXo>BmMzNBMmmm",
"mBMmNMBSu6+ ......................X............ .....wBNNmNxBBMm",
"NNZBxMBmxx7@........................................@iMNNczMMc8x",
"NMcAMmzxzzx:  ......... ......  .. .. ......X  ...  Oucz888cxzxx",
"NB6xMc8xxcxxx674cMmcMbuCzxzxxxxziMBmvMzNMmxNNmxmmz8xxxm6448xzzxz",
"Sc6m8686877mx4678uN6c6uuzmzxzm88iumvNNcMNx8cmzxxzxmzxxzx8zx8mxxz",
"m6zzc86674668867688666688zzzmzMvcCMmMczzzxxmmxmxzz86x88xm6478zmx",
"mxcxxxxz888cm886667688z888xxzNxMNNBczxxxxxzzxB87zm86668m88888Bm8",
"zmzzxxzcxzx688xmz88mxxxmx8zcxBmzccbNxzmzxxmcuAmm8xxc8mmxn8NB8Aum",
"xmxxxzxzmBMxzmmNxNBzmzxzxzxxcMxxxzzcxxxxxxCCCcmBuzzc8xzBBvZMmcBu",
"AmxcNzNBBZMmMACNxAmBmxxxxzzmNxMBnxzmzzzzzMBCBBMNcxvDM8mMmNxmmmBB"
};
