/* XPM */
static char *result[] = {
/* columns rows colors chars-per-pixel */
"64 64 189 2 ",
"   c #A37600",
".  c #A67800",
"X  c #AA7C00",
"o  c #A18201",
"O  c #AF8100",
"+  c #A48E03",
"@  c #AD8B01",
"#  c #B28300",
"$  c #B78800",
"%  c #BB8C00",
"&  c #A49403",
"*  c #AB9202",
"=  c #A69C03",
"-  c #AA9D03",
";  c #BE9100",
":  c #B59D02",
">  c #BD9D01",
",  c #96AF02",
"<  c #97B404",
"1  c #9AB604",
"2  c #9DBE06",
"3  c #A7A405",
"4  c #A3AE03",
"5  c #ABAC04",
"6  c #B4A503",
"7  c #BBA403",
"8  c #B3AA03",
"9  c #BDAC02",
"0  c #A3B306",
"q  c #A9B305",
"w  c #A2BF06",
"e  c #ABBC06",
"r  c #B3B204",
"t  c #B4BC06",
"y  c #BBBA05",
"u  c #C29300",
"i  c #C59900",
"p  c #CA9B00",
"a  c #C5A401",
"s  c #CDA300",
"d  c #C2AC02",
"f  c #CCAB01",
"g  c #D3A400",
"h  c #D4AC00",
"j  c #DCAC00",
"k  c #DCAD09",
"l  c #C3B303",
"z  c #CCBD04",
"x  c #D4B400",
"c  c #DBB200",
"v  c #D7B900",
"b  c #DCBB00",
"n  c #D4B40B",
"m  c #D8BA12",
"M  c #E3B300",
"N  c #E8B700",
"B  c #E4BA00",
"V  c #EBBC00",
"C  c #E4B50B",
"Z  c #E6B80C",
"A  c #E5B916",
"S  c #E7BC1A",
"D  c #E7BD23",
"F  c #9FC206",
"G  c #9FC308",
"H  c #A3C406",
"J  c #AAC506",
"K  c #A7CA06",
"L  c #ABCB06",
"P  c #A4C508",
"I  c #AAC708",
"U  c #A7CA08",
"Y  c #ADCC0A",
"T  c #B7C506",
"R  c #BAC105",
"E  c #B2CD06",
"W  c #B0C50E",
"Q  c #B2CF0A",
"!  c #B9C908",
"~  c #AFD20B",
"^  c #B3D20B",
"/  c #BAD50D",
"(  c #BEDA0D",
")  c #ADC322",
"_  c #C0C605",
"`  c #C9C804",
"'  c #DBC301",
"]  c #D6CB03",
"[  c #DACA02",
"{  c #CED502",
"}  c #DEDE0E",
"|  c #DCDF1A",
" . c #E4C301",
".. c #EDC400",
"X. c #E3CB01",
"o. c #EACB01",
"O. c #F4C300",
"+. c #F8C700",
"@. c #F2CB00",
"#. c #FECD00",
"$. c #F0C10C",
"%. c #FECF0D",
"&. c #E6D600",
"*. c #EBD200",
"=. c #EBDA00",
"-. c #E9D90D",
";. c #F4D401",
":. c #FED400",
">. c #F5DA00",
",. c #FDDC00",
"<. c #FCDB0B",
"1. c #E1C715",
"2. c #EFC41A",
"3. c #F5CD18",
"4. c #E7D212",
"5. c #F7DF11",
"6. c #FFDF15",
"7. c #EDE100",
"8. c #F4E400",
"9. c #FEE300",
"0. c #F5EC00",
"q. c #FFEB00",
"w. c #FFE70E",
"e. c #FEF300",
"r. c #FFFD00",
"t. c #F5F008",
"y. c #FEF40B",
"u. c #FFFB0C",
"i. c #FCE614",
"p. c #FFEC1D",
"a. c #FFF81B",
"s. c #E3CD21",
"d. c #F7DA25",
"f. c #ECC739",
"g. c #FFD730",
"h. c #F7DC33",
"j. c #F4D339",
"k. c #FDE323",
"l. c #F8E42C",
"z. c #FEEE2B",
"x. c #FFF224",
"c. c #FFF02C",
"v. c #F4E634",
"b. c #FFE332",
"n. c #FFEC32",
"m. c #FFE53F",
"M. c #FFFA33",
"N. c #FFFF3E",
"B. c #EAC747",
"V. c #EDDB46",
"C. c #ECCC55",
"Z. c #FFDF52",
"A. c #FFE74C",
"S. c #FDFC45",
"D. c #FFF34C",
"F. c #FFFF4C",
"G. c #FFF150",
"H. c #FDF759",
"J. c #FFFB5D",
"K. c #EED168",
"L. c #FCDF6B",
"P. c #F8E96D",
"I. c #FFFC64",
"U. c #E0E17E",
"Y. c #FBE27E",
"T. c #FFED7D",
"R. c #FFF37D",
"E. c #FFFD7C",
"W. c #F1DA85",
"Q. c #FFFC81",
"!. c #FCE791",
"~. c #FBE897",
"^. c #FFFD95",
"/. c #FFF29E",
"(. c #FFFC9A",
"). c #F5E4A5",
"_. c #FFF8A6",
"`. c #FCF5B5",
"'. c #FFFDB4",
"]. c #FFF4BC",
"[. c #FFFFBC",
"{. c #F9EEC4",
"}. c #FFF3C1",
"|. c #FFFCC1",
" X c #F9F0CD",
".X c #FFFADB",
"XX c #FFF9E4",
"oX c #FFFEF5",
"OX c #FFFFFF",
/* pixels */
"2 F P Y w 2 P H P U U H Y Y K P U U U Y F F F G G G G G P P P H Y I 2 G F G G P 2 G U U P I P U H P U Y 2 G G H I G G F P U H H ",
"P G I Y 2 2 F G G H U U U P U F I U H F G F G F P F F F H U H P I w 2 P F G G F P G H U H H I U H P U Y P ~ Q w G G F G G F G P ",
"F G U I I P I w F F U P H U U H U H G G F G P G G G P P P P H U Q I 2 K G G G G G G G P K G F P P U Y H U I Y Y 2 P G G P G P 2 ",
"G G P P P H 1 2 P G F G P P H G F G G G P H I F Y F F G G P P H 2 2 U Y F Y I G H G F G G G F G P P G I Y U Y I 2 H F G F G G F ",
"G G I U U K I F G G G G P G G P G G F H 2 P I H Y P H G G G G G G H Y G P P 1 2 G F P G G H I G G G G U U U U 2 2 G G P F G P 2 ",
"G G G P I P I H G G G G 2 2 2 G G P P P G U I I I H 2 P G G G G F H U G U H I Y K H F P G U P F G G G P K P 2 2 P 2 P G G F 2 P ",
"2 F G P G U w 2 P F G F 1 < 1 1 G H U U U U Y L F w P 2 G H G F G H Y I H I I I H 2 G P F F U F F G G G G G G P G G P H w H P Y ",
"P Y 2 2 2 G w F P G G P G F F 2 F P P F G I ! ` ] X.*.;.;.o.N M j j h j j h f 9 5 e I I U P I H G G F F 2 G 2 F P G U H I H I H ",
"I P F 2 F F F F G G G F F F G G H G P L _ [ *.>.,.,.,.,.,.,.:.#.+.+.N N M N V N B b x R e P P G F < < < < 1 < < F P U P H U U I ",
"F 2 P 2 1 1 1 1 < < 2 U U U U G 2 J R [ >.,.,.w.n.c.q.e.q.q.,.:.:.#.#.+.O.O.+.#.#.#.+.@.' R I G G 2 1 < 1 1 1 F F G F G H P H F ",
"G I G 2 1 1 1 1 2 2 G G H L U U J ` ;.,.9.x.H.(.^.M.e.e.e.e.e.q.,.,.:.#.#.+.V O.#.#.:.#.#...z e P P G 2 2 F I F F H I F Y G F F ",
"U K G G F G H P 2 H P I H I Y T [ >.,.p.I.'.}.R.k.9.>.;.;.;.>.:.,.,.,.:.#.#.O.N O.:.:.:.,.:.;.] J G G I G F Y w F U P Y I 2 F P ",
"P F G H F G F U P K K I U U e [ >.9.c.^.'.!.h.o.b n f f a f x g j V #.:.:.#.O.V B *.0.y.y.y.y.y.} W 2 Y H w K P P U Y Y F F H I ",
"P H U U U F P U H 2 Y K U ! ' ;.9.e.x.A.d. .f f f m b x x ' v a # # p N #.#.+.V N V V.^.(.^.^.^.^.U.) P Y G U H I H I H 2 H P P ",
"G H Y Y K P P U I 2 H I J v @.9.e.q.,.o.f a x o.5.z.y.v x e.e.9.V p $ $ g +.+.V V V S A.F.F.F.F.F.S.| J K H U P G G I I 2 G F F ",
"F U U L Y P H Y H F 2 e z o.>.e.q.,.B a x *.i.D.Q.I.t.' c =.q.9.:.#.V p # % j B N V V  .0.r.r.r.r.r.e.{ H G 2 F 2 G G F F G G G ",
"G K I H Y 2 H Y I 2 H r B ;.q.q.>.b d B 5.D._.[.E.J.-. .B B ,.:.#.#.#.#.j # # p j N V N B ,.9.9.9.9.9.>.y < < 1 , 1 < 1 2 F F F ",
"F H I I L F H L w 2 e f B >.q.>.B a  .k.R.|.^.N.a.P.1.*.O.h :.:.#.:.#.#.#.N $ # p j B N c N #.#.:.#.#.#. .q < < < 1 1 1 F P F F ",
"G F 2 2 1 G F 2 2 P l j  .9.9. .a  .b.E.E.N.u.e.k.~.s.:.O.g ..:.#.#.#.#.#.#.N O $ g j N M j O.#.+.#.#.+.+.l 1 I H H P K U K K H ",
"I G 2 G H H F 2 P q h M O.,.o.f b 9.a.a.r.e.q.,.b.`.v.:.+.j c #.#.:.#.:.#.#.+.g X u g j M g g N N N N N N c T Y I P I K U Y Y ^ ",
"U P I H F K Y I 0 7 M M @.@.f x >.e.r.r.e.9.9.,.A..XG.:.+.N g +.#.:.#.#.#.#.O.N u X p g j g g M M M M M j M 9 1 I I P G P P ^ H ",
"U F U H U U H 2 , h M B +.g $ o.e.r.r.e.9.,.,.,.T.oXT.:.+.V j V #.#.#.#.#.#.O.V j X $ g j g g g M M M M M M h q ~ U w 2 Y 2 w Y ",
"F U Y 2 I K U ^ 8 h j N V $ i ,.r.r.e.9.,.,.,.k.].OX].g.+.V C k #.#.#.:.:.#.V V N u . u g g g g j M M M M j j r G 2 < 1 U I 2 F ",
"G I Y < 1 I U e d g h N g X B e.r.e.9.,.,.6.m._.oXOXoX].L.f.2.k +.#.#.#.#.+.V V V j X X p g g p j M M M M M M 9 < 1 G 2 U F H F ",
"P P G F < < w 4 a g g M $ % >.e.e.;.3.j.P._..XOXOXOXOXOXoX X~.K.D A N N V N N N V M % . u g g p g M M M M M B h e I U U F G G U ",
"U P G G F 1 1 y s p s s X i v X.X. .[ 4.l.J./..XOXOXOX.X~.C.D 3.$.C j j g g g p p u u . $ p p p p M M M M M c c t I U H U P P U ",
"I 2 G G 2 2 w 8 g p p u X b ' &.t.q.q.9.,.,.<.Z..XOXXXZ.+.N M N O.V V V N M j g u p g X X u p p p M j M M M M j 9 Y H K H I P H ",
"G P G G F I I 7 g u p X $ >.e.X.=.,.#.#.#.#.#.:.!.OX}.d.V M M M c M N M M j g u p M M $ . $ p p p j M M M M M M d 2 H P G P F 1 ",
"G G F G P I I a s u u X u ,.r.@.B &.;.V +.#.#.#.Z.OX~.%.V M M M M M M M j p u p N V N u . # u p p j M M M M M M f F G 2 w H H P ",
"U P F G F 2 P s p u u X u 8.q.:.+.B &.@.N N V V j.XXY.V N M M M M M M g u % p N V V V p . # u p u g g g g j j g s F 2 P P H I Y ",
"I H P G F G F s s % % . u =.;.#.#.+.B o...N M M D {.K.M M M M M M j g % % p N N V V N p . X % p u u u p u u i u ; 2 2 I F U I P ",
"F P U G G G H s p u $ . ; *.o.V +.+.@.B o.o.M M A ).C.j M M M M j p $ $ p N V V V N M p X X $ p p % u u ; u u ; % G L H ~ Y H U ",
"P U H F F 1 1 g s $ $ . ;  .O.V V V O.O.c o. .B A W.B.M M M M M u # % p M V V V N N j u X X $ p u u u u u % u u $ 1 2 H U P U P ",
"P G G F 2 1 < p g % # . % b V V V V V ..N h ..V C K.D M M M M j u # u N V V V V M M j u X X $ p p u u u u u u u % w I U Y P H 2 ",
"G G F F P G P a s u $ . $ j N V V V V V V j o.+.C B.D M M j M j p X s N V N V N j j g u   X u p u $ u u % u u % ; G H I F I H P ",
"F G G F U U P i p % $ . $ g M V V V V V N x >.#.A D A M M M M M s $ u N V N M j j j g u X X X p u u u $ u u u u : w P G F H G G ",
"G F U U U I H 7 p % $ X X s j N V V V V c ' ,.#.V D Z M g g j M g $ $ j N M j j j j p X X X X p u u u u % u u u : H U H F F G G ",
"F H Y H P G U 8 p u $ X X u g j V V V V j =.,.#.V Z k g u p p g p u $ u j j M j j j p X X X u p u u u u u u u u 6 H P P G G P F ",
"H H G ~ H 2 Y r u u X X X u g g M N O.N v 9.:.V M M g u u u p p p u $ u g j j j j p u X X u u p u u u % u u u % 5 P H I G F F G ",
"2 U U F F G F 0 i p % $ X X g g j N V M X.9.#.N M g u X X X u u p p % % g M j j g g X X X X u u u u u u % u u % e G U G G F U Q ",
"U H < w G G G w 6 p $ # X . u s g g M c 7.9.O.N j u u g j u X % u u u u u j j g p u   X X u u u ; u u u u u ; 6 P P P F F G Y P ",
"U H U Q Y w G F 5 i u $ # . X p p p p x 0.,.V g u p j j j g p % X u u X u g g p p u   X X u p u $ $ $ $ $ $ $ 5 H I G G F H P I ",
"I P w 2 2 G G F 0 a u $ # X . u p p i [ e.V g p g j M j j M j j p X X u $ u p p p X X X X p p X # O # O # O @ 0 H I G F G P U L ",
"H H 2 G 2 P F G J 8 p ; # X . X u p s =.*.p p g j j j j j j j j j p u X u u p p X X X X $ p u u O # O # O O = w 2 2 2 2 2 G H P ",
"Y Y Y Y F F F P G 0 i u $ # X . $ u a v p u p p g g g g g g g g g p p u u X p u X X X u u p X X # # O # # @ 0 G 1 < < 1 G F H P ",
"P H Q Y F F G F G H 6 i u # # X . $ $ i p p p p p p p p p p p p p p p u u $ X X X X X $ u u u X O O O O O = 2 P F H F G F G U U ",
"Y F 2 2 F G G F G G 0 i u # # # .   $ u p p p p p p p p p p p p p p p p p u     X X u u u X X X # O # O @ 0 F F G I 2 F G G P Y ",
"E H 2 2 1 1 < 1 < 2 P 5 p u # # # . . $ p p p p p p p p p p p p p p p p u     X u X u u u X u X O # O O 3 2 Y H P H I w G G F H ",
"2 P 2 < , < < 1 1 G P 2 6 p $ # # # X   X u p p p p p p p p p p p p u # . . O # # $ u % $ O O O O O O - w I G H U H Y H I P G G ",
"G w G 2 2 2 2 1 2 2 2 G e 7 u % # # # X     # % u p p p p p u p % $ . . . O # # $ u u $ O # O O # # * e P P G G H Y I H P 2 F F ",
"G G G P H G H 2 1 1 < 1 H e a u % # # # # X     . X # $ % $ X X . . . X $ # O $ ; u $ O O O O O # + 0 P F P F P H 2 P 2 G G F P ",
"G G G G F H H F F G G G H H 4 7 i % # # # # # X X .   .     X . X X # # # # $ u u $ # O # O $ O * 0 2 G P 2 2 Y H 2 H F P F F G ",
"G P U I P P Y ^ 2 G P 2 P 2 I e 7 i ; $ # # # # # # X # X # X $ # # # # # ; u ; $ O O # O O O * 0 G G F P U 1 P P 2 U U Y 2 2 F ",
"G P U U U Y I H F H 2 < 2 G G G 2 6 i u u $ # # # # # # X $ $ X # # # % ; ; $ X . . . . . O = P P F G F w ^ Y P I F U Y I P P P ",
"P Y I P U I Y / w 1 , , , 2 P G G H 5 7 u u u % $ # # # $ $ $ $ $ u u u O               + 5 H F H G G G I Q Y U U P U G Y I I P ",
"U U ~ Y G I Y H G G 2 2 2 G 2 w I U U w q 8 7 i p u u u u u u u u u % X           . & q H I P F 2 G F P G U I U U H F I I H 2 G ",
"U I H ^ I P G G F F G G G 2 2 I I U P I H H e 8 6 > u > i i ; $ # X         o & 3 0 P U I U P F F P G G G F H 2 2 2 2 H G F G G ",
"U Y 1 G I H 2 F G H G H G < 1 , H I P H I H w Q H G F G G G G F 2 U Y P K U G U I P F U U P G P P F F G G G P 1 , < 2 G F F G F ",
"/ H 1 G 2 1 2 1 2 2 1 2 G , < 1 2 w U < w < w H F P F G F P F 2 P w U U U U F I U G 2 H P F G G F G F F G G F G 2 F G 2 P G G F ",
"H 1 F F F 2 < < < , < 1 2 2 < 1 < 2 2 < < 1 < 1 2 F F F P F I I P Q I H U H F F F G G P P G P G F F G 1 2 2 2 G P < , < 2 F P G ",
"G G H G G G G F 2 2 2 F P G 2 < 1 < 1 1 2 2 F 2 2 2 G G F U G I U U Y H F G G G G G F G G I 2 2 F P 2 1 1 1 2 P 2 2 2 2 2 Y P 2 ",
"F P F F G G F H G F 2 1 2 2 G G F 2 2 G G G G P G 2 F H G Y P F H H K U G F P F G G H H H ^ w P 2 G G F 2 P G G L 2 P Y 2 ^ w P ",
"G P G G G F G G P Y I G G H P U G U Y F P F G F G F G G H I F G G F F H G G G G G G Q Q Q H H Y H F F H 2 G F Y Y L ~ I P H Y H ",
"Q P G H U F U Y Y ~ Y H I ^ Q U G ^ P Y P G G G G F F P U G I Y I G F P F F F F G I Y Q Y Y I U w G I ( I 2 P I P I G P P P Y Y "
};
