/* XPM */
static char *result[] = {
/* columns rows colors chars-per-pixel */
"64 64 145 2 ",
"   c #A17400",
".  c #A67900",
"X  c #AB7C00",
"o  c #A28702",
"O  c #AF8100",
"+  c #A78F02",
"@  c #AC8B01",
"#  c #B18300",
"$  c #B78900",
"%  c #BB8C00",
"&  c #A69503",
"*  c #A99503",
"=  c #A49A03",
"-  c #AA9C03",
";  c #B49301",
":  c #BE9100",
">  c #B49B02",
",  c #BB9B01",
"<  c #96AF02",
"1  c #9CAE04",
"2  c #97B404",
"3  c #9AB604",
"4  c #9DBE06",
"5  c #A5A504",
"6  c #ADA403",
"7  c #A3AC04",
"8  c #ABAA04",
"9  c #B4A303",
"0  c #BBA202",
"q  c #B1AE04",
"w  c #BDA902",
"e  c #A3B406",
"r  c #ABB305",
"t  c #A2BE06",
"y  c #A9BE07",
"u  c #B3B105",
"i  c #B2BC05",
"p  c #B8BE04",
"a  c #C29300",
"s  c #C59A00",
"d  c #CA9B00",
"f  c #C5A300",
"g  c #CBA400",
"h  c #CDAC00",
"j  c #D3A400",
"k  c #D4AB00",
"l  c #DBAB00",
"z  c #C3B204",
"x  c #CDB200",
"c  c #C3BC03",
"v  c #CDBA03",
"b  c #D4B401",
"n  c #DCB500",
"m  c #D1B800",
"M  c #DBBB00",
"N  c #E2B200",
"B  c #E8B700",
"V  c #E4BA00",
"C  c #EBBB00",
"Z  c #F0BF00",
"A  c #E0BB11",
"S  c #9FC206",
"D  c #9FC308",
"F  c #A3C406",
"G  c #AAC606",
"H  c #A7CA06",
"J  c #ABCB06",
"K  c #A4C508",
"L  c #AAC708",
"P  c #A7CA08",
"I  c #ADCC0A",
"U  c #B3C306",
"Y  c #BCC204",
"T  c #B2CD06",
"R  c #B2CF0A",
"E  c #AFD20B",
"W  c #B3D20B",
"Q  c #BAD50D",
"!  c #BEDA0D",
"~  c #BEC63D",
"^  c #CFC303",
"/  c #CECF02",
"(  c #C8CC0C",
")  c #D4C402",
"_  c #DCC300",
"`  c #DECA02",
"'  c #E5C500",
"]  c #EAC300",
"[  c #E3CB00",
"{  c #EBCC00",
"}  c #F4C400",
"|  c #F8C700",
" . c #F3CC00",
".. c #FDCD00",
"X. c #EBD500",
"o. c #ECDA00",
"O. c #EADE08",
"+. c #F4D400",
"@. c #FED400",
"#. c #F3DA01",
"$. c #FEDC00",
"%. c #EBCD11",
"&. c #EFD218",
"*. c #F7DE15",
"=. c #F3E100",
"-. c #FEE400",
";. c #F6EA00",
":. c #FDEB00",
">. c #FFE60C",
",. c #FBED0D",
"<. c #FEF300",
"1. c #FFFD00",
"2. c #FFF50B",
"3. c #FFE916",
"4. c #FFEB19",
"5. c #F6F217",
"6. c #FFF413",
"7. c #FFFC1E",
"8. c #E1C32F",
"9. c #F3D522",
"0. c #F5DB22",
"q. c #E4E326",
"w. c #FDE523",
"e. c #FFFD26",
"r. c #FFEC31",
"t. c #FFF339",
"y. c #FEF144",
"u. c #F9F54D",
"i. c #FFFF4C",
"p. c #FBE55C",
"a. c #FFFE54",
"s. c #F0E66B",
"d. c #FFFF64",
"f. c #FFF56D",
"g. c #FFFD6B",
"h. c #FFFB75",
"j. c #F1EF8D",
"k. c #FFFA84",
"l. c #FFF28C",
"z. c #FFFA8D",
"x. c #FFFF95",
"c. c #FFF6AB",
"v. c #FFFFB4",
"b. c #FFFFB8",
"n. c #FFFCC0",
/* pixels */
"4 S K I t 4 K F K P P F I I H K P P P I S S S D D D D D K K K F I H 4 D S D D K 4 D P P K L K P F K P I 4 D D F G D D S K P F F ",
"K D L I 4 4 S D D F P P P K P S L P F S D S D S K S S S F P F K L t 4 K S D D S K D K P F F L P F K P I K E W t D D S D D S D K ",
"S D P L L K L t S S P K F P P F P F D D S D K D D D K K K K K P R G 4 H D D D D D D D K H D S K K P I F P L I I 4 K D D K D K 4 ",
"D D K K K K 3 4 K D S D K K F D S D D D K F L S I S S D D K K K 4 D P I S I L D F D S D D D S D K K D L I P I L 4 F S D S D D S ",
"D D L P P H L 4 D D D D K S D K D D S F 4 K L F I K K D D D D D D F I D K K 3 4 D S K D D F L D D D D P P P P 4 4 D D K S D K 4 ",
"D D D K L K G F D D D D 4 4 4 D D K K K D L L L L F 4 K D D D D D F P D P F H I P D S K D P K S D D D K H K 4 4 K 4 K D D S 4 K ",
"4 S D K D P t S K S D S 3 3 2 3 D F P P P P I H 4 F K 4 D S D S D F I L K P G G K 4 S K S S P S S D D D D D D K D S K F t F K I ",
"K I 4 4 4 D t S K D D K D S D 4 S K G Y ) X.+.+.] N l k j l l l l l l l k l l l l k h z i F L F D D S S 4 D 4 S K D P F L K L F ",
"P H 4 4 S D S S D D D S S S D D t Y ` +.$.$.$.-.$...| } N N C C C C C C C C C C C C C B N v i D S 2 2 2 2 3 2 2 S K P K F P P L ",
"S 4 K 4 3 3 3 3 2 2 4 P P P P y ^ +.-.>.r.4.:.:.-.$.......C C | ..........................| ] c t 4 3 2 4 3 3 S S D S D F K F S ",
"D L D 4 3 3 3 3 4 4 D D F H U ` @.>.t.z.k.7.<.<.<.:.-.@.....Z B | ..@...@...@.............@...| v y D 4 4 S L D S F L D I D S S ",
"P H D D S D F K 4 F K L K U ` $.3.h.n.l.w.$.#.+.+.@.@.$.$...| B C ..$.@.@.@.@.@.$.@.@.@.@.@.@.@.@.v t L S S L t S P K L J 4 S K ",
"K 4 D F S D S P K P P L G ) @.3.k.c.p.%.M h g f h k l } ..@...C N X.2.2.2.2.2.2.2.2.2.2.2.2.2.2.2.,.( L K F H K K L I I S S F L ",
"K F P P L S K P F 4 I G c  .-.6.y.9.b g h M g f M h # $ N ....Z C A s.x.x.x.x.x.x.x.x.x.x.x.x.x.x.x.j.~ L D P F L K L t 4 F K K ",
"D F I I H K K H L 4 F p ' -.<.-.{ h h ' =.,.x , ;.-.' a # j | Z C B 8.u.a.i.i.i.i.i.i.i.i.i.i.i.i.i.i.q.U K P K D D L H 4 D S S ",
"D P L H I K F I F S e x X.:.:.{ h b #.y.g.5.f $ X.-.@.| j X s N C C N o.1.1.1.1.1.1.1.1.1.1.1.1.1.1.1.1./ t 4 S S D D S S D D D ",
"D H J F I 4 F I H 4 q V =.:.+.h M *.h.b.d.O.s s n @...@...j # a l C C n #.-.-.-.-.-.-.-.-.-.-.-.-.-.-.-.X.8 3 3 1 3 2 3 4 S S D ",
"S F H L J 4 F T t e g ] -.-.b k 0.z.v.a.2.M j l g @.........j X d l B l B ....@.....................@.....m 3 2 2 3 3 3 S F S S ",
"D S 4 4 3 D S 4 4 8 l { -.' h &.f.h.e.<.$.g V V s | ........| a # j l N j } | | ..| ..| | ..| | | ..| ....C 8 L F F K P P P H F ",
"L D D 4 F K S 4 t w N  .+.h ' ,.e.1.<.-.X.d { } a V ..@.@.....l X s l N j l B C B C B B B B B B B B B B B B z L P F L P P I I R ",
"P K L K S H L L 7 g N | V h #.1.1.<.-.$.V h @.} d j ..........C a # j l j j l N N N N N N N N N N N N N N l h 7 L I K S K K W F ",
"P S P K P P F 4 6 l V ] : n <.1.<.-.$.$.k _ $.} l s | ......| Z l X a j j d l B N N N N l N N N N N N N N N l 8 E P t 4 I 4 t I ",
"S P I 4 H L P R 9 l B l $ { 1.1.-.$.$.+.f X.@.| N d C ..@...} C B # # j j d j N N N N N N N N N N N N N N N N w 4 4 2 3 P L 4 S ",
"D L I 3 3 J L e f j N a s ;.1.:.$.-.$.' h =.@.| C d l @.....} C B d X d j d j N l N N N N N N N N N N N N N N f 1 2 D 4 P S F S ",
"K K D 4 2 2 t 5 d j l # b <.;. . .{ ' k _ -.@.| B l d N B B B B B j X a j d d N N N N N N N N N N N N N N N N k r L P P S D D P ",
"P K D D S 2 3 q d g d X s _ ` ' [ X.o.=.;.-...| B C C N l j j d d a X # d d d l N N N N l N N N N l N N N N N l u G P F P K K P ",
"L 4 D D 4 4 4 9 d d % $ g m ;.:.-.-.$.$.@.....} N B C } B B N l a % $ X a d a l N N N N N N N N N N N N N N N l w L F H F L K F ",
"D K D D S L L 0 d s # s #.m _ @...............} N N N N N N l a % l d . a d a l N N N N N N N N N N N N N N N N w 4 K K 4 K S 4 ",
"D D S D K L G , d a # f <.+.g ' } | ..........C N N N N N j a $ l C d . # d a j N N N N N N N N N N N N N N l N f S D 4 t F F K ",
"P K S D S 4 K , d a X g ;.@.N h ' B V } | | } B N N N N l a $ d B Z j X # d d d l l l j l j l l l j l j l l l j s 4 S K K F L L ",
"L F K D S D S s d % X f o.....l k C N N N B N N N N N l a # d B C C l X X a a a a a a a a a a a a a a a s a s a ; 4 4 L S P L K ",
"S K P D D D F s d # X d { } | } g n C n N N N N N N l a # % N C C C j X X a a % a a a a a a a a a a a a a a % s $ K J F E I K P ",
"K P F S S 3 3 s d $ . s { C C } B s N B N N N N N N d X X j Z Z C N d X X a d a % a a a a a a a a a a a % a a a X e 4 F P K P K ",
"K D D S 4 3 2 s d # X s V C C C C l s B N N N N N N a X j Z B B B l d . X a a $ a a a a a % a a a % a a a a a a $ K L H L K F 4 ",
"D D S S K D K : d # X % N C C Z C N d C N N N N N l a X j Z B B l l a . X a a a a a % a a a a a a a a a a a % a $ D K L S L F K ",
"S D D S P P F , d % X $ l C C C C j j Z B N N N N N d X d Z B N N l a X X a a $ a a a a a a a % a a a % a a a a ; K K S S F D D ",
"D S P P K L F > s % X # j N B C C d n @.Z N N j j N j X a N l l l j a X X a a a % a a a a a a a a a a a a a a a > K H F S S D D ",
"S F I F K D P 9 a $ # X j l B Z B s { ..B N j d d d d % X j l N l j X X a a a $ a a a a a a a a a % a a a % a a - F K K D D K D ",
"F F D E K 4 L 8 a % # X d j N C l d +.| B l a % a d d a X d l N l d X X X a a $ a a a a a a a a a a a a a a a a 8 F F L D S S D ",
"4 P P S D K K 7 s a X X % l l B j x $.C N d X X X a d a X a l l j a . X a a a a a a a a $ a a a a a a % a a a $ e S P D D S P W ",
"P F 2 t D D D e > a # X # d j l s _ @.C j $ s d X % a a X a l j d a . X % a a a a a a a a a a a a a a a a a a > y K K S S D L K ",
"P F P R I t D t > a # # X a d d ; o.| k % d l l j X X a a X d j d X X X a a X % X a a X a a X a $ $ $ $ $ $ $ - t I D D S F K L ",
"K K K 4 4 D D S 8 s % # . # d a f =.l : j l l N l j % X X % a d a . X a a a X X X X X X $ X X $ X # # O # # O 5 F L D F D K P L ",
"F F 4 D 4 K S D r , a # X X s % h M : d l l l l l l j a X X X d X . X a a $ $ $ a X a X X X $ X # # O # # O @ e 4 4 4 4 4 D F K ",
"I I I I S S S K t > s # X . $ # ; a d d d j j j j j j d % X X a X X % a a X $ X X X $ X $ X X $ # # # # O O = t 3 2 2 3 S S F K ",
"K F W L S S D S D 5 : % # X . X $ a d d d d d d d d d d a a X X X X X a a X X X $ X X X X $ $ X # X # # O O 7 K S F S D S D P P ",
"I S 4 4 S D D S K e ; a $ X X X a d d d d d d d d d d d d d X X X % a a X % X X X $ X X $ a X X X # # # O + 4 S D L 4 D D D K I ",
"T F 4 4 3 3 2 3 2 4 9 a a $ X . X d d d d d d d d d d d a % X X % X a % X X X a $ X X a X X X $ # # O # O 5 I F K F G K D D S F ",
"S K 4 2 < 2 2 3 3 D e , s # # O . X a d d d d d d d d a a   X % # $ a # # # # # # O O # O # # O # # O O * y K F P F I F L D D D ",
"D t D 4 4 4 4 3 4 4 4 8 : % # # X . X % a d d d d d a X X X X X $ a $ X X # # # O # # O # O # # # # # @ e K D S F I L F K 4 S S ",
"D D D K F D F 4 3 3 2 2 9 s % # # # X . X X $ $ # X   . X X X X a % # O # # # # # O O # O # # O # O O 5 4 K S K F 4 K 4 D D S K ",
"D D D D S F K S D D D D e , s $ # # X # X . .   . X X X X a X a % # # # # # X # O # # O # O O O O O & t K 4 4 I F 4 K S K S S D ",
"D K P L K K I W 4 D K 4 K 1 , s $ # # # # # # # X # # # # $ $ a # # # O . X X # # O O O O O O O O & 4 S K P 3 K K 4 P P I 4 4 D ",
"4 K P P P I H F S D 4 2 4 D e > s % # # # # # # # $ X X $ a a X X X . X     X . X . . . .   . X & t D S t R I K L S P I G K K K ",
"K I L K P L I Q t 3 < < < 4 K e > s a % $ $ # # # # a a a a .                               . = t D D D L R I P P K P D I L L K ",
"P P E I D L I K D D 4 4 4 K 4 K G u , s d a : a a d a a X .                             . & 3 4 4 F S K D P L P P F S L L F 4 D ",
"P L F W L K 4 D S S D D D 4 4 L L K y 8 9 s s s , $ O . .           .             . o = e F K S S K D D D S F 4 4 4 4 K D S D D ",
"P I 3 D L F 4 S D F D K D 2 3 < F L K F L F 4 W S D D D D D D S 3 K L K P P S P L K D P P P D K K S S D D D K 3 < < 4 K S S D S ",
"Q F 3 D 4 3 D 3 4 4 2 4 D < 2 3 4 t P 2 F 2 t t S F S D S K 4 4 K t P P P P F P P D 4 F K S D D S D D S D D S D 4 S D 4 K D D S ",
"F 3 S S S 4 2 2 2 1 2 3 4 4 2 3 2 4 4 2 2 3 2 4 4 S S S K S L H D R L F L F S S S D D K K D K D S S D 3 4 4 4 D K 2 < 2 4 S K D ",
"D D F D D D D S D 4 4 S K S 4 2 3 2 3 3 4 4 S 4 4 4 D D S P D L P P I F S D D D D D S S D I 4 4 S K 4 3 3 3 4 K 4 4 4 4 4 I K 4 ",
"S K S S D D S F D S 4 3 4 4 D D S 4 4 S D D D K D D S F D I K S F F H P D S K S D D K F F W t K 4 D D S 4 K D D J 4 K I 4 W t F ",
"D K D D D S D D K L L S S F K P D P I S K S D S D S D D F L S D D D S F D D D D D D R R R F K I t 4 S F 4 D S I I H E L K F I F ",
"R K D F P S P I I E I K L W R P D W K I K D D D D S S K P D L I J D S K S S S S S L I W I L L P t K H ! L 4 K L K L D K K K I I "
};
