/* XPM */
static char *result[] = {
/* columns rows colors chars-per-pixel */
"64 64 160 2 ",
"   c #A47600",
".  c #A67900",
"X  c #AA7C00",
"o  c #A18201",
"O  c #AF8100",
"+  c #A28C02",
"@  c #AD8B01",
"#  c #B28300",
"$  c #B68900",
"%  c #BB8C00",
"&  c #AC9202",
"*  c #A99B02",
"=  c #BE9100",
"-  c #B69B02",
";  c #BE9D01",
":  c #96AF02",
">  c #9EAF03",
",  c #97B404",
"<  c #9AB604",
"1  c #9DBE06",
"2  c #A5A204",
"3  c #ADA203",
"4  c #A5AE05",
"5  c #ACAD04",
"6  c #B4A503",
"7  c #BBA202",
"8  c #B3AC04",
"9  c #A2B606",
"0  c #ADB305",
"q  c #A3BE06",
"w  c #ABBC06",
"e  c #B3B204",
"r  c #BBB403",
"t  c #B5BC06",
"y  c #C39400",
"u  c #C59A00",
"i  c #CB9B00",
"p  c #C3A401",
"a  c #CBA300",
"s  c #C6AF02",
"d  c #CCAB00",
"f  c #D4A400",
"g  c #D4AA00",
"h  c #DCAC00",
"j  c #C4B503",
"k  c #C3BD04",
"l  c #D5B300",
"z  c #DCB200",
"x  c #D5B901",
"c  c #DBBB00",
"v  c #E2B300",
"b  c #E4BC00",
"n  c #EBBB00",
"m  c #F0BF00",
"M  c #9FC206",
"N  c #9FC308",
"B  c #A3C406",
"V  c #AAC606",
"C  c #A7CA06",
"Z  c #ABCB06",
"A  c #A4C508",
"S  c #AAC708",
"D  c #A7CA08",
"F  c #ADCC0A",
"G  c #B4C206",
"H  c #B2CD06",
"J  c #B0C208",
"K  c #BBC108",
"L  c #B2CF0A",
"P  c #AFD20B",
"I  c #B3D20B",
"U  c #BAD50D",
"Y  c #BEDA0D",
"T  c #B1CA13",
"R  c #C7C104",
"E  c #C8C104",
"W  c #C9C803",
"Q  c #DDC101",
"!  c #DECA00",
"~  c #C9D205",
"^  c #CED50D",
"/  c #E3C400",
"(  c #EBC300",
")  c #E4CC00",
"_  c #EDCB00",
"`  c #F3C300",
"'  c #F8C700",
"]  c #F3CB00",
"[  c #FDCD00",
"{  c #E5D100",
"}  c #EBD300",
"|  c #EDDA00",
" . c #F4D400",
".. c #FED400",
"X. c #F4DB00",
"o. c #FEDD00",
"O. c #EDCE12",
"+. c #EAD216",
"@. c #E7D419",
"#. c #F7D811",
"$. c #F8DB13",
"%. c #F1D31A",
"&. c #EFE300",
"*. c #F6E401",
"=. c #FDE300",
"-. c #F4ED00",
";. c #FEEB00",
":. c #FCE30E",
">. c #F5EE0C",
",. c #FFE90D",
"<. c #F4F200",
"1. c #FEF300",
"2. c #FFFC00",
"3. c #FFF40C",
"4. c #FFEA19",
"5. c #FFFF11",
"6. c #FFFA18",
"7. c #FFD623",
"8. c #F3D52A",
"9. c #EAD331",
"0. c #F5D936",
"q. c #FFD933",
"w. c #FFE624",
"e. c #FEE921",
"r. c #F1E92E",
"t. c #FEED2A",
"y. c #FFFD23",
"u. c #FEE234",
"i. c #FFEC3A",
"p. c #FFF335",
"a. c #F9F93C",
"s. c #FFEC46",
"d. c #FFF242",
"f. c #FFFF45",
"g. c #F8F44D",
"h. c #FFFF4C",
"j. c #FFED53",
"k. c #FCE659",
"l. c #D0D563",
"z. c #FFF263",
"x. c #FFFF62",
"c. c #FFFB6A",
"v. c #F4EC78",
"b. c #F7F172",
"n. c #FFFC73",
"m. c #FFFB79",
"M. c #FFF68D",
"N. c #FFFD88",
"B. c #FFF096",
"V. c #FEFD95",
"C. c #FFF39F",
"Z. c #FAEDA4",
"A. c #F5EDAD",
"S. c #FFFBA5",
"D. c #FFF6AB",
"F. c #FFFEAB",
"G. c #FFF9B2",
"H. c #FFFFBC",
"J. c #FFFCC6",
"K. c #FEFCEC",
/* pixels */
"1 M A F B 1 B B B D D B F F C A D D D F M M M N N N N N A A A B F V 1 M M N N A 1 N D D A S A D B A D F N N N B S N N M A D B B ",
"A N S F 1 1 M N N B D D D A D M S D B M N M N M A M M M B D B A S q 1 A M N N M A N A D B B S D B A D F A P L q N N M N N M N A ",
"M N D S S A S q N N D A B D D B D B N N M N A N N N A A A A A D L V 1 C N N N N N N N A C N M A A D F B D S F S 1 A N N A N A 1 ",
"N N A A A A < 1 B N M N A A B N M N N N A B S M F M M N N A A A 1 N D F M F S N B N M N N N M N A A N S F D F S 1 B M N M N N M ",
"N N S D D C S 1 N N N N A N N B N N M B 1 A Z A F A N N N N N N N B F N A A < 1 N M A N N B S N N N N D D D D M 1 N N A M N A 1 ",
"N N N A S A V B N N N N 1 1 1 N N A A A N D S D S B q A N N N N M B D N D B Z F D M M A N D B M N N N A C A 1 1 A 1 A N N M N A ",
"1 M N A N D q M A M N 1 < < < < N B D D D D F F 1 q A 1 N B N N N B F S B D S V B 1 M A N M A B M N N N N N N B N M A B q B A F ",
"A F 1 1 1 N q M A N N A N M N 1 M A A M N A J t r s d g g z c b ( ]  . ._ / x j e q D F D A S B N N M M 1 N 1 M A N D B S q S B ",
"D S 1 1 M N M M N N N N M M N N q N D D G k x c n n v b ]  ...o.=.o.o.o.......] ] Q E G A A A N M , , , , < , , M A D A B D D S ",
"M 1 A 1 < < < < , , 1 D D D D N B A w R / ] [ [ ' ]  .o.=.=.4.i.4.1.;.;.;.o...[ [ [ ] ( E S S B N 1 < , < < < M M N M N B A B M ",
"N S N 1 < < < < 1 1 N N B Z D D A t Q ] [ ..[ ]  ...o.,.p.m.S.m.6.2.1.1.1.1.;.=.......[ ] c t B A A N 1 1 M Z M M B S M D N M M ",
"D C N N M N B A N B B S A Z F V W } ......] `  .o.:.d.V.J.D.j.:.o.X. . . .o.....o.o...[ [ ' v j q N N S N M F q M D A F F 1 M A ",
"A M N B M N M D A D A S D D A ^ >.3.3.3.*._  .=.,.n.G.C.k.%./ x d d d d d d g g n ......[ ' n b j w M F B q C A A D F F M M B S ",
"A B D D S M A D B 1 F Z D T l.V.V.V.V.b.+.] =.;.3.s.u.O.l d a d c Q l l Q x u # # i v [ [ [ m n b j q A F N D B S A S q 1 B A A ",
"N B S F C A A D S 1 B Z B ^ a.h.h.h.g.9.] =.1.1.=. .c p s b  .:.;.1.c c 1.1.o./ i # # f m ' m m n n j q C A D A N N S Z 1 N M M ",
"N D D Z F A B F B M 1 q ~ <.2.2.2.1.} _ X.;.;.=._ d d b X.t.c.c.5.-.! z *.=.o...[ ` f X % g v v n n b r M N 1 M 1 N N M M N N N ",
"N C Z B F 1 B F Z 1 A t } =.=.=.=._ b _ ;.;.=./ d l _ e.m.H.F.f.2.| _ b b o...[ [ ..[ v % X y h v n n z 5 , < < , < , , 1 M M M ",
"N B Z S Z 1 M H q 1 q Q [ ..[ ..` v v X.;.=.( d l #.j.F.H.n.y.1.o./  .n z  ...[ [ [ ..[ m y X u f v n v p < , , , < < < M A M M ",
"N 1 1 1 < N M 1 1 A k ' [ [ ' ' v v b =.=._ d l $.z.N.x.y.1.;.=._ ) ..' h ( ..[ [ [ [ [ [ m % X u f v n h 6 < S B B A D D D C B ",
"Z N N 1 B B N 1 N 9 g v v n v v z v ( .. .d l  .3.y.5.2.1.=.o.../ | ..' h z [ [ [ [ [ [ [ [ v # # f g v h a J F D B S D D F F I ",
"D A S A M C F S < 6 v v v v h h v v ] ' l d ] ;.2.2.2.;.o.o.o.X.@.;...' v h ' [ ..[ [ ..[ ' m g X y f h h f 8 < S D A N A A I B ",
"D M D A D D B 1 < d v v v v h h v v ' h $ c ;.2.2.2.;.o.o.o.o.8.v.4.[ ' n h n [ [ [ [ [ [ m n v % . u f f f p 0 I D q 1 F 1 q F ",
"M D F 1 V D D I 8 h v v v v f h h b m % %  .1.2.2.=.o.o.o.o.u.Z.K.B.q.[ n v h ' [ [ [ [ [ m n n f X # i f f f 5 N 1 , < D V 1 M ",
"N S F , < Z S q s h v v v h f f g n g X h ;.2.2.=.=.o.o.o.:.0.A.K.C.q.' n m h ` [ [ ..[ m m n m v y . y f f f - , < N 1 D M B M ",
"A A N 1 , , q < d v v v v h f i f v % # _ 1.1.X.] ] ] ) / / b r.M.7.[ ' n n n h v v n m v v v n v f X X i g i ; 9 S D D M N N D ",
"D A N N M < < K h v v v v h f i i f X u c ! ) ! / ) _ | | *.*.1.w.[ [ ' v v ' n v h h f f f i i i y # X y f i u 0 Z D B D A A D ",
"S 1 N N 1 1 1 r h v v v v f f y i y X v ) ! -.1.;.=.=.=...o.......[ [ ' v v n n m m n n v v h i y f % . # i i u 6 F B C B S A q ",
"N A N N M S S j v v v v h f f y u # # _ 2.| ) *...[ [ [ [ [ ..[ [ [ [ ' v v v v v v v v v f i y h v f X X y i i 6 1 B A 1 A M 1 ",
"N N M N A S C d v v v v h f f y y X $ X.2.=.n / X.' m ' [ [ [ [ [ [ [ n v v v v v v v h f u y f n n f X X % i i ; M N 1 q B B A ",
"D A M N M 1 A a f g h f f f i y y X %  .1...[ ( !  .( v v m ` ' ' ' m v v v v v v v f i y y h n n n v # X $ u i y 1 N A A B S F ",
"S B A N M N M = u y y y y f i % % X % } X.] [ [ n /  .( v v v v v v v v v v v v h f y y y h n m n m h # . # y i y M 1 S M D S A ",
"M A D N N N B = y y y y y i f $ % . % ) _ n ' ' [ ( / _ n v v v v v v v v v v h i y X y h n n n n v g # X # = i y N Z B P F B D ",
"A D B M N 1 , = % y % y y f i % # . % b ( n n m ` ' n c _ n v v v v v v v v v i $ $ y v n n n n n v f X X X y i y 9 1 B D A D A ",
"A N N M 1 , , % y y y y y i i % $ . $ c n n n n n n n v c _ v v v v v v v v v y X y v n n n n v v h f X X $ y i y A S D F B B 1 ",
"N N M M A N A = y y y y y i i y # X # g n n m n n n n n l  .` v v v v v v v v i X i n n n n v v h h i X X X y i u N B S N S B A ",
"M N N N D D B - y y y y y y i y $ X X f h n n n n n n v / o.' n v v v v v v v f X y v n n v v h h h i X X X % i ; N A N N B N N ",
"N M D D D S B - % y % y y y u % # # X i f v m n n n n c X...[ n v v h f f h h f y X f n v h h h h f y   X X y y 7 A D B N 1 N N ",
"M B S B B N D 8 y y y y y y u y # # X y f h n n n n v c *...' n v v i i i i f f y X y h h h v h h i y   X $ y i 8 B A A N N A M ",
"B B N P B 1 F 0 % y y % y % u y # X   % f f h n n n v { =.[ ` v v i y # y y i i y y y f h h h h f i X X X X i i 0 B B S N M M N ",
"1 D D N N B 1 9 - y y y y y y u % # X X i f g v n b z *...[ n v i y $ # # y y y i y X i h h h h i y X X $ y i y w M D N N M D L ",
"D B , q N N N q 3 y y y y = y i % # X X % i f f v v c -...` v f y i f f y X % y y y $ y f v f i i $ X X # % i 8 A A A M M N F A ",
"D B D F F B N M 4 $ $ $ % $ % u y # X X X u i i a a { 1.] v f u i h v v h i y X % y $ y i f i i y X X # # u i 0 B F N N M B A S ",
"S A B 1 1 N N M q @ O # O # # y u $ X X   % i i i a &.=.v f i f v h h h h h h y y X X y y y i i #   X # % u 7 9 B S N M N A D Z ",
"B B 1 N 1 A M N D 2 O O O O O % i y $ # X . y i u x -.b i i f h h h h h h h h h i y X y y y i y . X # # y i 6 N 1 1 1 1 1 N B A ",
"F F F F M M M B N 9 @ O X $ X % y y y X X X X i i l g u i i i i i f f f f f f f i i y y X y i X   X $ % u p 9 N < , , < 1 M B A ",
"A B L F M N N M N N 2 O $ X $ X % i y X X X X X $ y u i i i i i i i i i i i i i i i i y y X X X X $ X y u 8 B A M B M N M N D D ",
"F M 1 1 M N N M N N q & X $ X $ X y i $ X $ X   X y i i i i i i i i i i i i i i i i i i y X   X $ X y y 7 9 M M N S 1 N N N A F ",
"H B 1 1 < < , < , 1 A 5 $ X X $ X $ y y y X $ X   X y i i i i i i i i i i i i i i i i y X   X X X $ y i 0 1 S B A B V B N N M B ",
"1 A 1 , : , , < < N A M 2 O # # O # $ u y # # # X . . $ y i i i i i i i i i i i i y $   . X # # $ y u 8 A S B B A B F B S N N N ",
"N q N 1 1 1 1 < 1 1 1 N B * O O O # # % i % # # # # . . X # y i i i i i i i y y X     X # # # # y y 6 V A A N N B F S B A 1 M M ",
"N N N A B N B 1 < < , < B A * O O O O # % y y # # # X X X     X # # # $ # # X . X X X $ # # # % u 6 9 A M A N A B 1 A 1 N N M A ",
"N N N N M B A M N N N N B M 1 3 O # O # # % y y $ # # $ # X X X . .       . . X X X # $ X $ % u 6 q 1 B A 1 1 F B 1 B M A M M N ",
"N A D S A A F I 1 N B M A 1 A V 2 @ O # O O $ y y % # # X # # # X # X # # # # # $ $ X $ % y y 5 q N N N A D < A B 1 D D F 1 1 N ",
"N A D D D F V B M N 1 < 1 N N q N 4 + X X X . X y i y % # $ # X # # # # # # # # $ X y y u 7 5 B A N N N q L F A S M D F Z A A A ",
"A F S A D S F U q < : : : 1 A N N N > 2 o         X % i y y $ % # # # # # # $ $ % y y u 8 V B M B N N N S L F D D A D N F F S A ",
"D D P F N S F B N N 1 1 1 N 1 q F D D 1 > > +         X y y y y u y y y y y u u u 7 e t D S A M 1 N N A N D S D D B M S S B 1 N ",
"D S B I S A N N M M N N N 1 1 S S D A S B A w 9 2 + o   . o O % y y y y p ; 7 e 0 q D D S D A M M A N N N M B 1 1 1 1 A N M N N ",
"D F < N S B 1 M N B N N N , < : B S A B S B q L M N M N N N N M 1 S F A C S 1 D S A N D D A N A A M M N N N A < : : 1 B N N N M ",
"U B < N 1 < 1 < 1 1 < 1 B : , < 1 q D , q , B 1 M A M N M A 1 1 A q D D D D A S D N 1 B A M N N M N N M N N M N 1 N N 1 A N N M ",
"B < M M M 1 , , , : , < 1 1 , < , 1 1 , , < , 1 1 M M M A M S Z A L S B S B M M N N N B A A A N M M 1 < 1 1 1 N A , : : 1 M A N ",
"N N B N N N N M 1 1 1 M A N 1 , < , < < 1 M M 1 1 1 N N M D N S D D D B M N N N N N M N A D 1 1 M A 1 < < < 1 A 1 1 1 1 1 F A 1 ",
"M A M M N N M B N M 1 < 1 1 N N N 1 1 N N N N A M 1 N A N F A M B B S D N M A M N N B B B I q A 1 N N M 1 A N N S 1 D F 1 I q B ",
"N A N N N M N N A F S N N B A D N D S N N N N M M M M M B S M N N N M B N N N N N N L L L B A F q M M B 1 N M F F Z P S A B F B ",
"L A N B D M D F F P F B S I L D N I A F A N N N N M M A D N S F Z N M A M M M M N S F L F F S D q N Z Y S 1 A S A D N A A B F F "
};
