/* XPM */
static char *result[] = {
/* columns rows colors chars-per-pixel */
"64 64 167 2 ",
"   c #A47600",
".  c #A57900",
"X  c #AB7C00",
"o  c #A28201",
"O  c #AE8100",
"+  c #A58902",
"@  c #AF8A01",
"#  c #B18300",
"$  c #B78900",
"%  c #BB8C00",
"&  c #A09003",
"*  c #AA9202",
"=  c #A59D04",
"-  c #A99C03",
";  c #B69702",
":  c #BE9100",
">  c #B49E03",
",  c #BD9D01",
"<  c #96AF02",
"1  c #97B404",
"2  c #9AB604",
"3  c #9DBE06",
"4  c #ABA704",
"5  c #A3AC04",
"6  c #AAAE05",
"7  c #B4A503",
"8  c #BBA402",
"9  c #B3AC03",
"0  c #B8AD03",
"q  c #A4B506",
"w  c #ACB105",
"e  c #A2BF06",
"r  c #ABBA05",
"t  c #B1B204",
"y  c #B5BC06",
"u  c #BBBB05",
"i  c #C29300",
"p  c #C59A00",
"a  c #CA9B00",
"s  c #C6A301",
"d  c #CCA400",
"f  c #C2AA02",
"g  c #CBAB00",
"h  c #D4A400",
"j  c #D8A700",
"k  c #D3AC00",
"l  c #DCAC00",
"z  c #C4B203",
"x  c #C4BF03",
"c  c #D5B300",
"v  c #DCB200",
"b  c #D4BA01",
"n  c #DCBC01",
"m  c #E0AF00",
"M  c #E2B300",
"N  c #E8B700",
"B  c #E6B900",
"V  c #EBBB00",
"C  c #E8BA0C",
"Z  c #F0BF00",
"A  c #9FC206",
"S  c #9FC308",
"D  c #A3C406",
"F  c #AAC606",
"G  c #A7CA06",
"H  c #ABCB06",
"J  c #A4C508",
"K  c #AAC708",
"L  c #A7CA08",
"P  c #ADCC0A",
"I  c #B5C406",
"U  c #B2CD06",
"Y  c #BEC805",
"T  c #B2C609",
"R  c #B2CF0A",
"E  c #BAC809",
"W  c #AFD20B",
"Q  c #B3D20B",
"!  c #BAD50D",
"~  c #BEDA0D",
"^  c #C4C204",
"/  c #CBC503",
"(  c #CCC905",
")  c #D6C003",
"_  c #DCC400",
"`  c #D6CA02",
"'  c #DBCC03",
"]  c #C9D00F",
"[  c #E4C400",
"{  c #EAC300",
"}  c #E4CB00",
"|  c #ECCA00",
" . c #EEC00E",
".. c #F3C300",
"X. c #F8C700",
"o. c #F3CC00",
"O. c #FDCD00",
"+. c #E5D200",
"@. c #ECD301",
"#. c #EDDB00",
"$. c #F4D300",
"%. c #FED500",
"&. c #F6DB00",
"*. c #FEDD00",
"=. c #FFD10E",
"-. c #FDDD0E",
";. c #E6D412",
":. c #F3D41B",
">. c #E4E301",
",. c #F4E300",
"<. c #FEE300",
"1. c #F5E902",
"2. c #FEED00",
"3. c #FAE30E",
"4. c #F5EE0C",
"5. c #FEF300",
"6. c #FFFD01",
"7. c #FFF50C",
"8. c #FCE313",
"9. c #FFEC16",
"0. c #FEEB1D",
"q. c #FFF514",
"w. c #FEFB14",
"e. c #FFF31A",
"r. c #FFFF1F",
"t. c #E8CC28",
"y. c #F6D924",
"u. c #F4D829",
"i. c #FED838",
"p. c #EFEF2F",
"a. c #FBE022",
"s. c #FFEF21",
"d. c #FFE32E",
"f. c #FFFC2A",
"g. c #FEE331",
"h. c #FFED37",
"j. c #FFFF38",
"k. c #C3CD4D",
"l. c #FED941",
"z. c #FFE846",
"x. c #FFFF47",
"c. c #FFFE4A",
"v. c #FFF352",
"b. c #FFED62",
"n. c #FDF664",
"m. c #FFFA68",
"M. c #F1EA7A",
"N. c #FCEB7A",
"B. c #FFF777",
"V. c #FFFF7A",
"C. c #FFE783",
"Z. c #FFEE81",
"A. c #F7E78D",
"S. c #FFEE8C",
"D. c #FCF684",
"F. c #FFFF87",
"G. c #FFF98D",
"H. c #F5F393",
"J. c #FFFF96",
"K. c #FFFCA2",
"L. c #FFFEAF",
"P. c #FFF7B0",
"I. c #FFFDB7",
"U. c #FFFCBC",
"Y. c #F9F6E7",
"T. c #FFFDE5",
"R. c #FFFCE8",
/* pixels */
"3 A J P e 3 J D J L L D P P G J L L L P A A A S S S S S J J J D P F 3 S A S S J 3 S L L J K J L D J L P 3 S S D K S S A J L D D ",
"J S K P 3 3 A S S D L L L J L A K L D A S A S A J A A A D L D J K D 3 J A S S A J S J L D D K L D J L P J W Q e S S A S S A S J ",
"A S L K K J K e A A L J D L L D L D S S A S J S S S J J J J J L R D 3 G S S S S S S S J G S A J J L P D L K P P 3 J S S J S J S ",
"S S J J J J 2 3 J S A S J J D S A S S S J D K A P A A S S J J J 3 S K P A P K S D S A S S S A S J J S K P L P K 3 D A 3 A S S A ",
"S S K L L G F A S S S S J S S J S S A D 3 L K D P J S S S S S S S D P S J J 2 3 S A J S S D K S S S S L L L G 3 3 S S J A S J 3 ",
"S S S J K J F D S S S S 3 3 3 S S J J J S L K L K D 3 J S S S S A D L S L D H P L A A J S L D A S S S J G J 3 3 J 3 J S S A 3 J ",
"3 A S J S L e 3 J A S A 2 2 1 2 S D L L L L P F 3 e J 3 S A S A S D P L J P F F D S D J A A L S A S S S S S S J S S D D e D J P ",
"J P 3 3 3 S e A J S S J S A S 3 A J J A D I ( ' | $.$.o.B B l j j l l v l k k c g z u T J J K D S S A A 3 S 3 A J S L D K D K D ",
"L K 3 3 A S A A S S S A A A S S D S F Y ' @.%.*.*.*.*.*.%.O.O...N N { X...X.X.X.X.X.o.[ x e J D A 1 1 1 1 2 1 1 A J L J D L L K ",
"A 3 J 3 2 2 2 2 1 1 3 L L L L S e I ` $.*.<.9.h.9.2.2.2.<.%.O.O.O.X.....O.%.O.O.%.O.O.O.o.) y D S 3 2 1 2 2 2 A A S A S D J D A ",
"S K S A 2 2 2 2 3 3 S S D H L K ^ +.*.<.s.m.K.B.w.5.5.5.2.2.<.*.O.O.O...V X.O.O.O.O.O.O.O.O.[ u J J S 3 3 A K A A D K A P S A A ",
"L G S S A A D J S D D K J H K / $.*.0.m.I.U.b.8.&.&.$.$.&.%.*.*.*.%.O.O.N N X.*.%.*.%.%.%.*.%.| x J S K S A P e A L J P F 3 A J ",
"J A S D A S A L J G G F K K ^ $.<.0.G.P.N.u.[ c g g d g g k l V O.%.O.O.Z N { 1.7.7.7.7.7.7.7.7.4.] e P D e G J J L P P S A D K ",
"J D L L K A J L D 3 P H K ^ | *.2.e.z.y.n g g c n n g n n s # # a Z O.O...V N t.D.J.J.J.J.J.J.J.J.H.k.J P S L D K D K D 3 D J J ",
"S D K P G J J L K 3 D H u [ &.2.5.,.| k g n @.3.5.+.d #.5.<.{ a # $ m X...N V C l.c.c.c.c.c.c.c.c.c.p.E F D L J S S K H 3 S A A ",
"A L L P P J D P D A 3 r ) o.2.5.*.[ g c @.a.n.m.w.+.d } 2.<.%.O.V i # a M N V V n #.6.6.6.6.6.6.6.6.5.>.F S 3 A 3 S S A A S S S ",
"S G H D P 3 D P F 3 e z { &.5.*.[ s n -.v.P.L.x.5.n B c %.%.O.O.O.X.h # % h N N B B &.<.<.<.<.<.<.<.<.<.) 2 2 2 < 2 1 2 3 A A S ",
"A D H J H 3 A U e e t v | 2.<.{ g n a.D.U.F.f.5.@.n o.h | %.O.%.O.O.X.h X i h M V m M O.O.O.%.%.%.O.O.O...t 1 1 1 2 2 2 A J A A ",
"S A 3 3 2 S A 3 3 e g M | <.$.g n y.B.V.j.7.2.*.n | o.l n O.O.O.%.O.O.X.a O a j M N j ..O.X.X.X.O.X.X.O.X.b q K D D D L L G G D ",
"K S A 3 D J S 3 S w v N $.*.c c &.q.r.6.5.<.*.$.n *.O.N h X.O.O.O.O.%.O.N % # a j M h l N N N N B B N B N l y P G D K L L P P Q ",
"L J K J A G P K 2 f m N o.B s | 5.6.6.5.<.*.*.:.;.*.O.V h V %.O.O.%.O.O.Z j X i h l l d l M M M M M v M M l f 2 K K J S J J Q D ",
"L A L J L L D 3 5 k m V ..: k <.6.6.5.<.<.*.3.N.n.-.O.V l l O.O.O.O.O.X.Z N i X a h h h j m M m M M M M M M k w W L D 3 P 3 D P ",
"A L P 3 F K L Q 7 l l { h O { 5.6.5.<.*.*.d.S.R.T.S.l. .N j ..%.O.O.O...V V j X $ h h h h m M M M M M M M M l 0 S 3 1 2 L K 2 A ",
"S K P 1 2 H F e f h l B % i ,.6.5.<.*.*.-.g.A.Y.R.C.i. .N l N O.%.O.O...V V M $ X i h h a l M M M M m M M M M f 2 2 S 3 L A D A ",
"J J S 3 1 1 3 5 s h j h X v 2.5.,...o.| { [ n M.Z.=.O.V N N h M M V N M N N N p X $ h a a j M m M M M m M M B k r J L L A S S L ",
"L J S S A 2 2 y d a h i # d _ ' } } +.+.#.,.1.s.y.O.O.V M ..Z M l l h h h a i i X X a h a h M M m M M M M v M l y K F D L J L L ",
"F 3 S S 3 3 3 7 h a a # : [ _ 1.2.<.<.<.*.%.%.%.O.%.O.N m N ..Z V N M m l a i h $ X i a i h m m M M M M M M M l 0 P J D D K J e ",
"S J S S A K K 8 h i i X d 5.#._ ,.O.O.O.O.O.O.O.O.O.O.N M M M M M M M l a i j N i . $ a a a m m M M M M M m M M f 3 J J 3 J A 3 ",
"S S A S J K G s a i i X l 5.<.B [ $.....X.O.O.O.O.O...N M M M M m m h a % j V V a . X a a a l M M M M M B v M M g A S 3 D D D J ",
"L J A S A A J s a i $ X c 2.*.O.B [ | N N V ....X...N M M M M M m h i % h V V V h . X i a a h h h h h j j j h j s 3 A J D D K P ",
"K D J S A S A a a % $ X c #.o.O.o.B [ o.M M M N N M M M M M M l a % % h V V V V h X # % a i i i i i i i i i i i : 3 3 K A L K J ",
"A J L S S S D d a i # X g @.....O.X.n [ { M M M M M M M M M l i $ $ h N V V V N a X X $ a i i i i i i i i : i : % S F D W P D L ",
"J L D A A 2 1 d a % # X d | V V ....V v [ { M M M M m M M m a $ $ h V V V V N M a   X $ a i $ i i i i i % i i i $ 3 3 D L J L J ",
"J S S A 3 2 1 a h $ #   d V V V V V V B k { N M M M M M M m i X a M V V V N m l a X X i a i i i i i i i i i i i % S K G P J D 3 ",
"S S A A J S J a a % $ X i B V Z V V V N d | ..M m M M M m m h X a V V V N M l l i   X $ a i i i i i $ i i i i i ; S D K A K D J ",
"A S S A L L J , a % # . : j N V V V V N v &.O.N M M M m M M h X % N V N m l l j i X X $ i i i i i i i i i i % i ; S J A A D S S ",
"S A L L L K D 7 a % $ X % h m V V Z V l [ *.X.N M m j h h m h $ $ l M l l l m h $ X X $ a $ i i i i i i i i i i > J L D A A S S ",
"A D P D J S L 9 a % # X X h j N V V V c +.%.X.N m j a a a h h i # a m l l l l a X X $ i i i i $ i $ i $ i i i i 7 D J J S S J A ",
"D D S W D 3 P w p i $ X X a h l V V M v *.%.Z m m a $ i a a a i $ i l l l l h i X X X i a i i i i i i i i i i % 5 D D K S A A S ",
"3 L L A A S D q p i $ X   i h j M V v _ *.O.N m a $ X X $ i i a $ $ h m l j a %   X $ i i i i i i i i i i $ i $ q D L S S A L R ",
"L D 1 e S S S e 7 a $ # X X a a h m j #.*...M a i a j a X $ i i i $ a m j h a X   X i i i i i i i : i : i i % > K J J A A S P J ",
"L D L Q P D S 3 6 p % # X   i a a a g 1.&.M h i h m m l h % # % % $ i h a a i   X $ i a i $ $ $ $ $ $ $ $ $ $ 4 D P S S A D J K ",
"K J D 3 3 S S A w p i $ # X # a a p b 5.V a a j m l l m j h a # X $ % i a a $ X X $ i i $ X $ X O # O # O # @ q D K S A S J L F ",
"D D 2 S 3 J A S e 7 a $ # X . % a i +.} p a h l j l m m m l j a $ $ % i a i   X X X i i X $ X $ # O # O # O - 3 3 3 3 3 3 S D J ",
"P P P P A A A J S 6 p i $ # X X i ; k p i a a h a h h h h h h a a i $ $ i X X X i i a X X $ $ X O # # O O @ 5 D 2 1 1 2 A A D J ",
"J D R P A S S A S e 7 i $ # X . X $ i a a a a a a a a a a a a a a i i $ X   X $ $ i a X $ X X X # O O # # * 3 J A D A S A S L L ",
"P A 3 3 A S S A S S 6 p i # # X   # i a a a a a a a a a a a a a a a a #   X $ X i i X X X $ X $ # O # O @ 5 A A S K 3 S S S J P ",
"U D 3 3 2 2 1 2 1 e e 7 a $ # # X   # i a a a a a a a a a a a a a i #   X X $ $ i i X $ $ X $ X O # O # - 3 K D J D F D S S A D ",
"3 J 3 1 < 1 1 2 2 A J q 8 i $ # # X   X % a a a a a a a a a a a i X   X # # $ i i # O # X # # O # O # * q K S D L D P D K S S S ",
"S e S 3 3 3 3 2 3 3 3 S 6 p : $ # # #     # % i a a a a a i i X   . X # # # % i $ O # O # O # # O # @ 6 J J S A D P K D J 3 A A ",
"S S S J D S D 3 2 2 1 2 D 9 p : # # # # X     X X # # $ X X   X X X # # $ $ i $ O # O # # # # O # # = e A J S J D 3 J 3 S S A J ",
"S S S S A D J A S S S S A e 4 p i $ # # # # X X X         X X X # # # $ % i $ # # O # O # O O # O * 2 S J 3 3 P D 3 D A J A A S ",
"S J L K J J P Q 3 S J A J 3 F 9 a i $ # # # # # # X X # # # X $ # X $ i i $ # O O # O # # O # # @ 2 S S J L 2 J J 3 L L P 3 3 S ",
"S J L L L P F D A S 3 2 3 S S 3 6 8 p : $ $ # # # $ # # # # $ X $ i i i $ O O # # O # O # # X * q D S S e R P J K A L P F J J J ",
"J P K J L K P ! e 2 1 < < 3 J S S q 7 p i i % $ $ $ # $ $ $ $ i i i $ X   . X X O O X X X O * q J S S S K R P L L J L S P P K J ",
"L L W P S K P D S S 2 3 3 S 3 e K L J q 9 p a i i i i i i a i i #                   . X + - e S 3 S S J S L K L L D A K K D 3 S ",
"L K D Q K J 3 S A A S S S 3 3 K K J J K J r t 7 , , , p ; $ @ .             o o + & = 5 r L J 3 A J S S S A D A 3 3 3 J S A S S ",
"L P 2 S K D 3 A S D S S S 1 2 < D K J D F D e R 3 S A S S S S A 3 L P J G L S J K J A L L J S J J A A S S S J 1 < < 3 D A A S A ",
"! D 2 S 3 2 3 2 3 3 2 3 S < 1 2 3 e L 1 e 1 e e A J A S A J A 3 D e L L L L A K L S 3 D J A S S A S S A S S A S 3 A S 3 J S S A ",
"D 2 A A A 3 1 1 2 < 1 2 3 3 1 2 1 3 3 1 1 2 1 3 3 3 A A J A K F D R K D K D A A A S S J J S J S A A 3 2 3 3 3 S J 1 1 < 3 A J S ",
"S S D S S S S A S 3 3 A J S 3 1 2 1 2 2 3 3 S 3 3 3 S S A L S K L L P D A S S S S S A A S P 3 3 A J 3 2 2 2 3 J 3 3 3 3 3 P J S ",
"A J A A S S A D S A 3 2 3 3 S S A 3 3 S S S S D D 3 S D S P J A D D G L S A J A S S J D e Q e J 3 S S A 3 J S S F 3 L P 3 Q e D ",
"S J S S S A S A J P K A A D J L S L P A J A S A S A S S D K A S S A A D S S S S S S R R W D J P D A A D 3 S A P P F W K J D P e ",
"Q J S D L A L P P W P J K Q R L S Q J P J S S S S A S D L S L P H S A J A A A A A K P R P P K L e S F ~ K A J K J L S J J J P P "
};
