/* XPM */
static char *result[] = {
/* columns rows colors chars-per-pixel */
"64 64 185 2 ",
"   c #A37600",
".  c #A67900",
"X  c #AA7C00",
"o  c #A28101",
"O  c #AF8100",
"+  c #AD8C01",
"@  c #B28300",
"#  c #B78800",
"$  c #BB8C00",
"%  c #A39103",
"&  c #AD9302",
"*  c #A69D03",
"=  c #A99B02",
"-  c #BE9100",
";  c #B69901",
":  c #BD9D01",
">  c #96AF02",
",  c #9EA804",
"<  c #97B404",
"1  c #9AB604",
"2  c #9DBE06",
"3  c #A3A305",
"4  c #AFA703",
"5  c #A3AC04",
"6  c #AEAC03",
"7  c #B4A302",
"8  c #BBA202",
"9  c #B3AB04",
"0  c #B8A902",
"q  c #A4B506",
"w  c #ABB405",
"e  c #A3BE06",
"r  c #AABB05",
"t  c #B3B005",
"y  c #BBB502",
"u  c #B5BB06",
"i  c #BDBC06",
"p  c #B2BE08",
"a  c #C29400",
"s  c #C59900",
"d  c #CA9B00",
"f  c #C6A401",
"g  c #CCA300",
"h  c #C2AD02",
"j  c #CCAB00",
"k  c #D3A300",
"l  c #D4AA00",
"z  c #DCAC00",
"x  c #C4B303",
"c  c #CDB502",
"v  c #C6BB03",
"b  c #CCBA02",
"n  c #D4B300",
"m  c #DBB300",
"M  c #DBBB00",
"N  c #E2B200",
"B  c #E8B700",
"V  c #E4BB00",
"C  c #EBBB00",
"Z  c #E4B60A",
"A  c #E8B909",
"S  c #F0BF00",
"D  c #E5B917",
"F  c #E8BE21",
"G  c #9FC206",
"H  c #9FC308",
"J  c #A3C406",
"K  c #AAC606",
"L  c #A7CA06",
"P  c #ABCB06",
"I  c #A4C508",
"U  c #AAC708",
"Y  c #A7CA08",
"T  c #ADCC0A",
"R  c #BBC006",
"E  c #B3CB06",
"W  c #B4C108",
"Q  c #B2CF0A",
"!  c #AFD20B",
"~  c #B3D20B",
"^  c #BAD50D",
"/  c #BEDA0D",
"(  c #B7CB22",
")  c #D7C503",
"_  c #DBC201",
"`  c #DFC30C",
"'  c #D3D704",
"]  c #DEDE0D",
"[  c #DADD18",
"{  c #E3C200",
"}  c #EBC400",
"|  c #E3CB00",
" . c #EBCB01",
".. c #ECCB09",
"X. c #F4C400",
"o. c #F8C700",
"O. c #F3CC00",
"+. c #FECD00",
"@. c #E5D301",
"#. c #ECD400",
"$. c #ECDC01",
"%. c #E7D10E",
"&. c #F5D400",
"*. c #FED300",
"=. c #F3DA00",
"-. c #FEDC00",
";. c #F4D30D",
":. c #F7DE0B",
">. c #E9CA1A",
",. c #F7CA13",
"<. c #F0C51F",
"1. c #EFD016",
"2. c #FFD510",
"3. c #F2D31A",
"4. c #EEE300",
"5. c #F5E200",
"6. c #FEE401",
"7. c #F4EB00",
"8. c #FEEB00",
"9. c #F6E20C",
"0. c #FEF300",
"q. c #FEFC00",
"w. c #FEF40B",
"e. c #FFF90C",
"r. c #F5E417",
"t. c #FCE414",
"y. c #FFE917",
"u. c #FDEE1A",
"i. c #FFFD19",
"p. c #E9C12B",
"a. c #EED526",
"s. c #F3D621",
"d. c #FFD72D",
"f. c #E5CF3C",
"g. c #ECD23A",
"h. c #F8D130",
"j. c #FFD833",
"k. c #F9D43E",
"l. c #FDEA23",
"z. c #FFFC25",
"x. c #FFF12A",
"c. c #FFFF2C",
"v. c #FFE637",
"b. c #FFEF35",
"n. c #FFEB38",
"m. c #EBC742",
"M. c #E1CC40",
"N. c #FFDB43",
"B. c #E6D65B",
"V. c #FFDF56",
"C. c #EFE146",
"Z. c #FEE442",
"A. c #FFEC47",
"S. c #F1E548",
"D. c #FDFC45",
"F. c #FFF44A",
"G. c #FFFF4C",
"H. c #FFE255",
"J. c #FFEC5F",
"K. c #FFF453",
"L. c #FADE6E",
"P. c #DFE07B",
"I. c #FDE967",
"U. c #F3E36E",
"Y. c #FFF764",
"T. c #FFFC6E",
"R. c #FFE474",
"E. c #FFFF70",
"W. c #FFFD7D",
"Q. c #F2EB87",
"!. c #FFFB84",
"~. c #FFEC9C",
"^. c #FEFE95",
"/. c #FFFA9C",
"(. c #FFFBA4",
"). c #FFF3AB",
"_. c #FFFDAC",
"`. c #FFF4B2",
"'. c #FFFEB4",
"]. c #F7F3BC",
"[. c #FFFDC0",
"{. c #FDFBC9",
"}. c #FFFBD5",
"|. c #FFFCED",
" X c #FFFFF8",
/* pixels */
"2 G I T e 2 I J I Y Y J T T L I Y Y Y T G G G H H H H H I I I J T K 2 H G H H I 2 H Y Y I U I Y J I Y T H H H J U H H G I Y J J ",
"I H U T 2 2 G H H J Y Y Y I Y G U Y J G H G H G I G G G J Y J I U J 2 I G H H G I H I Y J J U Y J I Y T I ! Q e H H G H H G H I ",
"G H Y U U I U e G G Y I J Y Y J Y J H H G H I H H H I I I I I Y Q K 2 L H H H H H H H I L H G I I Y T J Y U T U 2 I H H I H I 2 ",
"H H I I I I 1 2 I H G H I I J H G H H H I J U G T G G H H I I I 2 2 Y T G T U H J H G H H H G H I I H U T Y T U 2 J G G G H H G ",
"H H U Y Y L U 2 H H H H I H H J H H G J 2 I U J T I H H H H H H H J T H I I 1 2 H G I H H J U H H H H Y Y Y Y 2 2 H H I G H I 2 ",
"H H H I U I K J H H H H 2 2 2 H H I I I H Y U Y U J 2 I H H H H H J Y H Y J U T Y J G I H Y I G H H H I L I 2 2 I 2 I H H G H I ",
"2 G H I H Y e G I G H G 1 1 < 1 H J Y Y Y Y U T 2 I I 2 H G H G H J T U I L U U J 2 G I G G Y G G H H H H H H I H G I J e J I T ",
"I T 2 2 2 H e G I H H J H H H 2 G I I G H J W i h j l z z l m m { } O.&.&. .V b y r U T Y I U J H H G G 2 H 2 G I H Y J U e U J ",
"L U 2 2 H H G H H H H G G G H H J H Y U i b M B C C B B C } &.-.-.-.-.6.-.-.*.+.o.} _ R I I J H G < < < < 1 < < G I Y I J Y Y U ",
"G 2 J 2 1 1 1 1 < < 2 Y Y Y Y H 2 I u _ O.o.+.+.+.o.o.&.-.-.6.y.n.u.8.8.8.6.-.*.+.+.+. ._ W K e H 2 1 < 1 1 1 G G H G H J I J G ",
"H U H 2 1 1 1 1 G 2 H H J U Y Y K v } +.+.+.+.+.o.O.&.-.6.x.E.(.W.i.q.0.0.0.0.6.6.*.+.+.+.} x J I I H 2 G G U G G J U G T H G G ",
"L L H H H H J I 2 J I U I U T E ) *.-.*.*.-.*.X.&.-.6.b.!.[.`.J.t.-.&.&.&.&.-.*.-.-.*.*.+.+.C c r H H U H G T e G Y I T P 2 G I ",
"I G H J H H G L J L U K L Y T ] w.w.w.w.w.w.$. .-.6.F._.).I.s.{ n j j j f j n j z X.+.*.+.+.X.B c r H T J e L I I L T T H G J I ",
"I J Y Y U H I L J 2 T L L ( P./.^.^.^.^.^.C. .-.6.0.b.Z.3.M j f j M _ n n _ n - X $ l X.+.+.X.C B n r I T H Y J U I U J 2 J I I ",
"H J T T L I J L U 2 J U K [ D.G.G.G.G.G.S.>.&.6.q.6.=.V g j M #.9.8.0.n _ 0.8.=.B a @ $ N X.X.B C C c r L J Y I H H U U 2 H G G ",
"H Y L U T I J T J H 2 e ' q.q.q.q.q.q.7. . .6.0.6.&.n j M =.l.Y.T.i.7.M M 5.6.-.*.o.B $ O d N B C C B x e H 2 G 2 H H G G H H H ",
"H L P J T 2 J T U 2 I R =.6.6.6.6.6.-.{ { =.0.6.&.n j | t.Y.'.'.G.e.@.} m } -.+.+.+.*.X.k X $ l m B C N 6 < 1 1 > 1 < 1 2 G G H ",
"G J U U P 2 H E e 2 r { +.+.*.+.+.+.C z } 6.6.&.n j ..v./.[.W.z.0.:.` &.B N &.*.+.+.+.+.+.k X $ l z B B j 5 < < < 1 1 1 G I G G ",
"H G 2 2 1 H G 2 2 I b o.+.o.+.o.+.X.z N  .6.-.n j ..A.!.E.c.e.6.-.1.%.*.S l X.*.*.+.+.+.+.+.k X a k m B z 7 1 U J J I Y Y Y L J ",
"U H 2 G J J G 2 H w n B B B B B B z z B &.-.{ j  .8.z.i.q.0.6.-.-.a.r.*.X.z B +.+.+.+.+.+.+.S a X d z z N g p T Y J U Y Y T T ~ ",
"Y I U I H L T U 1 0 m N N N N N z z N B o.} f M 6.0.q.q.0.6.-.-.;.f.l.+.o.N k +.+.+.+.+.+.+.X.z @ @ k z z k 9 1 I T I G I I ~ J ",
"Y G Y J L Y J 2 , j N N N N N N k z m C o.s s &.q.q.q.8.-.-.-.-...B.v.+.o.B z C *.+.+.+.+.o.C C d X $ k k l f q ! Y e 2 T 2 e T ",
"G Y T 2 U L L ~ 9 z N N N N N z k z z } z O l 8.q.q.8.-.-.-.-.-.` Q.H.+.o.C N N +.+.*.+.+.o.S C N @ X d k k k 6 2 2 < 1 Y U 2 G ",
"H U T < 1 U U J c z N N N N N z k z z B a # O.q.q.0.6.-.-.6.:.;.M.{.~.d.,.A C z X.*.+.+.+.S C C B d X $ k k k ; < 1 H 2 Y G J G ",
"I I H 2 < < J q j N N N N N N z k k z k O g 6.q.7.&.o. ...>.g.U.]. X|.).L.m.<.Z z N B S C N N B C z X X a l d 8 r Y Y Y G H H Y ",
"Y I H H H 1 1 i l N N N N N z k k a z a X l _ ) | { | @.#.#.9.u.K.}.`.j.,.Z B X.C N z k k k k d d a # X a k d d w K L J Y I I Y ",
"U 2 H H 2 1 2 9 m N N N N N z k k a d # #  .) $.0.6.6.6.6.-.-.*.2.~.R.+.X.B N C S S S B N N z k a d a X @ d d d 4 T I L J U I e ",
"H I H H J K T x N N N N N N z k k a a X d 8.7._ $.-.+.+.+.+.+.+.2.R.V.+.S z N N N N N N N z k a d B z X X $ d d 7 2 I I 2 I G 2 ",
"H H G H I U L j N N N N N N k k k a a X k 0.0.o.M #.O.S X.+.+.+.+.V.N.+.C N N N N N N N l d a d B C z @ X $ s d : G H 2 e J J I ",
"Y I G H G G Y f k l k z z k k k d $ $ . l 7.6.+.X.V #.O.B B S X.X.k.h.S B N N z N N z k a a k B C S N $ X @ a d : 2 G J I J U T ",
"U J I H G H G - a a a a a a a k d $ # X l 4.O.+.+.X.V #.} N N N N p.F N N N N N N z d $ $ k B C C C N $ . @ - d s 1 2 U G Y U I ",
"G I Y H H H J $ a a a a a a a k d # @ X g #.} X.o.+.X.M  .} N N N D D N N N N N z a # $ d B C S C C z # . @ - d s H P J ! T J Y ",
"J L J G H 1 1 $ $ a a $ $ a a k d # @ X g  .S C C S X.S m  .} N N Z A N N N N z a X # d B S C C B N z # . X a d a 2 1 I Y I Y I ",
"I H H G G 1 < $ a a a a a a a d d # @ . s V C C C S C } B l  .C N Z N z N z N z a a d B B S C B N z z X X @ $ d s I U L T I J 2 ",
"H H H H H H I $ a a a a a a a d d $ @ X a m C C C S C C B n  .X.N N N N N N N N a X k C S S B N z z k X X X $ d : H J U G U J I ",
"H H H H Y Y I ; a a a a $ a a s d $ @ . $ l N S C C C B B M &.+.B N N N z N B z k X a B B B N z z N k X X @ $ d : H I G G J H H ",
"H G L L Y U I 7 $ a $ a a a $ a d $ @ X # k z B C S C C m | -.+.C N N z k k z N d a # N N N z z z z a X X X $ d 7 I Y J G G H H ",
"H J T J I H Y 9 a a a a a a a a a a @ X X k k B C C C C m =.*.+.B N N d d d k k d a X k z z z z z k a . X # a d 9 J I I H H I G ",
"J J H ! I 1 T t $ a a a $ a a a a a @ X . a k z B C C B M 7.+.X.B z d $ $ a a d d a X a z z z z z d # . X X d d w J J U H G G H ",
"2 L L H H H H e ; a a $ a a - a d a @ @ . $ k l z B C z @.6.+.C N k a @ @ @ a a a a a a k N z z d a X X # a a s r G Y H H G Y ~ ",
"Y J < e H H H J 7 - a a a - a $ a d # X X X d k k z B n 7.-.X.N k a a z k $ @ $ a a $ $ d z z k d $ . X @ $ s 9 I I I G G H T I ",
"Y J Y T T e H G 5 # # # # # # # $ d a X X X # d d d d M 0.+.B k a d z N z z d @ @ a a $ a k d d d O . @ @ a s 6 J T H H G J I U ",
"U I J 2 2 H H G q + O @ @ @ O O @ d a @ X X X a d d s @.8.C k d k N z z N z z k a @ X $ a a d d $ . X @ $ a : r J U H G H I Y U ",
"J J 2 H 2 I G H I * @ O @ O O @ X a d $ @ X . @ d s j 4.| s s l z z z z z z z z z d @ # a a d a X . @ @ a d 9 H 2 2 H 2 2 H J I ",
"T T T T G G G I H q + O @ X @ @ X # d a # @ X . $ a g n d a a k k k k k z k k k k d a a @ $ d @ . X @ $ a s r H 1 < < 1 2 G J I ",
"I J Q T G H H G H e * O @ @ @ @ @ X a a $ @ X . X @ - s d d d d d d d d d d d d d d d d a @ X X X @ @ $ s 9 G I G J G H G H Y L ",
"T G 2 2 G G H G H H 1 + @ @ @ X @ X @ d a X @ @ X . $ d d d d d d d d d d d d d d d d d d @ . X @ @ $ a : q G G H U 2 H H H I T ",
"E J 2 2 1 1 < 1 < e I 6 @ X @ @ @ @ X a d a @ @ X . X $ d d d d d d d a d d d d d d d a X X X X @ @ a s 9 2 T J I J K J H H G J ",
"2 I 2 < > < < 1 1 G I 2 = O O O O O @ @ - s $ @ @ X X . @ a d a d d d d d d d d d d $ X . X @ @ @ $ d 0 J U H I Y J T J K H H H ",
"H e H 2 2 G 2 1 2 2 2 H r & @ O @ O O O @ s a @ @ @ @ X . X @ a a d d d d d d a $ X X . X @ @ @ $ a 8 r I I H 2 J T K J I 2 G G ",
"H H H I J H J 2 1 1 < < J w & O O @ O @ @ @ a a # @ @ @ X X   . X @ @ # # @ X X . . X @ @ @ @ @ a : q I G I G I J 2 I 2 H H G I ",
"H H H H G J J H H H H H G J 1 & O @ O O O O # s a # @ @ @ @ X X . .     . . . . X X @ @ @ @ $ s 8 q H H I 2 2 T J 2 I G I G G H ",
"H I Y U I I T ~ H H I G I 2 U r & O O @ @ O O O a a a @ @ @ @ @ @ X @ X @ @ @ @ @ @ @ @ @ $ s 7 r H H G I Y 1 I I 2 Y Y T 2 2 H ",
"H I Y Y Y T U J G H 1 1 2 H H H e * o X . . .   X $ a a a @ @ @ @ @ @ @ @ @ @ @ @ @ @ a s d 4 r I H H G I T T I U G Y T U I I I ",
"I U U I Y U T ^ e 1 > > > 2 I H H H , % .           . @ a a a $ # # # @ @ @ @ # $ - a d 8 r J G I H H H U Q T Y Y I Y H T T U I ",
"Y Y ! T H U T I H H 2 2 2 H 2 2 U Y Y 2 > % o           X $ a a a a a a a a a s s s 9 u J U I G 2 H G I H Y U Y Y J G U K J 2 H ",
"Y U J ~ U I 2 H G G H H H 2 2 U U Y I U J J w 3 % o         . O $ a s s s : : 0 t r I Y U Y I G G I H H H G J 2 2 2 2 J H G H H ",
"Y T 1 H U J 2 G H J H I H < 1 > J U I J U J e Q H H H H H H H G H U T I I U 2 Y U I G Y Y I H I I G G H H H I < > > 2 I G G H G ",
"^ J 1 H 2 1 H 1 2 2 1 2 H > < 1 2 e Y < e < e 2 H H G H H I G 2 I e Y Y Y Y J U Y H 2 J I G H H G H H H H H G H 2 G H 2 I H H G ",
"J 1 G G G 2 < < < > < 1 2 2 < 1 < 2 2 < < 1 < 2 G H H H J H U U J Q U J U J G G G H H I I H I H G G 2 1 G 2 2 H I < < > 2 G I H ",
"H H J H H H H G 2 2 2 G I H 2 < < < 1 1 2 G H 2 2 2 G G G Y H U Y Y T J G H H H H H G G H T 2 2 G I 2 1 1 1 2 I 2 2 2 2 2 T I H ",
"G I G G H H G J H G 2 1 2 2 H H G 2 2 G G H H J H G G H H T I G J J L Y H G I G H H I J J ~ e I 2 H H G 2 I G H U 2 Y T 2 ~ e J ",
"H I H H H G H H I T U G G J I Y H Y T G I G H G H G H H J U G H H G G J H H H H H H Q Q Q J I U J G G J 2 H H T T U ! U I J T e ",
"~ I H J Y G Y T T ! T I U ~ Q Y H ~ I T I H H H H G G J Y H U T U H G I G G G G G U T Q T T U Y e H U / U 2 L U J L H I I I T T "
};
