/* XPM */
static char *result[] = {
/* columns rows colors chars-per-pixel */
"32 32 51 1 ",
"  c #2D1E13",
". c #331C10",
"X c #2D2115",
"o c #3C2315",
"O c #3A2618",
"+ c #402717",
"@ c #4E2917",
"# c #452C1B",
"$ c #4F2B19",
"% c #532D1A",
"& c #49301E",
"* c #5A311C",
"= c #64351D",
"- c #69371F",
"; c #4F3B26",
": c #563923",
"> c #5F3E27",
", c #713B21",
"< c #7C4326",
"1 c #7C4628",
"2 c #834527",
"3 c #804628",
"4 c #804A2B",
"5 c #8E4A2A",
"6 c #914C2B",
"7 c #97502D",
"8 c #99512E",
"9 c #895130",
"0 c #9C5631",
"q c #A55730",
"w c #A75832",
"e c #AA5932",
"r c #B05D34",
"t c #BF6437",
"y c #B76A3E",
"u c #BC6B3E",
"i c #C56739",
"p c #C76A3C",
"a c #976641",
"s c #B76D40",
"d c #BB6D40",
"f c #B67044",
"g c #BC7244",
"h c #D27644",
"j c #D77A47",
"k c #D87A46",
"l c #D67C49",
"z c #D97C49",
"x c #D48B57",
"c c #DE935D",
"v c #E18650",
/* pixels */
"7hjjkjkjkkkkkjva>dkjkjjkzjjjjjzc",
"-6776867886886r4+27788688888777h",
"-5666666666665e4+26666666666666i",
"=5756666666666q,.,6666666666667i",
"-6666666666666w3+26666666666667i",
"=6666666666666e1o<6666666666667i",
"-5666666666666e1o<6686666666666i",
"-5666666666766r1o<6666666666668i",
"=5566555655555q,+,5555556555656t",
"@%***%********=# $*********%**=,",
"O###&&#  +&#+#######&&#X ##&&#;;",
"4spdddf>O0ddsyhdyhddddg>.wddddgx",
"-68877r3.2888888778777e4o288888h",
"-66666w3o3666666566666w,o266666t",
"=56666w<o2766666666666r,o266666i",
"=66666e3o,666666566667r<+,66666i",
"=56666e1+2666666666666w1O366666i",
"=56566w<o,666666666666w1#,76668i",
"=56666w1.3666666666666r,o286666i",
"=55555q1.<555655655665w,o,66666t",
"@*****=#.%********%***=# $*****2",
"o+####++#######  +#####+#######;",
"9dtsuddudtddtdd:.0hsddsydddddfhl",
"-6777768876777r<O26787876877888g",
"=5655565556565e<.<6665565655666h",
"=5566656655556q<o<6666665666666r",
"=5566565655666e2o26556656666666i",
"=5655666655566e,o<6656666565566i",
"=5556566666655q<o<5566565655666i",
"=5556555556556e2o<6555656665656i",
"=5555555555555q,.<5555555555556t",
"$=============,-.*===*========-2"
};
