/* XPM */
static char *result[] = {
/* columns rows colors chars-per-pixel */
"32 32 177 2 ",
"   c #A0C110",
".  c #A6C611",
"X  c #A0C00F",
"o  c #A0C210",
"O  c #A2C410",
"+  c #A5C811",
"@  c #A7C811",
"#  c #A4C610",
"$  c #A5C711",
"%  c #A3C510",
"&  c #9FC20F",
"*  c #9EC210",
"=  c #9FC210",
"-  c #A3C410",
";  c #A4C510",
":  c #A6C510",
">  c #9FC00F",
",  c #A4C611",
"<  c #A5C611",
"1  c #A5C510",
"2  c #A1C410",
"3  c #A1C310",
"4  c #9FC311",
"5  c #A4C410",
"6  c #A0BF0F",
"7  c #A3C511",
"8  c #A2C510",
"9  c #A1C411",
"0  c #A0C310",
"q  c #A8C911",
"w  c #A8C711",
"e  c #9FC110",
"r  c #9EC211",
"t  c #A6C610",
"y  c #A2C20F",
"u  c #9EC111",
"i  c #9EBF0F",
"p  c #9EC010",
"a  c #9FC211",
"s  c #A7C711",
"d  c #A4C30F",
"f  c #A1C210",
"g  c #9FC010",
"h  c #A2C310",
"j  c #A1C10F",
"k  c #9EC110",
"l  c #9CBC0E",
"z  c #A3C611",
"x  c #A3C310",
"c  c #A0C010",
"v  c #9DC00F",
"b  c #A0C20F",
"n  c #A6C711",
"m  c #A2C00F",
"M  c #9DBF10",
"N  c #A3C210",
"B  c #A5C511",
"V  c #9EBE0F",
"C  c #9BBB0E",
"Z  c #9BBB0D",
"A  c #9BBC0F",
"S  c #A0C410",
"D  c #A4C511",
"F  c #9DBD0F",
"G  c #9CBA0E",
"H  c #9AB80D",
"J  c #9DBD0E",
"K  c #A8C710",
"L  c #9DBE0F",
"P  c #98B60D",
"I  c #99B60D",
"U  c #9BBA0D",
"Y  c #9CBB0E",
"T  c #9DBC0E",
"R  c #A2C311",
"E  c #A6C710",
"W  c #A7C810",
"Q  c #A1C30F",
"!  c #9FC30F",
"~  c #A2C210",
"^  c #A0C211",
"/  c #A2C30F",
"(  c #A7C710",
")  c #A2C411",
"_  c #A7C611",
"`  c #A0C10F",
"'  c #A9CA11",
"]  c #A5C610",
"[  c #9EC10F",
"{  c #9EBF10",
"}  c #A4C310",
"|  c #A8C811",
" . c #A1C20F",
".. c #A2C40F",
"X. c #A5C40F",
"o. c #A9C911",
"O. c #A1C110",
"+. c #9FC10F",
"@. c #9EBE0E",
"#. c #A2C110",
"$. c #ABC912",
"%. c #A6C811",
"&. c #9AB70E",
"*. c #9AB70D",
"=. c #99B60C",
"-. c #99B50C",
";. c #9BB90D",
":. c #9FBF10",
">. c #9FC10E",
",. c #A0BE0E",
"<. c #98B40C",
"1. c #9EBD0E",
"2. c #9BB90E",
"3. c #9BB80D",
"4. c #A8C910",
"5. c #A4C411",
"6. c #A4C710",
"7. c #99B50D",
"8. c #9EBA0D",
"9. c #9FBF0F",
"0. c #A0C30F",
"q. c #98B40D",
"w. c #9FBC0F",
"e. c #A7C610",
"r. c #A2C10F",
"t. c #9DB90D",
"y. c #9FBD0D",
"u. c #A3C30F",
"i. c #A4C50F",
"p. c #A3C610",
"a. c #9EBC0E",
"s. c #9BBA0E",
"d. c #A9C912",
"f. c #95AD0A",
"g. c #9AB90D",
"h. c #A5C30F",
"j. c #A1BF0E",
"k. c #A3C40F",
"l. c #A3C411",
"z. c #9FC310",
"x. c #A5C710",
"c. c #9EC00F",
"v. c #9DBC0F",
"b. c #9DBF0F",
"n. c #A4C711",
"m. c #9AB60D",
"M. c #9FBC0E",
"N. c #A7C911",
"B. c #97B10C",
"V. c #A0C311",
"C. c #A5C411",
"Z. c #A5C410",
"A. c #A1C40F",
"S. c #A4C60F",
"D. c #9BB80E",
"F. c #99B70D",
"G. c #A6C810",
"H. c #A1C510",
"J. c #A5C50F",
"K. c #9CBD0F",
"L. c #A1C311",
"P. c #A8C810",
"I. c #A2C511",
"U. c #9CBC0F",
"Y. c #A8CA11",
"T. c #9DBE0E",
"R. c #A9C811",
"E. c #9FBF0E",
"W. c #A8C912",
"Q. c #A4C40F",
"!. c #9DBA0E",
"~. c #A6C410",
"^. c #9BB70D",
"/. c #A1C00F",
"(. c #ADCB12",
"). c #AAC911",
"_. c white",
/* pixels */
"  . X o O + @ # $ % & * = = - ; : > * = = , ; < ; @ < 1 o * 2 3 ",
"4 < 5 6 = 2 7 8 2 = o O 2 o 9 7 5 % O o = 0 0 3 7 < q w   e = e ",
"r 7 t y r u i p a 3 - s ; e r r 3 , % d 0 = 2 3 r 9 $ f g o e o ",
"h g o j o k l l o z , q x c e v b n - m > % % O k v M i o - N B ",
"x V C Z A = 8 S o # . D f F G H J D s B f K $ h L P I U & O % - ",
"% p Y T V R E W Q & ! o g e e > o n : < = ~ j f ^ g > / Q < - & ",
"h % 3 % - ( @ ~ i = = 2 / x % - b Q 5 g p 3 6 s r ) ; ; < _ ` x ",
"8 ' ] < y y d x [ = = 9 , ) ] ] b i { o } . | < e k o ` p  .[ * ",
"..( / X.y > N o.] $ z 7 e h O.+.@.H C #.$.n %.` &.*.=.-.=.;.+.& ",
"f :.X +.V i >.q $ # $ < - N O.% ,.<.<.1.E O 8 * M 2.3.m x ; %.4.",
"# 5.6.- 7.<.H h f f 2 & q q $ + : 8.I 9.= 0 0.% 9.<.q.w.n O.5.e.",
"D r.r.: t.<.y.- u.i.o * 2 p.8 O ~ a.T s.i n %.d.- -.f.<.T J h ` ",
"7 p g.,.h.j.k.$ < @ O k = e h O 3 l.f p % n E ; o T =.J ; 6.O 7 ",
"f * X 5 ( ] h ) 3 O o b 3 o t $ ; l.< = ] X = [   h t z.3 - x j ",
"9 = h E x.0 L s.g.Y g h O h - 2   e p r 0 O ] & 1 K x.3 c.g y 1 ",
"; 2 k +.= = [ i > [ > - 1 - 7 2 e s.v.= = B W j 9.5.< 3 p u.%.. ",
") & l H Y +.e ~ ] 2 k    .= b.J o % 2 * 0 O = o x 5 s O e 5 n O ",
"* & O h % 9 o O.- n.k e & k s.m.} o.# # 3 0 3 a L M.j Q h - / o ",
"0.$ D @ N.n %.% f 7 k ^ D % 3 O 7 D ' < t ] W h 7.B.7.y < - = = ",
"/ % o - 0 9 7 0 V.l.N C.Z.s B ; h p l.` y s | O b.V +.3 O O = # ",
"% N 3 [ * r k ` A.- ; S.y 6 D.I I F.> %  .h o 3 f ; % D , 0 0 s ",
"; O.+.= 3 2 9 3 # ; o O f p F l V g O W x.o   O 3 ; 3 3 X L e # ",
"s s & = 4 p.; % x.h = h = O G.H.+ - x.J.j b.O.1 % - f e T C [ , ",
"J.@.C s.K.L.b 0.3 Q b = * % P.% x.Q  .5 : O I.O  .f j Q - ~ a % ",
"  U.*.F.s.c.O %., n Y.# o f ` O. .k * O q x.x.n % O 5.3 1 1 o k ",
"r V.f ` U.K.Q ] < - ( ; .., - < < p A T.8 o 3 - a = o f f f = [ ",
"L.$ n R.e J V O = X O.o $ n ] @ q g K.E.` X  .  = k B Z.h $ 1 o ",
"%.W.s R.9.F.C   ) O V.3 0.3 3 7 Q.y ` ] ; E P. .e = n | % ; . h ",
"@ 5 } c.[ u U.!.Z.5 N ~.h * * b.Q.%.; ; D # $ ^ o * z.9.;.c.& k ",
"} L L H *.s.s.<.G Y ^.a.> [ o y 1 s # h 0 o 3 = [ L L i Y 2.g = ",
"e & k c.V T i K.s.Y L c.b.k % - # ] = = r h B O.+.F Y   O./.5.x ",
"D 0 0 % W.1 1 %.n.< 0 * k o D 5.2 0.= [ 3 (.).. ` E f D @ n B s "
};
