/* XPM */
static char *result[] = {
/* columns rows colors chars-per-pixel */
"32 32 206 2 ",
"   c #010101",
".  c #0A0B04",
"X  c #0F1102",
"o  c #0C111F",
"O  c #1B1413",
"+  c #151617",
"@  c #171B03",
"#  c #350A0A",
"$  c #3B170B",
"%  c #291D1A",
"&  c #300F12",
"*  c #1E2219",
"=  c #252808",
"-  c #2D3505",
";  c #353B05",
":  c #2D201F",
">  c #353014",
",  c #1A1727",
"<  c #141C3B",
"1  c #0C183B",
"2  c #26193C",
"3  c #2C1D20",
"4  c #1C2329",
"5  c #1B2A33",
"6  c #26292A",
"7  c #332929",
"8  c #29343D",
"9  c #3C3A3C",
"0  c #2E312E",
"q  c #470B0B",
"w  c #540906",
"e  c #5C0A06",
"r  c #461B0C",
"t  c #5C0E12",
"y  c #530F13",
"u  c #4A181B",
"i  c #561516",
"p  c #5B1E0F",
"a  c #6A0A05",
"s  c #640A07",
"d  c #7F100F",
"f  c #6B1315",
"g  c #761318",
"h  c #711010",
"j  c #48240C",
"k  c #562A0D",
"l  c #463E06",
"z  c #57300B",
"x  c #6C2E11",
"c  c #6D1525",
"v  c #4A292A",
"b  c #44332E",
"n  c #442637",
"m  c #473535",
"M  c #5C3737",
"N  c #512627",
"B  c #723231",
"V  c #39450D",
"C  c #3A4507",
"Z  c #374418",
"A  c #36453C",
"S  c #3E4C23",
"D  c #474708",
"F  c #4A5607",
"G  c #535809",
"H  c #4B5414",
"J  c #5B5F1F",
"K  c #554409",
"L  c #5B6B06",
"P  c #54650A",
"I  c #5E6C09",
"U  c #5A6C12",
"Y  c #606508",
"T  c #697A07",
"R  c #667514",
"E  c #545D24",
"W  c #544736",
"Q  c #4B5435",
"!  c #404D27",
"~  c #0C1D54",
"^  c #101D4D",
"/  c #192241",
"(  c #2F3E46",
")  c #21305F",
"_  c #363F4F",
"`  c #142160",
"'  c #10297B",
"]  c #2C2666",
"[  c #3C2867",
"{  c #513C72",
"}  c #37444A",
"|  c #394652",
" . c #3E505B",
".. c #324C75",
"X. c #3F5875",
"o. c #59464B",
"O. c #41525B",
"+. c #505055",
"@. c #664847",
"#. c #6B5756",
"$. c #755B59",
"%. c #695A41",
"&. c #7C615D",
"*. c #425461",
"=. c #495B68",
"-. c #624B62",
";. c #4D616F",
":. c #50616E",
">. c #4E6474",
",. c #546A79",
"<. c #766665",
"1. c #707679",
"2. c #820D0A",
"3. c #86100C",
"4. c #8C1519",
"5. c #861518",
"6. c #961416",
"7. c #9B1517",
"8. c #94151A",
"9. c #9E171C",
"0. c #9F191F",
"q. c #A2171C",
"w. c #A2181E",
"e. c #9D2C19",
"r. c #8D1922",
"t. c #A51A21",
"y. c #843A39",
"u. c #952532",
"i. c #A52327",
"p. c #B64214",
"a. c #924A26",
"s. c #835A57",
"d. c #9D5452",
"f. c #81655D",
"g. c #886A67",
"h. c #9B7977",
"j. c #927372",
"k. c #A07E7B",
"l. c #C06F72",
"z. c #6D8209",
"x. c #6E8505",
"c. c #718506",
"v. c #758C06",
"b. c #798D06",
"n. c #7A9306",
"m. c #7C9606",
"M. c #829C06",
"N. c #819A08",
"B. c #8EAB06",
"V. c #87A306",
"C. c #91AF06",
"Z. c #95B306",
"A. c #99B606",
"S. c #97B807",
"D. c #9CBC06",
"F. c #97B708",
"G. c #A1BF06",
"H. c #9FC107",
"J. c #9FC208",
"K. c #A2C407",
"L. c #A6C807",
"P. c #A8C907",
"I. c #A4C508",
"U. c #A8C708",
"Y. c #A7C808",
"T. c #A9C908",
"R. c #A6807E",
"E. c #0F2A81",
"W. c #112E8A",
"Q. c #122C81",
"!. c #11308B",
"~. c #173796",
"^. c #304F88",
"/. c #315288",
"(. c #1D42A5",
"). c #2651B4",
"_. c #2C58B9",
"`. c #3D67A9",
"'. c #5C7383",
"]. c #637A89",
"[. c #6E7794",
"{. c #3669C8",
"}. c #427AD8",
"|. c #8A7B80",
" X c #768B99",
".X c #768791",
"XX c #4F8DE5",
"oX c #4A87E3",
"OX c #5191EB",
"+X c #978E8D",
"@X c #999696",
"#X c #85898C",
"$X c #AE8987",
"%X c #B48481",
"&X c #B78B89",
"*X c #A79797",
"=X c #BA9392",
"-X c #BB928F",
";X c #8499A5",
":X c #9AABB3",
">X c #AFAEA7",
",X c #C1928F",
"<X c #CC9E9B",
"1X c #D7BBB9",
"2X c #CCCCCC",
"3X c #E3E7E8",
/* pixels */
"K.U.D.K.K.Y.Y.Y.Y.L.J.J.J.J.I.U.U.K.K.J.J.Y.Y.L.I.Y.Y.U.K.J.K.K.",
"J.U.U.G.K.K.L.I.K.J.K.K.K.K.G.D.D.D.K.K.J.J.J.K.Y.Y.T.L.K.J.K.J.",
"J.U.U.K.J.J.J.J.K.K.K.Y.L.Z.I D D D b.C.Z.D.I.I.J.K.Y.J.D.K.J.K.",
"K.J.J.K.K.J.D.D.J.Y.Y.Y.D.L p f f f z D K c.C.G.J.J.J.J.K.K.K.L.",
"K.G.D.D.D.J.K.K.K.U.U.U.F.D y.i.q.q.4.d g k l b.S.A.A.A.K.K.K.L.",
"L.G.D.G.J.K.L.P.K.J.J.K.Z.H h.l.t.q.q.q.w.4.g k T A.K.L.K.U.K.K.",
"K.L.K.K.L.U.L.L.J.K.J.J.m.V 1.*Xy.a a 3.7.w.w.4.x T S.L.L.U.K.K.",
"L.U.L.L.K.K.L.K.J.K.D.N.K $ u N u q # e s 3.6.7.4.r P Z.K.K.J.K.",
"K.P.L.L.K.G.K.T.P.K.n.; t h t y t t t y q w e 3.6.t r Y V.D.G.K.",
"K.D.K.G.G.G.G.P.U.K.c.F k & b $.<.@.% # t M W f d 6.5.r c.L.P.P.",
"L.U.L.K.A.A.D.K.K.K.D.C.T = $.+X2X1Xg.% m $X<Xs.p d 4.$ c.K.L.L.",
"I.K.K.K.D.A.G.K.K.U.D.T G > f.#.@X1X=Xm g.<X<XR.b # q G M.G.K.G.",
"I.G.A.G.L.G.K.L.U.G.R %.f.g.h.g.<.$X,Xo.g.,X%X@.O . F B.L.L.K.L.",
"K.K.K.K.U.U.K.L.K.A.G &.&X$X#.9 6 g.<X$X&Xs.m O   @ c.K.K.L.K.K.",
"K.J.K.U.L.K.J.D.D.A.N.U b 7 O O $.,X<X<X&Xs.% X = L A.K.D.K.K.K.",
"U.K.J.K.J.J.J.D.J.K.J.M.-   O $.,X<XR.j.M v 6 F v.A.L.K.K.K.P.U.",
"K.K.J.A.H.H.H.L.Y.K.B.n.Q o.@.g.j.g.B N f r.-.| R F.T.U.J.K.U.K.",
"J.K.K.K.K.I.H.J.K.M.V Q >X2X|.N i u g 4.9.t.u.[ 5 P Z.K.K.U.K.K.",
"K.L.L.L.P.P.J.J.n.; X #X3X3X@Xy.8.8.q.w.t.9.9.[ 1 > R F.Y.K.K.J.",
"K.I.K.L.H.J.H.v.- . 8 1..X1.M 5.w.w.q.w.9.9.f ] / #.W n.K.K.J.U.",
"I.K.K.D.v.I P - j x #.X.^...n t 5.6.8.6.f y 2 ' / $.Q v.Y.K.K.L.",
"L.K.D.x.Q | } : x p.a. XOXXX`...n i y u 2 ~ E.W.< #.W x.J.J.K.L.",
"Y.Y.S.F } O.( + w 2.e.[.OXOXOXoX`./././.~.~.~.~ o 7 : C m.D.D.U.",
"Y.H.C.C 4 | *.4 & s d { _._.}.OXoX{._.).~.!.~ o 8 } + X T J.J.K.",
"K.D.m.C A ,.'.>.5 w d c ] W.(.).).(.W.^ < 1 o ( ;.'.*., - m.L.J.",
"J.D.F *  .,.'.'. .3 w a & , ` E.E.' ) 8 <.9 8 ,.*.>.].*.* x.J.J.",
"L.J.V 8 ,. .>..X,.5 # v B y.o._ _ O.j.=Xd.7 } ].]. X;X,.6 c.Y.K.",
"Y.K.F A ,.'. X X=.> $ g.*X*X@X@X@X+Xs.B a j A ].;X:X XO.Z m.Y.K.",
"L.L.B.U }  .;. .S z.I H E E E E E E D l D T U A =.,.O.S z.F.J.J.",
"K.J.J.B.P V V V c.A.C.B.Z.C.C.C.C.Z.Z.C.F.D.Z.P V V C n.D.H.J.J.",
"K.K.J.J.S.S.H.S.S.D.J.J.J.J.K.Y.Y.Y.K.K.K.K.U.D.D.S.Z.G.K.J.U.K.",
"L.K.J.L.T.L.L.P.Y.L.K.J.J.J.K.U.K.K.J.J.U.T.T.U.K.L.K.L.L.U.U.T."
};
