/* XPM */
static char *result[] = {
/* columns rows colors chars-per-pixel */
"32 32 132 2 ",
"   c #010601",
".  c #020A01",
"X  c #0A0D05",
"o  c #041104",
"O  c #021D00",
"+  c #0B1906",
"@  c #062404",
"#  c #072C04",
"$  c #082D06",
"%  c #092E08",
"&  c #053B03",
"*  c #0D340A",
"=  c #123A0E",
"-  c #044102",
";  c #044B00",
":  c #0A4F07",
">  c #12410F",
",  c #055201",
"<  c #085803",
"1  c #134210",
"2  c #2A490A",
"3  c #3D490A",
"4  c #2E540E",
"5  c #294017",
"6  c #364B12",
"7  c #2E5412",
"8  c #2F5319",
"9  c #3B5514",
"0  c #3C5913",
"q  c #056700",
"w  c #0C6207",
"e  c #066D00",
"r  c #096E04",
"t  c #067100",
"y  c #097503",
"u  c #0D7F06",
"i  c #12740E",
"p  c #1C6318",
"a  c #1B6F18",
"s  c #177911",
"d  c #455509",
"f  c #47580A",
"g  c #4A5B0A",
"h  c #414C1E",
"j  c #445510",
"k  c #475319",
"l  c #515E17",
"z  c #50630A",
"x  c #546119",
"c  c #65760C",
"v  c #697D08",
"b  c #6B7B1C",
"n  c #414C21",
"m  c #556024",
"M  c #6C7A26",
"N  c #6C7731",
"B  c #6E7930",
"V  c #6D7638",
"C  c #71793F",
"Z  c #0D8007",
"A  c #108609",
"S  c #128A0B",
"D  c #16920E",
"F  c #1D8616",
"G  c #1E8817",
"H  c #1F8918",
"J  c #179510",
"K  c #189511",
"L  c #1B9C13",
"P  c #228D1E",
"I  c #24941C",
"U  c #1EA416",
"Y  c #20A717",
"T  c #20A817",
"R  c #22A419",
"E  c #22AC1A",
"W  c #25B31C",
"Q  c #27B81E",
"!  c #28B91F",
"~  c #278A21",
"^  c #288C21",
"/  c #2CA623",
"(  c #2BAA24",
")  c #30AE28",
"_  c #29B320",
"`  c #2ABD20",
"'  c #33B52A",
"]  c #33BD2B",
"[  c #2CC222",
"{  c #31CD26",
"}  c #31C129",
"|  c #33CD29",
" . c #34D129",
".. c #37D92C",
"X. c #39DD2E",
"o. c #3BD632",
"O. c #3CD833",
"+. c #3BE12F",
"@. c #3DE531",
"#. c #3EE932",
"$. c #42EA36",
"%. c #43F436",
"&. c #44F638",
"*. c #46FC39",
"=. c #48FF3B",
"-. c #8CA90B",
";. c #92AD05",
":. c #90AD0A",
">. c #95B207",
",. c #99B506",
"<. c #9DBD06",
"1. c #95B10C",
"2. c #99B60D",
"3. c #9DBF08",
"4. c #93AE12",
"5. c #95AE1C",
"6. c #95B110",
"7. c #99B610",
"8. c #9DBB13",
"9. c #97B01F",
"0. c #9CB71A",
"q. c #A1BF0E",
"w. c #A2BF13",
"e. c #9FC207",
"r. c #9FC208",
"t. c #A2C407",
"y. c #A3C508",
"u. c #A8C708",
"i. c #A7C808",
"p. c #A9C909",
"a. c #A4C312",
"s. c #AAC814",
/* pixels */
"t.u.e.t.t.i.i.y.i.y.t.e.e.y.y.y.u.t.t.e.r.i.i.i.i.i.i.i.y.r.y.y.",
"e.u.u.3.t.y.y.y.t.e.t.t.y.e.y.y.y.y.y.y.r.r.r.t.t.i.p.i.e.e.r.r.",
"r.i.i.y.r.r.t.e.t.y.y.u.i.t.e.y.t.u.y.u.r.y.y.y.y.y.i.r.t.t.t.y.",
"y.,.>.>.>.;.;.;.>.,.,.2.1.1.>.:.>.,.,.;.>.>.>.>.>.1.4.5.9.9.0.y.",
"7.g 2 4 4 4 4 4 4 4 4 4 7 4 4 4 4 4 4 4 4 4 4 4 7 7 7 8 7 5 m w.",
"6.6 P [ } } | o.O.O.o.| } ] } } } } ] | } ` } } } ] } [ ` a n 0.",
"6.6 i U D A E *.=.=.&.W D L L A S A A A S S S L S L U L D : n a.",
"6.9 ( @.U t L &.=.=.&.U E @.! y t t t e e e J _ L [ +.@.U - n 0.",
"6.9 ] =.W r L *.=.=.%.U [ =. .y e t t e e t u T [ W #.=.W - n 8.",
"4.9 ] =.E e U &.=.=.&.U ! =. .y e t t t t r D [ U { #.=.W - n a.",
"7.9 ] =.W e L *.=.=.&.Y ! =. .y t e e t t e u Y [ W @.=.W - n w.",
"7.9 ] =.E e U &.=.=.&.U ! =. .y t t t t t t D ` W { #.=.W - n 7.",
"7.9 ] =.E r L *.=.=.&.U ` =. .y e e t t r t u T [ W +.=.W - 9 8.",
"6.9 ] =.W r L *.=.=.&.R ` =. .y t t t e t r S [ T { %.*.W & n 7.",
"2.0 ] =.W e L &.=.=.*.R ` =. .y e e t t t t Z R [ W +.=.W - h q.",
"2.9 ) $.R q K @.$.$.@.K E $.] r q q q e q q S _ L [ $.$.R & k q.",
"6.j = 1 * O # > 1 1 1 $ * 1 * O O O O O O O # = @ = > > % + x 3.",
"q.-.d .   o     . . o o o .             . o   o o .     X l 6.y.",
"t.y.-.3 p ' I < w / ' ' ' G , , , , , < F F s _ ( w ; @ x 7.y.r.",
"y.y.y.g ~ =. .y A @.=.=.=.[ y t t y y U ! ! O.=.#.A e # b p.r.y.",
"u.t.q.d ~ =.| y A @.=.=.=.` t e t t y J ! ! [ &.#.S q # M a.y.i.",
"u.t.<.f ~ =.{ y A @.=.=.=.[ y t t t y U ! W ..=.#.S q $ B a.y.t.",
"i.i.t.d ~ =. .y A @.=.=.=.` t e t t t D ! ! [ *.#.S q $ V r.r.t.",
"u.<.<.d ~ =. .y A @.=.=.=.[ y t t e y U ! W ..=.@.S q % C s.r.i.",
"t.<.,.d P =.| y A @.=.=.=.[ t t e t y K ` Q [ *.#.S q $ C s.r.r.",
"t.t.t.g P *.| y A @.=.=.=.[ y e t t y U W W ..=.#.S q # N a.r.r.",
"t.i.y.g P =. .y A +.=.=.=.[ t t t e y K Q _ [ =.#.S q # M p.i.t.",
"i.p.u.g P =. .y A @.=.=.=.` t t t t y U Q W  .*.#.S e # b p.i.t.",
"u.u.q.f ~ =.| y A @.=.=.*.[ y e t e y L Q Q { *.$.A e # c y.r.r.",
"t.q.q.f ~ =.| y A +.=.=.*.[ t t e t t U Q W  .=.#.A q # c r.r.r.",
"t.t.q.z P =.| y A +.=.=.=.[ t t t t t L ! ! { =.#.A e # c y.i.y.",
"u.t.q.z ^ =.{ y A @.=.*.*.` y e e e t L W W { *.#.A e # v p.y.p."
};
