/* XPM */
static char *result[] = {
/* columns rows colors chars-per-pixel */
"32 32 207 2 ",
"   c #010101",
".  c #0B0B05",
"X  c #0E1103",
"o  c #161909",
"O  c #1B1413",
"+  c #181A19",
"@  c #0C111E",
"#  c #300B0B",
"$  c #3E0B0C",
"%  c #3C180B",
"&  c #2A1D1B",
"*  c #310F10",
"=  c #1E2410",
"-  c #2C3305",
";  c #373C06",
":  c #2C201F",
">  c #32290D",
",  c #0D1120",
"<  c #191825",
"1  c #131D3B",
"2  c #0C183B",
"3  c #27183C",
"4  c #1D2329",
"5  c #1C2B31",
"6  c #252929",
"7  c #332A28",
"8  c #393725",
"9  c #242D36",
"0  c #29353E",
"q  c #3F3737",
"w  c #460A0C",
"e  c #530906",
"r  c #5C0A07",
"t  c #471D0C",
"y  c #551A0D",
"u  c #5B0E12",
"i  c #4C1A1C",
"p  c #4B1518",
"a  c #571516",
"s  c #6A0A05",
"d  c #660A06",
"f  c #6F0E15",
"g  c #6E1114",
"h  c #621412",
"j  c #771418",
"k  c #72120D",
"l  c #49240D",
"z  c #562A0D",
"x  c #50380A",
"c  c #6D2F12",
"v  c #6B1523",
"b  c #48292A",
"n  c #583B3A",
"m  c #4A2D32",
"M  c #773636",
"N  c #702F2F",
"B  c #38440E",
"V  c #3A4608",
"C  c #384315",
"Z  c #3F4D27",
"A  c #34433D",
"S  c #454206",
"D  c #434C0B",
"F  c #494907",
"G  c #4B5708",
"H  c #4B5514",
"J  c #59540F",
"K  c #5C6B06",
"L  c #5A6C09",
"P  c #546508",
"I  c #586911",
"U  c #646C07",
"Y  c #687807",
"T  c #687813",
"R  c #545E24",
"E  c #535728",
"W  c #554B35",
"Q  c #4B5337",
"!  c #6A5D3E",
"~  c #556126",
"^  c #0C1D55",
"/  c #101D4D",
"(  c #182141",
")  c #343A44",
"_  c #20335E",
"`  c #2E3E48",
"'  c #112161",
"]  c #102A7A",
"[  c #2C2666",
"{  c #3F2863",
"}  c #573F49",
"|  c #4E396F",
" . c #384549",
".. c #3B4956",
"X. c #3F5262",
"o. c #324D76",
"O. c #3E5774",
"+. c #43535D",
"@. c #544F50",
"#. c #634443",
"$. c #695654",
"%. c #765C59",
"&. c #744F4E",
"*. c #7D615D",
"=. c #425561",
"-. c #4A5C69",
";. c #5D4565",
":. c #4E6372",
">. c #586F7F",
",. c #536878",
"<. c #4F626D",
"1. c #6E6260",
"2. c #766565",
"3. c #7B7B7C",
"4. c #647279",
"5. c #840E08",
"6. c #86100E",
"7. c #8C151A",
"8. c #861517",
"9. c #961516",
"0. c #9A1516",
"q. c #9D171C",
"w. c #97161C",
"e. c #A2171C",
"r. c #A2181E",
"t. c #AB3517",
"y. c #801820",
"u. c #9A1924",
"i. c #A41A22",
"p. c #893337",
"a. c #A52227",
"s. c #954620",
"d. c #825B58",
"f. c #9C5756",
"g. c #836464",
"h. c #8D6B68",
"j. c #957371",
"k. c #A47F7D",
"l. c #C06F72",
"z. c #6D8405",
"x. c #6D820A",
"c. c #728506",
"v. c #768C06",
"b. c #748B08",
"n. c #7B9406",
"m. c #7D9706",
"M. c #829B06",
"N. c #8DAA06",
"B. c #86A008",
"V. c #91AE06",
"C. c #92AE08",
"Z. c #95B406",
"A. c #99B705",
"S. c #9CBC06",
"D. c #9DBC08",
"F. c #97B806",
"G. c #A1BF06",
"H. c #9FC107",
"J. c #9FC308",
"K. c #A2C407",
"L. c #A6C807",
"P. c #A8C907",
"I. c #A4C508",
"U. c #A8C708",
"Y. c #A7C808",
"T. c #A9C908",
"R. c #96807F",
"E. c #A7807E",
"W. c #112E8A",
"Q. c #112C81",
"!. c #163796",
"~. c #112E87",
"^. c #2F5186",
"/. c #315287",
"(. c #1D43A6",
"). c #2A56B8",
"_. c #254FAD",
"`. c #3D66A9",
"'. c #5C7485",
"]. c #637B89",
"[. c #6B759E",
"{. c #386BC9",
"}. c #437CD9",
"|. c #887B80",
" X c #788D99",
".X c #71828C",
"XX c #4D8BE4",
"oX c #508FE8",
"OX c #5190EA",
"+X c #978D8D",
"@X c #989596",
"#X c #8A8B8B",
"$X c #B38582",
"%X c #B48C89",
"&X c #BC908E",
"*X c #B89594",
"=X c #A79392",
"-X c #8499A5",
";X c #9E9FA1",
":X c #9AACB4",
">X c #AEADA8",
",X c #C1928F",
"<X c #CC9D9B",
"1X c #CC9A97",
"2X c #D5B9B8",
"3X c #CCCDCD",
"4X c #E3E5E7",
/* pixels */
"K.U.K.K.K.L.Y.L.U.K.J.J.K.J.K.Y.L.K.J.J.J.U.I.U.K.Y.U.U.J.J.K.K.",
"J.U.K.K.K.K.U.K.K.J.K.K.L.J.S.J.S.K.K.K.J.K.I.K.I.Y.T.U.J.J.J.K.",
"J.U.U.K.J.K.J.S.K.U.K.S.Z.v.F F F U Z.U.K.J.I.K.J.I.I.K.J.K.K.K.",
"K.J.J.J.K.J.S.S.S.C.v.F S z g g f y K A.J.U.I.K.J.J.J.J.K.K.K.U.",
"L.H.S.S.S.K.L.F.c.x z j j 7.i.i.a.N S A.I.U.U.K.S.A.A.S.J.K.U.K.",
"K.J.S.S.J.K.J.c.z j 7.r.e.0.0.i.l.|.H D.K.I.K.K.K.K.G.K.K.U.K.J.",
"K.L.K.Y.K.F.Y c 7.e.e.9.6.s d M *Xj.C M.D.G.G.T.K.K.K.L.U.L.K.U.",
"L.P.L.L.Z.L t 7.q.0.5.d r w $ p b i % F M.I.T.U.J.J.K.K.J.J.J.J.",
"K.P.L.V.U t u 0.5.d e w w u u u u u g a ; n.K.J.F.S.A.A.A.G.G.K.",
"K.S.K.z.l 6.0.k a n n a # & $.2.$.m * z F z.J.J.S.S.G.G.K.K.P.P.",
"K.L.L.z.w 6.j a d.,Xk.n & *.2X3X+X*.> L Z.J.K.L.K.A.A.G.P.G.K.U.",
"U.K.K.N.P y # b $X<X1Xg.#.&X2X@X$.*.> G x.S.L.T.K.A.V.A.G.G.K.K.",
"L.S.F.K.V.G . O &.$X,Xh.#.*X%X1.h.k.g.*.! Y K.Y.K.S.A.S.P.P.K.K.",
"K.K.G.L.U.v.o   O m f.k.E.1Xh.7 q $.%X%Xd.G F.K.K.K.L.K.K.K.K.K.",
"K.J.K.L.L.Z.P = X & %.,X<X<X,X$.+ . 7 8 R B.K.K.L.U.L.K.G.K.K.U.",
"U.K.J.J.K.K.Z.v.H 6 b W j.$X1X,X%.&   - M.L.U.K.G.L.L.K.K.K.U.U.",
"L.K.S.S.S.J.Z.T } ;.j j i M h.j.h.@.m E n.N.G.K.K.I.U.U.J.L.U.K.",
"J.K.K.K.K.Z.K 5 { p.i.q.y.j p p b j.3X>XQ V M.J.G.G.K.K.K.K.K.K.",
"J.L.K.U.F.T 8 2 { u.e.i.i.i.w.w.p.;X4X4X#Xo ; n.Z.A.A.K.Y.K.K.J.",
"K.L.K.U.n.W $.( [ v 9.w.i.i.e.e.j #.3. X4.0 . - c.F.S.K.K.K.J.U.",
"K.K.K.K.c.W %.( ] 3 p f w.w.0.8.a m o.o.-.@.c x - L L n.J.K.K.Y.",
"Y.K.J.J.z.W %.1 W.Q.^ 3 p p p m o.`.oXOX Xs.t.c =  ...Q x.F.K.Y.",
"L.L.K.M.V & 7 @ ' W.!.!.^.^./.`.XXOXOXOX[.i.5.e +  ... .D Z.J.U.",
"L.H.F.U X , ` 9 @ ^ W.!._.).{.XXXX}.).).| j s # 6 X...4 D F.J.K.",
"K.S.n.- + X.'.:.0 @ 2 ( ^ ~.(._.).(.!.[ v 5.w 9 :.'.,.` V N.J.J.",
"J.K.z.4 X..X:.X.,.` m 2.) _ Q.W.~.' < * s e & X.'.'.'.X.+ G H.J.",
"K.Y.b.6 ,.-X X'.]. .% f.=Xj.+.` ` } p.M b # 4 ,..X:.X.,.9 V H.H.",
"Y.T.n.C X. X:X-X>. .> g N d.+X+X+X;X=X=X%.t 8 -. X X>.,.A P H.J.",
"Y.U.S.b.Z X.<.<. .L Y F S D R R E R ~ ~ H K x.Z +.:.=.A P N.J.J.",
"U.S.J.Z.v.V V V P N.A.V.N.N.Z.Z.C.A.Z.C.Z.Z.D.b.D B B L N.F.J.J.",
"J.J.J.J.J.F.F.F.F.S.S.J.J.K.Y.K.Y.Y.K.K.K.U.U.S.F.Z.Z.S.K.K.Y.K.",
"L.K.K.L.L.Y.Y.L.Y.U.K.J.J.K.Y.K.K.K.K.J.U.T.T.L.L.P.K.U.Y.Y.Y.U."
};
