/* XPM */
static char *result[] = {
/* columns rows colors chars-per-pixel */
"32 32 211 2 ",
"   c #010100",
".  c #0D0D04",
"X  c #130F0F",
"o  c #141507",
"O  c #0E131F",
"+  c #181716",
"@  c #210B0B",
"#  c #3C0A0B",
"$  c #261B19",
"%  c #311516",
"&  c #35170C",
"*  c #1E2303",
"=  c #252807",
"-  c #3B2806",
";  c #313B04",
":  c #32360B",
">  c #252E18",
",  c #151A25",
"<  c #161B34",
"1  c #220E22",
"2  c #192021",
"3  c #1D213C",
"4  c #252727",
"5  c #352827",
"6  c #212836",
"7  c #2C363C",
"8  c #2E393C",
"9  c #3B3435",
"0  c #430B0B",
"q  c #490A0A",
"w  c #5B0905",
"e  c #5C0C0F",
"r  c #56180B",
"t  c #5D0E11",
"y  c #4A141A",
"u  c #4A181C",
"i  c #5D1413",
"p  c #561216",
"a  c #660A05",
"s  c #740E09",
"d  c #7A0A05",
"f  c #641313",
"g  c #6A1818",
"h  c #7C1619",
"j  c #771316",
"k  c #671E0C",
"l  c #462A0A",
"z  c #56280E",
"x  c #40310B",
"c  c #583D0C",
"v  c #763914",
"b  c #641623",
"n  c #442626",
"m  c #532E2E",
"M  c #453C28",
"N  c #452A38",
"B  c #433636",
"V  c #533737",
"C  c #643D3C",
"Z  c #3E4A10",
"A  c #364203",
"S  c #3A4527",
"D  c #38473C",
"F  c #434D05",
"G  c #494D07",
"H  c #4D5A0A",
"J  c #475506",
"K  c #525F09",
"L  c #535707",
"P  c #5E5F1C",
"I  c #4F4D0F",
"U  c #556206",
"Y  c #54630C",
"T  c #596807",
"R  c #566316",
"E  c #596716",
"W  c #5D7011",
"Q  c #5E7107",
"!  c #667906",
"~  c #626407",
"^  c #494A26",
"/  c #4B512C",
"(  c #645C37",
")  c #586025",
"_  c #0B1945",
"`  c #181C4D",
"'  c #201B47",
"]  c #2E3C48",
"[  c #2D3351",
"{  c #0F2161",
"}  c #0E2777",
"|  c #112977",
" . c #332869",
".. c #252665",
"X. c #56325F",
"o. c #3A4A4F",
"O. c #37454A",
"+. c #3F505D",
"@. c #394B5A",
"#. c #34517E",
"$. c #5B4343",
"%. c #404F57",
"&. c #46535B",
"*. c #49484D",
"=. c #674B4A",
"-. c #744946",
";. c #665153",
":. c #6B5756",
">. c #745A55",
",. c #7A5D5A",
"<. c #745957",
"1. c #655444",
"2. c #7D615D",
"3. c #4A5D69",
"4. c #465B69",
"5. c #52546B",
"6. c #546C7B",
"7. c #556B77",
"8. c #6D6F72",
"9. c #820D07",
"0. c #89110F",
"q. c #841517",
"w. c #911414",
"e. c #9A1516",
"r. c #94151A",
"t. c #9E171A",
"y. c #9E181E",
"u. c #A2171C",
"i. c #A2181D",
"p. c #992611",
"a. c #B43D13",
"s. c #891C27",
"d. c #A51C22",
"f. c #883039",
"g. c #A32023",
"h. c #9A431E",
"j. c #924A47",
"k. c #814E4A",
"l. c #886A68",
"z. c #986E6C",
"x. c #977876",
"c. c #BC6061",
"v. c #A67D7A",
"b. c #6D8206",
"n. c #6C820A",
"m. c #748B09",
"M. c #758906",
"N. c #7B9406",
"B. c #7D9708",
"V. c #718210",
"C. c #839C06",
"Z. c #85A105",
"A. c #8BA606",
"S. c #91AD05",
"D. c #91AF08",
"F. c #95B306",
"G. c #9AB605",
"H. c #9CBC06",
"J. c #9CBB08",
"K. c #A1BD06",
"L. c #9FC107",
"P. c #9FC308",
"I. c #A2C407",
"U. c #A8C707",
"Y. c #A7C807",
"T. c #A4C508",
"R. c #A8C708",
"E. c #A7C808",
"W. c #A9C908",
"Q. c #AD827F",
"!. c #0F2B82",
"~. c #112E87",
"^. c #183999",
"/. c #183BA1",
"(. c #345693",
"). c #315584",
"_. c #264BAB",
"`. c #2752B6",
"'. c #234BB0",
"]. c #5B7383",
"[. c #677E8E",
"{. c #6F6B90",
"}. c #6D778B",
"|. c #4069AF",
" X c #4170B7",
".X c #386CCB",
"XX c #977F81",
"oX c #7D8082",
"OX c #748A97",
"+X c #708694",
"@X c #4D8BE5",
"#X c #5291EB",
"$X c #898786",
"%X c #958F8C",
"&X c #9D908E",
"*X c #9D9A9B",
"=X c #B58A87",
"-X c #AF918E",
";X c #BD918E",
":X c #AE8481",
">X c #899CA5",
",X c #93A4AD",
"<X c #A9A7A3",
"1X c #B8A0A0",
"2X c #CC9D9A",
"3X c #C79A97",
"4X c #C4928F",
"5X c #D2B5B3",
"6X c #CDCBCC",
"7X c #DBDFE2",
"8X c #E1E4E6",
/* pixels */
"I.R.I.I.I.E.E.E.Y.T.P.P.P.P.T.Y.U.I.P.P.P.Y.T.Y.T.Y.E.E.R.I.I.I.",
"P.R.I.I.H.P.I.R.P.P.I.T.I.I.I.I.T.T.I.I.P.I.I.I.R.Y.E.E.P.P.P.P.",
"P.T.Y.J.! J U S.P.P.P.Y.Y.P.I.P.I.U.T.T.I.I.I.I.P.P.Y.I.P.I.I.I.",
"I.I.H.m.S 6 * Z T T m.T.I.P.P.P.I.U.I.I.I.T.T.I.P.P.P.H.I.I.I.R.",
"P.L.m.S 4.6.o.7 + 8 / B.K.H.H.H.H.T.U.T.I.U.U.T.H.G.G.H.P.T.T.T.",
"P.L.J o.].4.6.6.o.&.%.Q H.I.P.I.I.W.U.T.I.T.I.I.I.I.I.T.I.T.I.I.",
"P.P.H +.+X4.6.].3.] o.Y H.T.I.T.I.I.T.L.H.T.I.W.L.I.T.T.U.T.I.I.",
"Y.Y.Y o.OX+X].6.] + 4 ; N.I.Y.Y.I.L.P.I.T.U.U.T.L.L.I.K.I.I.P.I.",
"P.I.N.S &.6.3.O.o q k l ; B.P.P.K.H.H.I.W.Y.Y.P.H.H.G.G.G.H.I.I.",
"I.P.P.m.9 4 4 0 w 9.a.v . A C.I.K.F.S.H.E.I.P.P.H.H.H.K.U.I.U.U.",
"U.U.I.b.- @ 0 d s p.p.1.] o Z S.T.C.H b.H.H.b.C.L.G.G.H.I.I.I.U.",
"R.I.H.Y >.m a j X.{.[.6.8.8./ N.A.P >.( m.F.G G A.G.F.G.K.I.I.I.",
"T.P.F.R %X-.#  .'.@X#X).}.7X<X) ; M ;X,.R ! z t I C.S.G.I.U.I.T.",
"I.I.H.R &Xj.1 !.`.#X@X).8.8X7XB   5 =X,.: = # g & F H J ! H.I.I.",
"I.P.H.E %X;.` /..X#X|.N C *X$X=.$ + <.x.,.<.n t n $Xx.g z ! I.U.",
"R.P.G.R %X5.} '.#X#X).p q.f.m l.<.+ B l.:.&X;.t m 1Xc.i.f U T.W.",
"I.I.F.R %X&.} '.@X X9 q.y.r.u z.;X;.5 2.<X6X:.t y f.d.i.i U I.I.",
"P.I.H.R $X5.} /..X(.y r.d.y.p z.3X;Xl.-X5X5X/ f 0 s t.u.f T K.I.",
"I.Y.H.Y -.x.@.!.'.(.y r.u.y.j V :X2X2X;XQ.>.% t 0 s e.q.I Z.P.I.",
"I.I.J.H i ;X*._ /.(.y w.u.d.r.u z.3X:X$.X.$ 0 q w w.u.f L H.P.R.",
"T.I.H.U e j.2.3 ^.^.' f t.d.t.j =.Q.Q.l.l.V f 0 s e.t.f K H.K.U.",
"Y.I.H.N.x % 9 < } ^.{ y w.d.d.s.n <.l.4X2XQ.m w 0.t.q.c C.K.I.U.",
"R.R.F.W D @.] , _ ~.~.' b s.f.;.5 $ n Q.2X;XV a e.y.g L F.H.I.T.",
"R.H.Q D ].[.].[ O _ !.} .. . .O.K o X =.v.-.i 0.t.h c C.K.I.I.T.",
"P.G.J +.>X+Xo.7.] O < 3 < < 2 V.N.=   o 5 i 0.w.q.c N.I.R.T.I.P.",
"P.H.H &.,X>X7.6.O.5 ,.l.>.M ! K.H.! = . # 0.r.p l M.P.T.P.I.P.P.",
"T.T.T O.+XOX+X+.+ + ^ ^ ^ n.H.W.U.F.N.K r j h l b.J.T.Y.T.T.T.I.",
"Y.E.D.R O.4.@.2 o F C.C.A.H.I.T.I.I.I.G.~ - - b.H.Y.Y.E.T.T.U.I.",
"W.T.T.Z.H > > ; M.S.P.I.Y.L.P.P.I.W.I.U.F.C.Z.G.I.P.I.I.H.K.I.P.",
"T.H.P.G.B.N.B.B.H.H.H.H.L.P.P.I.U.W.Y.I.T.I.I.I.P.P.H.H.H.H.I.I.",
"I.I.P.P.P.P.P.P.H.H.L.L.H.L.I.Y.Y.Y.I.I.I.T.T.I.P.H.H.I.I.I.I.I.",
"T.I.I.I.W.T.Y.Y.Y.Y.I.P.L.I.Y.I.I.I.L.L.U.W.W.W.I.T.I.U.U.U.T.U."
};
